<?xml version="1.0" encoding="iso-8859-1"?>
<!-- Generator: Adobe Illustrator 19.0.0, SVG Export Plug-In . SVG Version: 6.00 Build 0)  -->
<svg version="1.1" id="Capa_1" xmlns="http://www.w3.org/2000/svg" xmlns:xlink="http://www.w3.org/1999/xlink" x="0px" y="0px"
	 viewBox="0 0 436.907 436.907" style="enable-background:new 0 0 436.907 436.907;" xml:space="preserve">
<polyline style="fill:#EA3457;" points="240.271,135.417 225.28,20.48 279.893,20.48 341.333,177.493 245.76,177.493 "/>
<path style="fill:#602F75;" d="M341.333,184.32H245.76c-3.773,0-6.827-3.053-6.827-6.827s3.053-6.827,6.827-6.827h85.574
	l-56.1-143.36h-42.18l13.986,107.226c0.493,3.734-2.147,7.159-5.886,7.646c-3.707,0.527-7.166-2.147-7.646-5.886L218.515,21.359
	c-0.259-1.947,0.34-3.907,1.64-5.386c1.292-1.473,3.159-2.319,5.125-2.319h54.613c2.813,0,5.333,1.72,6.361,4.34l61.44,157.013
	c0.819,2.099,0.553,4.473-0.72,6.333C345.701,183.207,343.586,184.32,341.333,184.32z"/>
<polygon style="fill:#EA3457;" points="225.28,416.427 279.893,416.427 341.333,259.413 245.76,259.413 "/>
<path style="fill:#602F75;" d="M279.893,423.253H225.28c-1.966,0-3.833-0.847-5.127-2.319c-1.3-1.48-1.9-3.441-1.64-5.386
	l20.48-157.013c0.44-3.4,3.34-5.946,6.767-5.946h95.573c2.253,0,4.367,1.113,5.641,2.98c1.273,1.86,1.539,4.233,0.72,6.333
	l-61.44,157.013C285.227,421.533,282.706,423.253,279.893,423.253z M233.054,409.6h42.18l56.1-143.36h-79.58L233.054,409.6z"/>
<path style="fill:#FFE600;" d="M382.293,266.24H34.133v-95.573h348.16c26.392,0,47.787,21.395,47.787,47.787l0,0
	C430.08,244.845,408.685,266.24,382.293,266.24z"/>
<g>
	<path style="fill:#602F75;" d="M382.293,273.067H34.133c-3.773,0-6.827-3.053-6.827-6.827v-95.573c0-3.773,3.053-6.827,6.827-6.827
		h348.16c30.114,0,54.613,24.499,54.613,54.613S412.407,273.067,382.293,273.067z M40.96,259.413h341.333
		c22.586,0,40.96-18.374,40.96-40.96s-18.374-40.96-40.96-40.96H40.96V259.413z"/>
	<path style="fill:#602F75;" d="M95.573,225.28H6.827c-3.773,0-6.827-3.053-6.827-6.827s3.053-6.827,6.827-6.827h88.747
		c3.773,0,6.827,3.053,6.827,6.827S99.347,225.28,95.573,225.28z"/>
</g>
<polygon style="fill:#FFFFFF;" points="47.787,334.507 88.747,334.507 116.053,238.933 61.44,238.933 "/>
<path style="fill:#602F75;" d="M88.747,341.333h-40.96c-1.98,0-3.86-0.86-5.159-2.353c-1.294-1.493-1.881-3.48-1.601-5.441
	l13.653-95.573c0.48-3.359,3.36-5.859,6.76-5.859h54.613c2.14,0,4.161,1.007,5.453,2.714c1.287,1.713,1.7,3.927,1.113,5.987
	l-27.307,95.573C94.473,339.313,91.793,341.333,88.747,341.333z M55.66,327.68h27.94l23.4-81.92H67.36L55.66,327.68z"/>
<polygon style="fill:#FFFFFF;" points="47.787,102.4 88.747,102.4 116.053,197.973 61.44,197.973 "/>
<path style="fill:#602F75;" d="M116.053,204.8H61.44c-3.4,0-6.281-2.5-6.76-5.861l-13.653-95.573
	c-0.28-1.959,0.307-3.946,1.601-5.441c1.299-1.492,3.18-2.352,5.159-2.352h40.96c3.046,0,5.726,2.021,6.567,4.953l27.307,95.573
	c0.587,2.06,0.174,4.273-1.113,5.987C120.214,203.793,118.193,204.8,116.053,204.8z M67.36,191.147h39.641l-23.402-81.92H55.66
	L67.36,191.147z"/>
<g>
	<path style="fill:#00E7FF;" d="M375.467,245.76c15.082,0,27.307-12.225,27.307-27.307s-12.225-27.307-27.307-27.307V245.76z"/>
	<path style="fill:#00E7FF;" d="M375.467,252.587c-3.773,0-6.827-3.053-6.827-6.827v-54.613c0-3.773,3.053-6.827,6.827-6.827
		c18.819,0,34.133,15.314,34.133,34.133S394.286,252.587,375.467,252.587z M382.293,199.141v38.627
		c7.946-2.819,13.653-10.414,13.653-19.313C395.947,209.557,390.24,201.96,382.293,199.141z"/>
</g>
<g>
</g>
<g>
</g>
<g>
</g>
<g>
</g>
<g>
</g>
<g>
</g>
<g>
</g>
<g>
</g>
<g>
</g>
<g>
</g>
<g>
</g>
<g>
</g>
<g>
</g>
<g>
</g>
<g>
</g>
</svg>
