<?xml version="1.0" encoding="iso-8859-1"?>
<!-- Generator: Adobe Illustrator 19.0.0, SVG Export Plug-In . SVG Version: 6.00 Build 0)  -->
<svg version="1.1" id="Capa_1" xmlns="http://www.w3.org/2000/svg" xmlns:xlink="http://www.w3.org/1999/xlink" x="0px" y="0px"
	 viewBox="0 0 204.8 204.8" style="enable-background:new 0 0 204.8 204.8;" xml:space="preserve">
<ellipse style="fill:#997843;" cx="102.4" cy="102.4" rx="98.986" ry="98.986"/>
<path d="M102.4,204.8c-27.351,0-53.067-10.651-72.407-29.993S0,129.751,0,102.4s10.651-53.067,29.993-72.407S75.049,0,102.4,0
	s53.067,10.651,72.407,29.993S204.8,75.049,204.8,102.4s-10.651,53.067-29.993,72.407S129.751,204.8,102.4,204.8z M102.4,6.827
	c-25.528,0-49.529,9.941-67.581,27.993S6.827,76.872,6.827,102.4s9.941,49.529,27.993,67.581
	c18.051,18.051,42.052,27.993,67.581,27.993s49.529-9.941,67.581-27.993c18.051-18.051,27.993-42.052,27.993-67.581
	s-9.941-49.529-27.993-67.581C151.929,16.768,127.928,6.827,102.4,6.827z"/>
<path d="M3.444,105.842C1.538,105.9,0,104.325,0,102.429c0-1.884,1.529-3.413,3.413-3.413l0,0c0.009,0,0.02,0,0.029,0
	c25.528,0,49.527-9.94,67.579-27.993C89.073,52.972,99.014,28.971,99.014,3.442c0-1.884,1.529-3.413,3.413-3.413
	c1.884,0,3.413,1.529,3.413,3.413c0,27.351-10.651,53.067-29.993,72.407C56.509,95.191,30.793,105.842,3.444,105.842z"/>
<path d="M101.164,203.593c-1.884,0-3.413-1.527-3.413-3.413c-0.009-27.363,10.643-53.089,29.993-72.438
	c19.342-19.342,45.056-29.993,72.407-29.993c1.884,0,3.413,1.529,3.413,3.413c0,1.884-1.529,3.413-3.413,3.413
	c-25.528,0-49.529,9.941-67.581,27.993c-18.058,18.06-28,42.069-27.993,67.61C104.578,202.064,103.05,203.592,101.164,203.593
	L101.164,203.593z"/>
<path d="M32.406,175.807c-0.874,0-1.748-0.333-2.413-1c-1.333-1.333-1.333-3.494,0-4.826L169.981,29.993
	c1.331-1.333,3.495-1.333,4.826,0c1.333,1.333,1.333,3.494,0,4.826L34.819,174.807C34.154,175.474,33.28,175.807,32.406,175.807z"/>
<path d="M174.807,173.394c-0.874,0-1.748-0.333-2.413-1L32.406,32.406c-1.333-1.333-1.333-3.494,0-4.826
	c1.331-1.333,3.495-1.333,4.826,0L177.22,167.567c1.333,1.333,1.333,3.494,0,4.826C176.555,173.061,175.681,173.394,174.807,173.394
	z"/>
<g>
</g>
<g>
</g>
<g>
</g>
<g>
</g>
<g>
</g>
<g>
</g>
<g>
</g>
<g>
</g>
<g>
</g>
<g>
</g>
<g>
</g>
<g>
</g>
<g>
</g>
<g>
</g>
<g>
</g>
</svg>
