<?xml version="1.0" encoding="iso-8859-1"?>
<!-- Generator: Adobe Illustrator 19.0.0, SVG Export Plug-In . SVG Version: 6.00 Build 0)  -->
<svg version="1.1" id="Capa_1" xmlns="http://www.w3.org/2000/svg" xmlns:xlink="http://www.w3.org/1999/xlink" x="0px" y="0px"
	 viewBox="0 0 413.013 413.013" style="enable-background:new 0 0 413.013 413.013;" xml:space="preserve">
<path style="fill:#8C6B3B;" d="M148.48,337.92H66.56c-7.54,0-13.653-6.113-13.653-13.653v-143.36c0-7.54,6.113-13.653,13.653-13.653
	h81.92c7.54,0,13.653,6.113,13.653,13.653v143.36C162.133,331.807,156.02,337.92,148.48,337.92z M80.213,310.613h54.613V194.56
	H80.213V310.613z"/>
<path d="M148.48,344.747H66.56c-11.293,0-20.48-9.187-20.48-20.48v-143.36c0-11.293,9.187-20.48,20.48-20.48h81.92
	c11.293,0,20.48,9.187,20.48,20.48v143.36C168.96,335.56,159.773,344.747,148.48,344.747z M66.56,174.08
	c-3.763,0-6.827,3.06-6.827,6.827v143.36c0,3.767,3.063,6.827,6.827,6.827h81.92c3.763,0,6.827-3.06,6.827-6.827v-143.36
	c0-3.767-3.063-6.827-6.827-6.827H66.56z M134.827,317.44H80.213c-3.77,0-6.827-3.053-6.827-6.827V194.56
	c0-3.773,3.057-6.827,6.827-6.827h54.613c3.77,0,6.827,3.053,6.827,6.827v116.053C141.653,314.387,138.597,317.44,134.827,317.44z
	 M87.04,303.787H128v-102.4H87.04V303.787z"/>
<path style="fill:#8C6B3B;" d="M332.785,406.187H155.322c-11.319,0-20.495-9.177-20.495-20.495V112.64H353.28v273.051
	C353.28,397.01,344.103,406.187,332.785,406.187z"/>
<path d="M332.783,413.013H155.324c-15.066,0-27.324-12.254-27.324-27.32V112.64c0-3.773,3.057-6.827,6.827-6.827H353.28
	c3.77,0,6.827,3.053,6.827,6.827v273.053C360.107,400.759,347.849,413.013,332.783,413.013z M141.653,119.467v266.226
	c0,7.533,6.134,13.667,13.67,13.667h177.459c7.537,0,13.67-6.134,13.67-13.667V119.467H141.653z"/>
<path d="M175.787,365.227c-3.77,0-6.827-3.053-6.827-6.827V180.907c0-3.773,3.057-6.827,6.827-6.827c3.77,0,6.827,3.053,6.827,6.827
	V358.4C182.613,362.173,179.557,365.227,175.787,365.227z"/>
<path d="M209.92,365.227c-3.77,0-6.827-3.053-6.827-6.827V180.907c0-3.773,3.057-6.827,6.827-6.827c3.77,0,6.827,3.053,6.827,6.827
	V358.4C216.747,362.173,213.69,365.227,209.92,365.227z"/>
<path d="M244.053,365.227c-3.77,0-6.827-3.053-6.827-6.827V180.907c0-3.773,3.057-6.827,6.827-6.827c3.77,0,6.827,3.053,6.827,6.827
	V358.4C250.88,362.173,247.823,365.227,244.053,365.227z"/>
<path d="M278.187,365.227c-3.77,0-6.827-3.053-6.827-6.827V180.907c0-3.773,3.057-6.827,6.827-6.827s6.827,3.053,6.827,6.827V358.4
	C285.013,362.173,281.957,365.227,278.187,365.227z"/>
<path d="M312.32,365.227c-3.77,0-6.827-3.053-6.827-6.827V180.907c0-3.773,3.057-6.827,6.827-6.827s6.827,3.053,6.827,6.827V358.4
	C319.147,362.173,316.09,365.227,312.32,365.227z"/>
<path style="fill:#FBAD4A;" d="M325.973,64.853c-3.205,0-6.245,0.584-9.185,1.41c-4.931-12.783-17.253-21.89-31.775-21.89
	c-11.433,0-21.494,5.673-27.687,14.304c-2.091-0.401-4.238-0.65-6.446-0.65c-2.454,0-4.837,0.283-7.144,0.777
	C240.71,29.6,216.03,6.827,186.027,6.827c-29.749,0-54.233,22.398-57.598,51.243c-0.145-0.002-0.282-0.043-0.428-0.043
	c-18.852,0-34.133,15.281-34.133,34.133s15.282,34.133,34.133,34.133c10.732,0,20.19-5.053,26.447-12.798
	c9.093,5.915,19.924,9.385,31.58,9.385c13.626,0,26.129-4.729,36.031-12.592c6.043,9.586,16.652,16.005,28.822,16.005
	c11.433,0,21.494-5.673,27.687-14.304c2.091,0.401,4.238,0.65,6.446,0.65c3.205,0,6.245-0.584,9.185-1.41
	c4.931,12.783,17.253,21.89,31.775,21.89c18.852,0,34.133-15.282,34.133-34.133S344.825,64.853,325.973,64.853z"/>
<path d="M325.973,139.947c-15.024,0-28.454-8.033-35.627-20.893c-3.057,0.473-5.903,0.532-8.893,0.247
	c-7.74,8.719-18.886,13.819-30.573,13.819c-11.67,0-22.55-4.927-30.247-13.447c-10.353,6.586-22.187,10.033-34.606,10.033
	c-10.624,0-21.004-2.599-30.333-7.561c-7.54,7.033-17.36,10.974-27.694,10.974c-22.586,0-40.96-18.374-40.96-40.96
	c0-20.746,15.503-37.939,35.533-40.6C128.756,21.794,155.083,0,186.027,0c30.99,0,57.134,21.581,63.42,51.227
	c1.673-0.067,3.309-0.02,4.994,0.14c7.74-8.721,18.886-13.821,30.573-13.821c15.024,0,28.454,8.033,35.627,20.893
	c1.83-0.28,3.584-0.413,5.333-0.413c22.586,0,40.96,18.374,40.96,40.96S348.559,139.947,325.973,139.947z M294.204,104.4
	c2.756,0,5.33,1.679,6.366,4.372c4.105,10.641,14.077,17.521,25.404,17.521c15.056,0,27.307-12.247,27.307-27.307
	S341.03,71.68,325.973,71.68c-2.193,0-4.526,0.367-7.34,1.161c-3.386,0.94-6.95-0.826-8.216-4.12
	C306.313,58.08,296.34,51.2,285.013,51.2c-8.716,0-16.993,4.287-22.141,11.46c-1.55,2.167-4.186,3.253-6.851,2.72
	c-3.91-0.753-7.229-0.686-10.86,0.094c-1.896,0.42-3.871-0.007-5.441-1.154c-1.567-1.14-2.577-2.886-2.777-4.813
	c-2.708-26.141-24.598-45.855-50.918-45.855c-25.964,0-47.811,19.434-50.816,45.206c-0.399,3.441-3.316,6.033-6.781,6.033
	c-0.196,0-0.469-0.014-0.727-0.039c-14.923,0.16-27.01,12.346-27.01,27.307c0,15.06,12.25,27.307,27.307,27.307
	c8.163,0,15.867-3.739,21.137-10.26c2.203-2.727,6.11-3.347,9.033-1.434c8.323,5.414,17.952,8.281,27.856,8.281
	c11.636,0,22.627-3.84,31.787-11.114c1.51-1.207,3.456-1.72,5.39-1.381c1.91,0.321,3.593,1.447,4.627,3.087
	c5.064,8.026,13.681,12.82,23.05,12.82c8.716,0,16.993-4.287,22.141-11.46c1.556-2.161,4.21-3.246,6.851-2.72
	c4.28,0.826,7.576,0.753,12.483-0.633C292.97,104.48,293.589,104.4,294.204,104.4z"/>
<g>
</g>
<g>
</g>
<g>
</g>
<g>
</g>
<g>
</g>
<g>
</g>
<g>
</g>
<g>
</g>
<g>
</g>
<g>
</g>
<g>
</g>
<g>
</g>
<g>
</g>
<g>
</g>
<g>
</g>
</svg>
