<?xml version="1.0" encoding="iso-8859-1"?>
<!-- Generator: Adobe Illustrator 19.0.0, SVG Export Plug-In . SVG Version: 6.00 Build 0)  -->
<svg version="1.1" id="Capa_1" xmlns="http://www.w3.org/2000/svg" xmlns:xlink="http://www.w3.org/1999/xlink" x="0px" y="0px"
	 viewBox="0 0 376.015 376.015" style="enable-background:new 0 0 376.015 376.015;" xml:space="preserve">
<path style="fill:#288EEA;" d="M175.736,59.033c28.585-49.898,91.892-66.995,141.401-38.187s66.473,92.614,37.888,142.514
	c-20.842,36.381-60.141,55.325-99.092,51.753c-14.471-1.328-28.896-5.763-42.308-13.566"/>
<path d="M265.251,222.366c-3.301,0-6.617-0.15-9.943-0.457c-15.954-1.459-31.133-6.327-45.117-14.464
	c-3.26-1.896-4.364-6.074-2.466-9.334c1.896-3.263,6.074-4.361,9.334-2.466c12.25,7.127,25.54,11.39,39.497,12.67
	c37.386,3.441,73.754-15.546,92.547-48.35c26.684-46.573,10.803-106.337-35.396-133.221c-22.296-12.971-48.273-16.444-73.149-9.779
	c-25.027,6.707-45.94,22.851-58.894,45.46c-1.874,3.27-6.043,4.403-9.317,2.529c-3.27-1.874-4.403-6.047-2.529-9.317
	c14.773-25.789,38.641-44.206,67.203-51.86c28.426-7.607,58.093-3.647,83.553,11.167c52.663,30.643,70.777,98.746,40.376,151.806
	C341.177,201.266,304.375,222.366,265.251,222.366z"/>
<path style="fill:#288EEA;" d="M223.014,208.23c-31.949,55.497-102.711,74.513-158.048,42.472
	C9.628,218.659-9.331,147.694,22.617,92.197s102.711-74.513,158.048-42.472C236.004,81.766,254.965,152.732,223.014,208.23z"/>
<path d="M122.618,273.126c-21.236,0-42.191-5.583-61.07-16.517C3.049,222.735-17.071,147.452,16.702,88.788
	c16.381-28.45,42.831-48.79,74.484-57.274c31.594-8.463,64.587-4.099,92.904,12.3c58.499,33.874,78.616,109.157,44.843,167.82
	c-16.381,28.45-42.831,48.79-74.484,57.274C143.921,271.729,133.232,273.126,122.618,273.126z M122.992,40.959
	c-9.429,0-18.92,1.241-28.273,3.746c-28.124,7.533-51.627,25.61-66.183,50.896C-1.491,147.756,16.39,214.684,68.39,244.795
	c25.156,14.563,54.46,18.434,82.526,10.926c28.124-7.537,51.627-25.614,66.183-50.9l0,0c30.027-52.154,12.15-119.079-39.851-149.193
	C160.473,45.919,141.854,40.959,122.992,40.959z"/>
<polygon style="fill:#777777;" points="98.824,134.696 105.396,102.949 81.19,124.514 49.443,117.942 71.008,142.149 
	64.436,173.895 88.642,152.329 120.389,158.902 "/>
<path d="M64.438,180.72c-1.174,0-2.35-0.3-3.413-0.913c-2.55-1.473-3.867-4.413-3.273-7.296l5.876-28.384l-19.28-21.644
	c-1.959-2.196-2.287-5.403-0.817-7.953c1.469-2.546,4.39-3.874,7.296-3.27l28.387,5.876l21.644-19.284
	c2.196-1.966,5.407-2.287,7.953-0.817c2.55,1.473,3.871,4.413,3.27,7.296l-5.876,28.387l19.28,21.644
	c1.959,2.196,2.287,5.403,0.817,7.953c-1.469,2.543-4.396,3.871-7.296,3.27l-28.387-5.876l-21.641,19.28
	C67.697,180.133,66.074,180.72,64.438,180.72z M68.267,128.813l7.837,8.796c1.437,1.613,2.028,3.809,1.587,5.924l-2.386,11.534
	l8.796-7.834c1.609-1.434,3.809-2.028,5.924-1.587l11.54,2.386l-7.837-8.796c-1.437-1.613-2.028-3.809-1.587-5.924l2.386-11.537
	l-8.796,7.837c-1.606,1.437-3.797,2.043-5.924,1.587L68.267,128.813z"/>
<polygon style="fill:#777777;" points="297.604,90.953 312.169,61.989 283.207,76.555 254.243,61.989 268.809,90.953 
	254.243,119.916 283.207,105.35 312.169,119.916 "/>
<path d="M254.248,126.743c-1.773,0-3.519-0.689-4.83-2c-2.084-2.08-2.594-5.263-1.273-7.893l13.024-25.897l-13.024-25.897
	c-1.319-2.63-0.811-5.813,1.273-7.893c2.08-2.077,5.263-2.599,7.893-1.273l25.897,13.027l25.897-13.027
	c2.637-1.326,5.813-0.804,7.893,1.273c2.084,2.08,2.596,5.263,1.273,7.893l-13.027,25.897l13.027,25.897
	c1.323,2.63,0.811,5.813-1.273,7.893c-2.08,2.08-5.257,2.596-7.893,1.273l-25.897-13.027l-25.897,13.027
	C256.337,126.506,255.287,126.743,254.248,126.743z M269.615,77.359l5.294,10.527c0.969,1.93,0.969,4.204,0,6.134l-5.294,10.527
	l10.527-5.297c1.927-0.966,4.207-0.966,6.134,0l10.523,5.294l-5.294-10.523c-0.969-1.93-0.969-4.204,0-6.134l5.294-10.523
	l-10.523,5.294c-1.927,0.966-4.207,0.966-6.134,0L269.615,77.359z"/>
<ellipse style="fill:#288EEA;" cx="239.905" cy="266.789" rx="101.7" ry="102.4"/>
<path d="M239.898,376.015c-59.846,0-108.534-49-108.534-109.227s48.686-109.227,108.534-109.227s108.534,49,108.534,109.227
	S299.744,376.015,239.898,376.015z M239.898,171.215c-52.316,0-94.88,42.873-94.88,95.573s42.563,95.573,94.88,95.573
	s94.88-42.873,94.88-95.573S292.215,171.215,239.898,171.215z"/>
<polygon style="fill:#777777;" points="236.164,234.313 250.729,205.349 221.767,219.915 192.803,205.349 207.369,234.313 
	192.803,263.276 221.767,248.71 250.729,263.276 "/>
<path d="M192.808,270.103c-1.773,0-3.519-0.689-4.83-2c-2.084-2.08-2.594-5.263-1.273-7.893l13.024-25.897l-13.024-25.897
	c-1.319-2.63-0.811-5.813,1.273-7.893c2.077-2.077,5.26-2.596,7.893-1.273l25.897,13.027l25.897-13.027
	c2.633-1.323,5.816-0.804,7.893,1.273c2.084,2.08,2.596,5.263,1.273,7.893l-13.027,25.897l13.027,25.897
	c1.323,2.63,0.811,5.813-1.273,7.893c-2.077,2.077-5.26,2.599-7.893,1.273l-25.897-13.027l-25.897,13.027
	C194.897,269.866,193.847,270.103,192.808,270.103z M208.175,220.719l5.294,10.527c0.969,1.93,0.969,4.204,0,6.134l-5.294,10.527
	l10.527-5.298c1.927-0.966,4.207-0.966,6.134,0l10.523,5.294l-5.294-10.523c-0.969-1.93-0.969-4.204,0-6.134l5.294-10.523
	l-10.523,5.294c-1.927,0.966-4.207,0.966-6.134,0L208.175,220.719z"/>
<g>
</g>
<g>
</g>
<g>
</g>
<g>
</g>
<g>
</g>
<g>
</g>
<g>
</g>
<g>
</g>
<g>
</g>
<g>
</g>
<g>
</g>
<g>
</g>
<g>
</g>
<g>
</g>
<g>
</g>
</svg>
