<?xml version="1.0" encoding="iso-8859-1"?>
<!-- Generator: Adobe Illustrator 19.0.0, SVG Export Plug-In . SVG Version: 6.00 Build 0)  -->
<svg version="1.1" id="Capa_1" xmlns="http://www.w3.org/2000/svg" xmlns:xlink="http://www.w3.org/1999/xlink" x="0px" y="0px"
	 viewBox="0 0 221.867 221.867" style="enable-background:new 0 0 221.867 221.867;" xml:space="preserve">
<circle style="fill:#595959;" cx="44.373" cy="124.587" r="40.96"/>
<path d="M44.373,168.96C19.905,168.96,0,149.053,0,124.587s19.905-44.373,44.373-44.373s44.373,19.907,44.373,44.373
	S68.842,168.96,44.373,168.96z M44.373,87.04c-20.704,0-37.547,16.843-37.547,37.547s16.843,37.547,37.547,37.547
	S81.92,145.29,81.92,124.587S65.077,87.04,44.373,87.04z"/>
<circle style="fill:#595959;" cx="177.493" cy="124.587" r="40.96"/>
<path d="M177.493,168.96c-24.468,0-44.373-19.907-44.373-44.373s19.905-44.373,44.373-44.373s44.373,19.907,44.373,44.373
	S201.962,168.96,177.493,168.96z M177.493,87.04c-20.704,0-37.547,16.843-37.547,37.547s16.843,37.547,37.547,37.547
	s37.547-16.843,37.547-37.547S198.197,87.04,177.493,87.04z"/>
<path d="M54.613,141.653h-10.24c-1.567,0-2.932-1.067-3.311-2.586l-3.413-13.653c-0.236-0.939-0.06-1.935,0.483-2.738
	c0.541-0.804,1.399-1.338,2.359-1.471l120.783-16.775l14.899-44.698h-15.746c-1.884,0-3.413-1.529-3.413-3.413
	c0-1.884,1.529-3.413,3.413-3.413h20.48c1.097,0,2.128,0.527,2.768,1.418c0.642,0.889,0.817,2.034,0.469,3.075l-17.067,51.2
	c-0.41,1.232-1.483,2.123-2.768,2.302L45.193,127.447l1.845,7.381h7.576c1.884,0,3.413,1.529,3.413,3.413
	S56.497,141.653,54.613,141.653z"/>
<path d="M191.147,138.24h-13.653c-1.294,0-2.475-0.73-3.053-1.886l-26.363-52.727H92.16c-1.142,0-2.207-0.57-2.84-1.521
	l-12.64-18.959H58.027c-1.884,0-3.413-1.529-3.413-3.413c0-1.884,1.529-3.413,3.413-3.413h20.48c1.142,0,2.207,0.57,2.84,1.521
	L93.986,76.8h56.201c1.294,0,2.475,0.73,3.053,1.886l26.363,52.727h11.544c1.884,0,3.413,1.529,3.413,3.413
	C194.56,136.711,193.031,138.24,191.147,138.24z"/>
<path d="M59.67,124.481c-0.746,0-1.495-0.242-2.123-0.742c-1.475-1.174-1.72-3.321-0.546-4.796l32.488-40.854
	c1.174-1.478,3.321-1.719,4.797-0.548c1.475,1.174,1.72,3.321,0.546,4.796l-32.488,40.854
	C61.67,124.041,60.674,124.481,59.67,124.481z"/>
<g>
</g>
<g>
</g>
<g>
</g>
<g>
</g>
<g>
</g>
<g>
</g>
<g>
</g>
<g>
</g>
<g>
</g>
<g>
</g>
<g>
</g>
<g>
</g>
<g>
</g>
<g>
</g>
<g>
</g>
</svg>
