<?xml version="1.0" encoding="iso-8859-1"?>
<!-- Generator: Adobe Illustrator 19.0.0, SVG Export Plug-In . SVG Version: 6.00 Build 0)  -->
<svg version="1.1" id="Capa_1" xmlns="http://www.w3.org/2000/svg" xmlns:xlink="http://www.w3.org/1999/xlink" x="0px" y="0px"
	 viewBox="0 0 512.095 512.095" style="enable-background:new 0 0 512.095 512.095;" xml:space="preserve">
<rect x="112.112" y="394.911" transform="matrix(-0.9261 0.3772 -0.3772 -0.9261 654.4808 726.9465)" style="fill:#4C3011;" width="287.892" height="65.298"/>
<path style="fill:#FF7F4B;" d="M391.691,165.4c0,0-13.4,19.7-41.5,36.4c0,0,20.3-171.9-112.2-201.8c34,124.6-43.2,159.8-71.3,93.9
	c-47,62.7-11.3,117.4-11.3,117.4c-19.3,2.8-35.4-18.3-35.4-18.3c-0.1,2.6-0.2,5.2-0.2,7.8c0,76.4,61.9,138.3,138.3,138.3
	s138.3-61.9,138.3-138.3C396.291,188.7,394.691,176.8,391.691,165.4z"/>
<path style="fill:#FD5219;" d="M391.691,165.4c0,0-13.4,19.7-41.5,36.4c0,0,18.2-154-92.2-195.8v333.3
	c76.4,0,138.3-61.9,138.3-138.3C396.291,188.7,394.691,176.8,391.691,165.4z"/>
<path style="fill:#FBDA35;" d="M318.691,278.6c0,33.5-27.2,60.7-60.7,60.7s-60.7-27.2-60.7-60.7c0-17.9,7.8-34,20.1-45.1
	c23.5,31.9,56.9-16.5,30.8-51.8C248.291,181.7,318.691,190.5,318.691,278.6z"/>
<path style="fill:#F7BA35;" d="M257.991,184v155.2l0,0c33.5,0,60.7-27.2,60.7-60.7C318.691,211,277.291,190.1,257.991,184z"/>
<rect x="223.388" y="283.543" transform="matrix(-0.3772 0.9261 -0.9261 -0.3772 748.5258 351.6198)" style="fill:#804D00;" width="65.298" height="287.892"/>
<g>
</g>
<g>
</g>
<g>
</g>
<g>
</g>
<g>
</g>
<g>
</g>
<g>
</g>
<g>
</g>
<g>
</g>
<g>
</g>
<g>
</g>
<g>
</g>
<g>
</g>
<g>
</g>
<g>
</g>
</svg>
