<?xml version="1.0" encoding="iso-8859-1"?>
<!-- Generator: Adobe Illustrator 19.0.0, SVG Export Plug-In . SVG Version: 6.00 Build 0)  -->
<svg version="1.1" id="Capa_1" xmlns="http://www.w3.org/2000/svg" xmlns:xlink="http://www.w3.org/1999/xlink" x="0px" y="0px"
	 viewBox="0 0 436.903 436.903" style="enable-background:new 0 0 436.903 436.903;" xml:space="preserve">
<path style="fill:#84D839;" d="M115.593,252c0,0,67.376,64.57,78.799,153.052h73.392c0,0,19.019-148.018,86.197-181.932
	l-42.044-6.665c0,0-48.408,62.751-55.557,91.491l-16.998-108.986l-24.453,1.732l-4.608,110.455c0,0-46.479-70.97-78.597-77.061
	C99.605,227.996,115.593,252,115.593,252z"/>
<path d="M267.783,411.879H194.39c-3.434,0-6.333-2.546-6.774-5.953c-10.96-84.946-76.093-148.367-76.754-149.001
	c-0.36-0.346-0.679-0.727-0.954-1.14c-1.507-2.266-8.733-14-2.886-22.827c6.193-9.347,21.081-6.506,25.974-5.581
	c24.76,4.7,54.9,41.033,71.347,63.326l3.767-90.3c0.147-3.466,2.874-6.281,6.34-6.519l24.453-1.734
	c3.507-0.374,6.68,2.253,7.226,5.753l13.3,85.28c16.247-30.759,45.527-68.867,47.101-70.9c1.527-1.973,4.04-2.987,6.473-2.574
	l42.047,6.666c2.927,0.461,5.221,2.76,5.68,5.687c0.454,2.927-1.027,5.813-3.673,7.148c-63.213,31.915-82.321,175.268-82.5,176.713
	C274.117,409.326,271.217,411.879,267.783,411.879z M200.31,398.226h61.559c4.033-26.26,22.813-129.399,73.694-171.114l-20.659-3.28
	c-9.807,13.034-46.066,62.314-51.893,85.76c-0.787,3.154-3.459,5.386-6.932,5.173c-3.239-0.147-5.939-2.56-6.439-5.767
	l-16.034-102.787l-12.107,0.86l-4.354,104.359c-0.119,2.959-2.147,5.507-5.007,6.294c-2.854,0.807-5.9-0.353-7.526-2.84
	c-12.493-19.067-50.173-69.54-74.16-74.093c-9.713-1.833-12.126-0.174-12.153-0.154c-0.186,0.874,1.046,4.427,2.62,7.02
	C128.017,254.639,187.184,314.925,200.31,398.226z"/>
<path style="fill:#9BFC1D;" d="M141.959,263.341c-7.835,1.625-15.623-0.742-21.275-5.726c-3.087,6.796-9.213,12.049-17.05,13.674
	c-10.667,2.212-21.243-2.975-26.47-12.088c-3.739,5.391-9.445,9.395-16.364,10.831c-14.551,3.017-28.952-6.482-32.162-21.217
	c-0.664-3.051-0.797-6.088-0.461-9.013c-9.955-1.463-18.493-9.039-20.78-19.54c-2.115-9.706,1.69-19.246,8.977-24.81
	c-3.552-3.611-6.164-8.245-7.323-13.559c-3.07-14.089,5.199-27.861,18.647-31.683c-0.669-1.522-1.198-3.132-1.565-4.818
	c-2.918-13.396,5.439-26.479,18.668-29.223c-0.176-1.599-0.695-3.188-1.056-4.85c-2.918-13.396,5.439-26.479,18.668-29.223
	c7.835-1.625,15.623,0.742,21.275,5.726c3.086-6.796,9.213-12.049,17.05-13.674c13.228-2.743,26.319,5.893,29.237,19.289
	c0.362,1.662,0.551,3.321,0.579,4.956c13.708-2.847,26.798,5.787,29.716,19.185c0.367,1.686,0.556,3.366,0.579,5.021
	c13.879-1.847,27.175,7.455,30.244,21.543c1.159,5.315,0.703,10.585-1.036,15.293c8.977,2.191,16.43,9.399,18.545,19.103
	c2.287,10.501-2.353,20.809-10.837,26.097c1.527,2.538,2.671,5.364,3.337,8.416c3.21,14.735-5.984,29.128-20.535,32.145
	c-6.919,1.435-13.802,0.041-19.465-3.401C160.125,252.195,152.626,261.129,141.959,263.341z"/>
<path d="M98.656,278.626c-8.18,0-16.034-3.227-21.914-8.933c-4.154,3.473-9.127,5.893-14.553,7.026
	c-18.193,3.734-36.221-8.1-40.219-26.453c-0.374-1.72-0.62-3.459-0.727-5.193c-10.213-3.64-18.14-12.447-20.519-23.361
	c-2.087-9.593,0.42-19.521,6.473-26.841c-2.28-3.494-3.913-7.393-4.813-11.527c-3.287-15.087,3.973-30.167,16.954-37.086
	c-1.613-8.166-0.039-16.433,4.453-23.354c3.253-5.001,7.76-8.873,13.053-11.279c-1.44-7.98,0.16-16.02,4.553-22.781
	c4.526-6.98,11.5-11.747,19.627-13.433c7.113-1.466,14.339-0.461,20.654,2.813c4.446-5.453,10.68-9.313,17.673-10.767
	c16.521-3.379,32.947,7.093,37.067,23.554c14.406,0.22,26.999,10.02,30.413,24.627c14.734,1.113,27.653,11.981,30.933,27.047
	c0.899,4.147,1.033,8.373,0.406,12.486c8.579,4.267,15.014,12.327,17.106,21.914c2.374,10.919-1.186,22.113-8.987,29.534
	c0.62,1.62,1.113,3.287,1.48,4.994c1.959,8.98,0.307,18.147-4.659,25.793c-4.879,7.52-12.401,12.66-21.159,14.473
	c-5.42,1.12-10.953,0.893-16.174-0.633c-3.794,9.492-12.052,16.626-22.434,18.78l0,0c-7.134,1.459-14.346,0.44-20.647-2.813
	c-4.453,5.453-10.687,9.313-17.679,10.761C102.897,278.413,100.764,278.626,98.656,278.626z M77.164,252.372
	c0.101,0,0.193,0,0.294,0.007c2.34,0.101,4.466,1.393,5.627,3.427c3.92,6.827,11.621,10.341,19.166,8.793
	c5.446-1.126,9.9-4.7,12.22-9.807c0.893-1.973,2.666-3.4,4.787-3.854c2.113-0.486,4.32,0.119,5.939,1.553
	c4.294,3.78,9.887,5.333,15.374,4.161c0,0,0,0,0.007,0c7.487-1.546,13-7.774,13.72-15.493c0.22-2.347,1.633-4.407,3.734-5.466
	c2.099-1.067,4.613-0.959,6.607,0.266c4.413,2.673,9.573,3.581,14.534,2.546c5.173-1.067,9.607-4.099,12.486-8.54
	c2.966-4.56,3.946-10.054,2.773-15.461c-0.493-2.253-1.333-4.393-2.521-6.354c-1.92-3.2-0.92-7.34,2.246-9.313
	c6.253-3.9,9.38-11.474,7.774-18.847c-1.48-6.82-6.781-12.286-13.493-13.926c-1.893-0.466-3.494-1.713-4.407-3.427
	c-0.913-1.72-1.053-3.746-0.374-5.574c1.34-3.64,1.606-7.607,0.766-11.474c-2.287-10.481-12.227-17.56-22.673-16.227
	c-1.927,0.247-3.879-0.321-5.354-1.594c-1.48-1.273-2.34-3.113-2.374-5.06c-0.02-1.246-0.16-2.48-0.42-3.68
	c-2.161-9.894-11.674-16.034-21.666-13.954c-2,0.413-4.067-0.087-5.652-1.353c-1.587-1.273-2.526-3.186-2.56-5.221
	c-0.02-1.213-0.16-2.427-0.42-3.62c-2.12-9.733-11.653-16.067-21.18-14.053c-5.446,1.126-9.9,4.707-12.22,9.813
	c-0.893,1.966-2.666,3.393-4.78,3.847c-2.154,0.466-4.326-0.126-5.946-1.553c-4.287-3.78-9.894-5.313-15.38-4.154
	c-4.533,0.94-8.421,3.599-10.953,7.494c-2.599,4.014-3.466,8.834-2.427,13.587l0.333,1.393c0.353,1.393,0.679,2.773,0.84,4.154
	c0.393,3.5-1.947,6.726-5.4,7.446c-4.533,0.934-8.421,3.599-10.953,7.487c-2.606,4.014-3.473,8.841-2.434,13.594
	c0.266,1.207,0.654,2.406,1.147,3.54c0.794,1.807,0.759,3.867-0.08,5.647c-0.84,1.787-2.413,3.113-4.306,3.654
	c-10.033,2.847-16.113,13.24-13.839,23.66c0.84,3.874,2.753,7.414,5.519,10.226c1.374,1.399,2.08,3.319,1.94,5.274
	c-0.14,1.954-1.106,3.753-2.666,4.941c-5.393,4.113-7.927,11.146-6.446,17.927c1.613,7.427,7.68,13.153,15.101,14.24
	c3.64,0.532,6.207,3.867,5.787,7.526c-0.253,2.253-0.133,4.54,0.353,6.799c2.406,11.059,13.24,18.207,24.1,15.973
	c4.946-1.027,9.26-3.879,12.146-8.04C72.831,253.465,74.93,252.372,77.164,252.372z"/>
<path d="M61.811,218.912c-15.06,0-27.307-12.247-27.307-27.307c0-15.06,12.247-27.307,27.307-27.307
	c3.773,0,6.827,3.053,6.827,6.827s-3.053,6.827-6.827,6.827c-7.526,0-13.653,6.127-13.653,13.653
	c0,7.526,6.127,13.653,13.653,13.653c3.773,0,6.827,3.053,6.827,6.827S65.584,218.912,61.811,218.912z"/>
<path d="M76.217,153.058c-2.881,0-5.553-1.833-6.494-4.721c-2.253-6.932-1.667-14.333,1.64-20.833
	c3.313-6.501,8.953-11.32,15.894-13.573s14.346-1.673,20.833,1.64c6.501,3.313,11.32,8.96,13.573,15.899
	c1.167,3.587-0.8,7.433-4.386,8.6c-3.593,1.161-7.433-0.8-8.6-4.386c-2.326-7.159-10.04-11.073-17.207-8.767
	c-7.153,2.326-11.087,10.04-8.76,17.207c1.167,3.581-0.8,7.433-4.386,8.6C77.623,152.952,76.916,153.058,76.217,153.058z"/>
<path d="M102.289,240.451c-1.954,0-3.886-0.826-5.233-2.441c-4.693-5.586-6.927-12.667-6.287-19.934
	c0.633-7.267,4.06-13.846,9.646-18.533c5.586-4.686,12.667-6.927,19.934-6.287c7.267,0.633,13.846,4.06,18.533,9.646
	c2.427,2.886,2.046,7.194-0.84,9.614c-2.893,2.434-7.194,2.053-9.614-0.84c-2.347-2.794-5.641-4.5-9.267-4.82
	c-3.673-0.333-7.18,0.8-9.974,3.14c-2.794,2.347-4.5,5.641-4.82,9.267c-0.321,3.64,0.8,7.18,3.14,9.974
	c2.427,2.886,2.046,7.194-0.84,9.614C105.39,239.926,103.837,240.451,102.289,240.451z"/>
<path style="fill:#9BFC1D;" d="M427.353,180.918c-2.208,7.513-8.006,13.109-15.171,15.638c4.702,5.849,6.579,13.594,4.371,21.105
	c-3.005,10.226-12.665,16.903-23.368,17.126c3.123,5.751,4.069,12.547,2.12,19.18c-4.101,13.952-19.458,21.895-34.302,17.742
	c-3.074-0.86-5.885-2.171-8.373-3.833c-5.997,7.888-16.862,11.686-27.44,8.728c-9.776-2.734-16.626-10.491-18.241-19.381
	c-4.936,1.364-10.356,1.44-15.71-0.058c-14.191-3.97-22.774-17.558-19.919-30.937c-1.691-0.138-3.396-0.439-5.094-0.913
	c-13.493-3.775-21.412-17.116-17.683-29.8c-1.529-0.599-3.212-0.898-4.886-1.367c-13.495-3.775-21.412-17.116-17.684-29.8
	c2.208-7.513,8.006-13.109,15.171-15.638c-4.702-5.849-6.579-13.594-4.371-21.105c3.727-12.682,17.69-19.905,31.182-16.13
	c1.676,0.469,3.265,1.085,4.757,1.828c3.859-13.145,17.819-20.366,31.314-16.591c1.698,0.474,3.308,1.101,4.816,1.859
	c4.845-12.822,19.505-19.908,33.696-15.939c5.354,1.498,9.909,4.364,13.355,8.073c6.197-6.704,16.218-9.742,25.996-7.006
	c10.578,2.959,17.729,11.796,18.531,21.588c3.014-0.123,6.11,0.218,9.184,1.077c14.845,4.152,23.552,18.828,19.453,32.78
	c-1.949,6.632-6.443,11.907-12.216,15.171C425.795,160.035,430.359,170.69,427.353,180.918z"/>
<path d="M332.363,284.412c-2.993,0-6.026-0.399-9.006-1.234c-9.627-2.693-17.388-9.533-21.14-18.214
	c-4.253,0.381-8.607-0.053-12.807-1.227c-15.101-4.227-25.267-17.533-25.453-31.98c-8.373-2.454-15.234-7.88-19.354-15.314
	c-2.773-5.007-4.053-10.52-3.773-16.02c-8.113-2.521-14.773-7.873-18.801-15.153c-3.934-7.086-4.854-15.206-2.599-22.854
	c1.966-6.707,6.313-12.5,12.14-16.461c-2.787-6.393-3.319-13.559-1.353-20.28c4.707-15.973,22.019-25.247,38.774-20.994
	c7.013-12.346,21.787-18.599,36.567-14.633c7.939-12.167,23.76-18.22,38.82-13.993c4.214,1.179,8.134,3.087,11.587,5.613
	c7.854-5.434,18.127-7.247,27.767-4.547c10.919,3.053,19.326,11.373,22.361,21.586c1.807,0.227,3.593,0.587,5.354,1.08
	c9.247,2.587,16.833,8.506,21.354,16.66c4.233,7.641,5.233,16.381,2.807,24.62c-1.514,5.154-4.273,9.779-8.026,13.559
	c6.733,7.74,9.26,18.22,6.333,28.206c-0.007,0.007-0.007,0.007-0.007,0.007c-2.007,6.827-6.281,12.559-12.133,16.486
	c2.773,6.386,3.307,13.548,1.34,20.253c-2.941,9.987-10.786,17.546-20.7,20.581c1.133,5.18,0.966,10.561-0.56,15.727
	c-5.134,17.487-24.3,27.54-42.68,22.393c-1.794-0.5-3.526-1.133-5.2-1.886C348.104,281.565,340.351,284.412,332.363,284.412z
	 M306.949,250.393c1.273,0,2.533,0.353,3.627,1.046c1.626,1.021,2.746,2.673,3.092,4.56c1.193,6.586,6.439,12.093,13.36,14.034
	c7.6,2.106,15.686-0.406,20.166-6.294c2.173-2.874,6.226-3.553,9.233-1.539c1.94,1.307,4.099,2.294,6.414,2.941
	c11.22,3.133,22.861-2.734,25.914-13.1c1.367-4.647,0.807-9.614-1.574-13.993c-1.133-2.094-1.101-4.627,0.101-6.687
	c1.193-2.06,3.379-3.347,5.76-3.4c8.047-0.167,14.86-5.081,16.966-12.227c1.5-5.113,0.353-10.54-3.147-14.894
	c-1.386-1.727-1.853-4.019-1.246-6.147c0.608-2.128,2.207-3.833,4.294-4.567c5.4-1.913,9.373-5.973,10.9-11.133
	c2.067-7.074-1-14.681-7.646-18.927c-2.021-1.294-3.214-3.546-3.154-5.939c0.067-2.393,1.386-4.581,3.473-5.76
	c4.441-2.507,7.646-6.467,9.027-11.146c1.381-4.707,0.794-9.726-1.654-14.147c-2.739-4.941-7.386-8.533-13.094-10.134
	c-2.313-0.647-4.707-0.954-7.074-0.833c-3.613,0.259-6.781-2.613-7.079-6.267c-0.587-7.207-6.033-13.46-13.559-15.567
	c-6.973-1.966-14.493,0.034-19.14,5.067c-1.287,1.393-3.099,2.193-5.001,2.193c-0.007,0-0.007,0-0.014,0
	c-1.893,0-3.707-0.787-5.001-2.179c-2.707-2.913-6.233-5.033-10.201-6.147c-10.639-2.973-21.854,2.193-25.467,11.779
	c-0.686,1.812-2.106,3.246-3.913,3.946c-1.787,0.707-3.826,0.613-5.547-0.266c-1.126-0.567-2.326-1.027-3.581-1.381
	c-10.04-2.807-20.14,2.434-22.927,11.94c-0.573,1.947-1.973,3.533-3.833,4.34c-1.847,0.814-3.966,0.753-5.787-0.16
	c-1.094-0.546-2.287-1.007-3.546-1.367c-9.853-2.746-20.093,2.4-22.781,11.493c-1.5,5.113-0.353,10.54,3.147,14.894
	c1.386,1.727,1.853,4.019,1.246,6.147s-2.207,3.833-4.294,4.567c-5.407,1.913-9.373,5.967-10.887,11.133
	c-1.213,4.12-0.7,8.513,1.44,12.38c2.406,4.347,6.501,7.513,11.527,8.921l1.521,0.387c1.386,0.346,2.746,0.7,4.026,1.2
	c3.287,1.294,5.047,4.886,4.047,8.281c-1.207,4.113-0.693,8.513,1.454,12.387c2.406,4.34,6.501,7.506,11.527,8.914
	c1.266,0.353,2.54,0.58,3.787,0.679c1.966,0.154,3.76,1.147,4.941,2.727c1.174,1.574,1.613,3.581,1.2,5.507
	c-2.113,9.9,4.514,19.98,15.087,22.939c3.98,1.106,8.146,1.133,12.047,0.046C305.729,250.471,306.337,250.393,306.949,250.393z
	 M427.357,180.919h0.067H427.357z"/>
<path d="M343.863,146.045c-2.526,0-4.96-1.406-6.141-3.833c-3.2-6.554-3.654-13.961-1.28-20.861
	c2.374-6.9,7.293-12.454,13.846-15.654c13.559-6.607,29.913-0.959,36.514,12.573c1.654,3.386,0.247,7.473-3.14,9.127
	c-3.407,1.679-7.48,0.247-9.127-3.14c-3.308-6.774-11.5-9.58-18.26-6.287c-3.28,1.601-5.74,4.379-6.927,7.827
	c-1.188,3.447-0.959,7.153,0.64,10.426c1.654,3.386,0.247,7.473-3.14,9.127C345.89,145.825,344.863,146.045,343.863,146.045z"/>
<path d="M387.431,203.785c-1.273,0-2.56-0.353-3.714-1.101c-3.161-2.053-4.06-6.281-2.007-9.446
	c1.987-3.06,2.666-6.707,1.906-10.274c-0.759-3.574-2.86-6.627-5.92-8.614c-6.327-4.106-14.787-2.313-18.886,4.014
	c-2.046,3.161-6.274,4.067-9.446,2.007c-3.161-2.053-4.06-6.281-2.007-9.446c3.973-6.113,10.093-10.32,17.227-11.834
	c7.134-1.527,14.426-0.16,20.553,3.806c6.113,3.973,10.32,10.093,11.834,17.227c1.521,7.134,0.167,14.433-3.806,20.553
	C391.856,202.691,389.663,203.785,387.431,203.785z"/>
<path style="fill:#84D839;" d="M213.453,227.185c-7.427-2.927-12.525-9.138-14.356-16.353c-6.455,3.951-14.544,4.963-21.972,2.034
	c-10.11-3.985-15.906-14.054-15.015-24.462c-6.19,2.429-13.216,2.637-19.773,0.051c-13.793-5.437-20.285-21.168-14.502-35.135
	c1.198-2.893,2.828-5.484,4.784-7.723c-7.415-6.644-10.151-17.582-6.028-27.535c3.809-9.199,12.433-15.034,21.664-15.671
	c-0.874-4.931-0.386-10.199,1.702-15.237c5.53-13.353,20.28-20.262,33.62-16.092c0.317-1.626,0.802-3.249,1.464-4.847
	c5.258-12.698,19.688-18.985,32.227-14.042c0.771-1.422,1.253-3.023,1.905-4.598c5.258-12.698,19.686-18.985,32.227-14.042
	c7.427,2.927,12.525,9.137,14.356,16.353c6.455-3.951,14.544-4.963,21.972-2.034c12.539,4.943,18.442,19.243,13.182,31.94
	c-0.652,1.577-1.447,3.053-2.362,4.424c12.996,5.118,18.9,19.418,13.64,32.116c-0.662,1.597-1.468,3.094-2.4,4.478
	c12.564,6.042,18.256,21.006,12.725,34.36c-2.087,5.038-5.485,9.158-9.626,12.114c6.187,6.714,8.235,16.754,4.425,25.953
	c-4.123,9.953-13.879,15.968-23.943,15.722c-0.189,2.937-0.86,5.905-2.058,8.798c-5.786,13.967-21.656,20.883-35.449,15.447
	c-6.557-2.584-11.465-7.496-14.188-13.438C234.904,227.854,223.565,231.171,213.453,227.185z"/>
<path d="M265.57,241.871c-4.087,0-8.219-0.741-12.206-2.313c-5.147-2.033-9.62-5.26-13.1-9.387
	c-8.561,5.82-19.494,7.226-29.307,3.367l0,0c-6.634-2.613-12.087-7.467-15.514-13.594c-6.774,2.14-14.073,1.934-20.82-0.727
	c-9.847-3.886-16.72-12.307-18.787-22.287c-5.393,0.606-10.873-0.106-16-2.12c-8.3-3.273-14.793-9.6-18.273-17.819
	c-3.567-8.4-3.581-17.734-0.034-26.286c0.66-1.606,1.447-3.161,2.333-4.647c-6.354-8.639-7.859-20.267-3.581-30.614
	c3.76-9.086,11.534-15.92,20.739-18.647c0.113-4.166,0.993-8.32,2.627-12.261c5.9-14.259,20.62-22.74,35.253-21.354
	c5.893-13.674,20.294-21.373,34.354-19.14c6.98-15.479,24.98-23.04,40.646-16.867c6.641,2.62,12.093,7.48,15.514,13.614
	c6.799-2.087,14.181-1.906,20.806,0.707c7.7,3.033,13.72,8.9,16.954,16.521c3.166,7.453,3.313,15.7,0.447,23.347
	c4.787,3.326,8.533,7.893,10.841,13.327c3.207,7.554,3.294,15.94,0.259,23.68c11.554,9.033,16.02,25.114,10.093,39.414
	c-1.626,3.913-3.927,7.48-6.793,10.534c4.654,8.247,5.361,18.447,1.594,27.534c-4.273,10.327-13.646,17.647-24.347,19.487
	c-0.42,1.713-0.973,3.393-1.654,5.033C292.09,233.705,279.097,241.871,265.57,241.871z M241.676,212.938
	c0.3,0,0.606,0.02,0.913,0.06c2.319,0.314,4.32,1.794,5.294,3.927c2.087,4.56,5.813,8.086,10.487,9.926
	c10.293,4.053,22.267-1.179,26.633-11.706c0.881-2.127,1.406-4.361,1.553-6.634c0.247-3.654,3.514-6.42,6.98-6.38
	c0.147,0.007,0.294,0.007,0.434,0.007c7.359,0,14.167-4.581,17.033-11.513c2.661-6.414,1.427-13.759-3.14-18.714
	c-1.326-1.44-1.973-3.379-1.773-5.327c0.207-1.954,1.234-3.721,2.826-4.854c3.239-2.313,5.76-5.487,7.287-9.173
	c4.087-9.859-0.034-21.1-9.38-25.593c-1.787-0.86-3.106-2.454-3.627-4.367c-0.521-1.913-0.186-3.953,0.927-5.6
	c0.679-1.021,1.273-2.12,1.753-3.28c1.86-4.487,1.867-9.347,0.02-13.687c-1.833-4.326-5.333-7.687-9.853-9.467
	c-1.92-0.759-3.4-2.347-4.014-4.313c-0.62-1.973-0.307-4.113,0.84-5.833c0.679-1.027,1.26-2.106,1.72-3.22
	c1.881-4.54,1.886-9.453,0.02-13.846c-1.794-4.221-5.127-7.467-9.387-9.146c-5.207-2.053-10.999-1.507-15.906,1.5
	c-1.86,1.133-4.14,1.319-6.141,0.5c-2.014-0.814-3.514-2.54-4.047-4.647c-1.367-5.393-5.093-9.646-10.233-11.674
	c-9.079-3.593-19.587,1.033-23.421,10.3l-0.527,1.367c-0.507,1.353-1.027,2.666-1.693,3.886c-1.647,3.033-5.313,4.34-8.494,3.087
	c-9.107-3.581-19.593,1.039-23.421,10.3c-0.48,1.154-0.833,2.347-1.06,3.526c-0.374,1.906-1.533,3.567-3.207,4.567
	c-1.667,1-3.68,1.241-5.533,0.654c-10.04-3.14-21.154,2.227-25.279,12.194c-1.521,3.666-1.966,7.627-1.294,11.433
	c0.34,1.913-0.147,3.874-1.34,5.4c-1.193,1.526-2.98,2.473-4.913,2.606c-6.927,0.473-13.133,4.973-15.821,11.467
	c-2.893,6.98-1.174,14.961,4.28,19.847c2.78,2.487,3.04,6.753,0.587,9.566c-1.521,1.741-2.739,3.707-3.613,5.833
	c-2.14,5.154-2.14,10.74-0.02,15.741c2.046,4.82,5.847,8.533,10.713,10.447c4.707,1.867,9.96,1.84,14.773-0.053
	c2.193-0.867,4.687-0.532,6.579,0.881c1.886,1.413,2.92,3.707,2.714,6.06c-0.66,7.694,3.647,14.734,10.72,17.521
	c5.193,2.053,10.988,1.507,15.906-1.507c1.853-1.126,4.134-1.319,6.134-0.493c2.007,0.814,3.507,2.54,4.04,4.64
	c1.374,5.4,5.113,9.66,10.247,11.68c0.007,0,0.007,0,0.007,0c7.148,2.833,15.387,0.64,20.48-5.453
	C237.749,213.826,239.669,212.938,241.676,212.938z"/>
<path d="M341.984,255.979c-3.253,0-6.134-2.326-6.714-5.641c-0.66-3.714,1.819-7.253,5.533-7.907
	c7.414-1.314,12.38-8.407,11.073-15.826c-1.307-7.407-8.414-12.407-15.821-11.066c-3.721,0.626-7.253-1.833-7.907-5.547
	c-0.654-3.714,1.833-7.253,5.547-7.907c14.88-2.587,29.013,7.34,31.626,22.153c2.613,14.828-7.327,29.02-22.147,31.633
	C342.778,255.944,342.376,255.979,341.984,255.979z"/>
<path d="M223.857,182.205c-0.66,0-1.333-0.094-2-0.3c-3.606-1.106-5.634-4.92-4.526-8.527c1.067-3.487,0.713-7.173-1-10.4
	c-1.713-3.22-4.574-5.581-8.061-6.647c-3.494-1.06-7.187-0.707-10.407,1c-3.22,1.713-5.581,4.581-6.647,8.067
	c-1.106,3.606-4.941,5.659-8.52,4.533c-3.606-1.101-5.641-4.913-4.533-8.52c4.393-14.413,19.707-22.56,34.094-18.133
	c6.98,2.133,12.706,6.854,16.126,13.293c3.427,6.446,4.14,13.833,2,20.806C229.484,180.319,226.777,182.205,223.857,182.205z"/>
<path d="M272.197,185.838c-0.954,0-1.906-0.046-2.874-0.154c-3.746-0.393-6.467-3.746-6.074-7.501
	c0.387-3.746,3.593-6.487,7.501-6.074c7.473,0.748,14.213-4.666,15.007-12.153c0.381-3.633-0.674-7.187-2.966-10.02
	c-2.292-2.833-5.56-4.606-9.187-4.994c-3.753-0.393-6.473-3.753-6.074-7.501c0.393-3.753,3.813-6.526,7.501-6.074
	c7.26,0.759,13.78,4.306,18.374,9.974c4.588,5.666,6.694,12.786,5.927,20.04C297.863,175.392,285.983,185.838,272.197,185.838z"/>
<path d="M197.583,130.052c-1.993,0-3.966-0.867-5.313-2.533c-9.467-11.699-7.653-28.926,4.033-38.407
	c11.706-9.467,28.933-7.66,38.414,4.033c2.374,2.934,1.92,7.233-1.007,9.607c-2.941,2.367-7.226,1.906-9.607-1.007
	c-4.739-5.847-13.353-6.76-19.207-2.021c-5.84,4.733-6.746,13.353-2.014,19.207c2.374,2.934,1.92,7.226-1.014,9.6
	C200.604,129.552,199.09,130.052,197.583,130.052z"/>
<g>
</g>
<g>
</g>
<g>
</g>
<g>
</g>
<g>
</g>
<g>
</g>
<g>
</g>
<g>
</g>
<g>
</g>
<g>
</g>
<g>
</g>
<g>
</g>
<g>
</g>
<g>
</g>
<g>
</g>
</svg>
