<?xml version="1.0" encoding="iso-8859-1"?>
<!-- Generator: Adobe Illustrator 19.0.0, SVG Export Plug-In . SVG Version: 6.00 Build 0)  -->
<svg version="1.1" id="Capa_1" xmlns="http://www.w3.org/2000/svg" xmlns:xlink="http://www.w3.org/1999/xlink" x="0px" y="0px"
	 viewBox="0 0 211.627 211.627" style="enable-background:new 0 0 211.627 211.627;" xml:space="preserve">
<rect x="3.413" y="59.733" style="fill:#3090E3;" width="204.8" height="122.88"/>
<path d="M208.213,186.027H3.413c-1.884,0-3.413-1.527-3.413-3.413V59.733c0-1.886,1.529-3.413,3.413-3.413h204.8
	c1.884,0,3.413,1.527,3.413,3.413v122.88C211.627,184.499,210.098,186.027,208.213,186.027z M6.827,179.2H204.8V63.147H6.827V179.2z
	"/>
<rect x="3.413" y="39.253" style="fill:#DDDDDD;" width="204.8" height="20.48"/>
<path d="M208.213,63.147H3.413C1.529,63.147,0,61.619,0,59.733v-20.48c0-1.886,1.529-3.413,3.413-3.413h204.8
	c1.884,0,3.413,1.527,3.413,3.413v20.48C211.627,61.619,210.098,63.147,208.213,63.147z M6.827,56.32H204.8V42.667H6.827V56.32z"/>
<circle style="fill:#EC5582;" cx="23.893" cy="39.253" r="10.24"/>
<path d="M23.893,52.907c-7.528,0-13.653-6.124-13.653-13.653S16.365,25.6,23.893,25.6s13.653,6.124,13.653,13.653
	S31.421,52.907,23.893,52.907z M23.893,32.427c-3.765,0-6.827,3.063-6.827,6.827s3.062,6.827,6.827,6.827s6.827-3.063,6.827-6.827
	S27.658,32.427,23.893,32.427z"/>
<circle style="fill:#FDD95B;" cx="58.027" cy="39.253" r="10.24"/>
<path d="M58.027,52.907c-7.528,0-13.653-6.124-13.653-13.653S50.499,25.6,58.027,25.6S71.68,31.724,71.68,39.253
	S65.555,52.907,58.027,52.907z M58.027,32.427c-3.765,0-6.827,3.063-6.827,6.827s3.062,6.827,6.827,6.827s6.827-3.063,6.827-6.827
	S61.792,32.427,58.027,32.427z"/>
<circle style="fill:#87D646;" cx="92.16" cy="39.253" r="10.24"/>
<path d="M92.16,52.907c-7.528,0-13.653-6.124-13.653-13.653S84.632,25.6,92.16,25.6s13.653,6.124,13.653,13.653
	S99.688,52.907,92.16,52.907z M92.16,32.427c-3.765,0-6.827,3.063-6.827,6.827s3.062,6.827,6.827,6.827
	c3.765,0,6.827-3.063,6.827-6.827S95.925,32.427,92.16,32.427z"/>
<path d="M92.186,132.176l-28.831-12.66v-2.941l28.831-14.37v4.47l-23.46,11.129l23.46,9.841V132.176z"/>
<path d="M117.296,95.577l-16.35,43.86h-4.98l16.35-43.86H117.296z"/>
<path d="M121.045,127.647l23.491-9.779l-23.491-11.191v-4.47l28.831,14.37v2.941l-28.831,12.66L121.045,127.647L121.045,127.647z"/>
<g>
</g>
<g>
</g>
<g>
</g>
<g>
</g>
<g>
</g>
<g>
</g>
<g>
</g>
<g>
</g>
<g>
</g>
<g>
</g>
<g>
</g>
<g>
</g>
<g>
</g>
<g>
</g>
<g>
</g>
</svg>
