<?xml version="1.0" encoding="iso-8859-1"?>
<!-- Generator: Adobe Illustrator 19.0.0, SVG Export Plug-In . SVG Version: 6.00 Build 0)  -->
<svg version="1.1" id="Capa_1" xmlns="http://www.w3.org/2000/svg" xmlns:xlink="http://www.w3.org/1999/xlink" x="0px" y="0px"
	 viewBox="0 0 395.947 395.947" style="enable-background:new 0 0 395.947 395.947;" xml:space="preserve">
<path style="fill:#FFDD95;" d="M354.987,150.187H40.96l0,0c0-71.636,58.071-129.707,129.707-129.707h54.613
	C296.916,20.48,354.987,78.551,354.987,150.187L354.987,150.187z"/>
<path d="M354.987,157.013H40.96c-3.773,0-6.827-3.057-6.827-6.827c0-75.283,61.247-136.533,136.533-136.533h54.613
	c75.286,0,136.533,61.251,136.533,136.533C361.813,153.957,358.76,157.013,354.987,157.013z M47.973,143.36h300
	C344.421,78.766,290.746,27.307,225.28,27.307h-54.613C105.201,27.307,51.526,78.766,47.973,143.36z"/>
<circle cx="136.533" cy="109.227" r="6.827"/>
<circle cx="184.32" cy="116.053" r="6.827"/>
<circle cx="150.187" cy="81.92" r="6.827"/>
<circle cx="238.933" cy="116.053" r="6.827"/>
<path style="fill:#8C6B3B;" d="M292.629,334.507H103.316c-23.127,0-41.876-18.749-41.876-41.878v-74.175h273.067v74.175
	C334.507,315.757,315.757,334.507,292.629,334.507z"/>
<path d="M292.627,341.333H103.32c-26.86,0-48.707-21.847-48.707-48.703v-74.177c0-3.77,3.053-6.827,6.827-6.827h273.067
	c3.773,0,6.827,3.057,6.827,6.827v74.177C341.333,319.486,319.486,341.333,292.627,341.333z M68.267,225.28v67.35
	c0,19.326,15.727,35.05,35.053,35.05h189.307c19.326,0,35.053-15.724,35.053-35.05v-67.35H68.267z"/>
<polygon style="fill:#FBAD4A;" points="300.373,245.76 221.867,324.267 102.4,177.493 314.027,184.32 "/>
<path d="M221.867,331.093c-0.113,0-0.234-0.003-0.346-0.01c-1.934-0.097-3.727-1.01-4.946-2.507L97.108,181.803
	c-1.686-2.074-2.014-4.943-0.826-7.34c1.193-2.396,3.734-3.86,6.34-3.794l211.627,6.827c2.033,0.067,3.927,1.033,5.173,2.637
	c1.246,1.606,1.713,3.683,1.273,5.666l-13.653,61.44c-0.287,1.27-0.92,2.43-1.84,3.347l-78.507,78.507
	C225.413,330.377,223.674,331.093,221.867,331.093z M117.147,184.8l105.24,129.294l71.753-71.753l11.433-51.463L117.147,184.8z
	 M300.373,245.76h0.067H300.373z"/>
<circle cx="211.627" cy="68.267" r="6.827"/>
<circle cx="307.2" cy="102.4" r="6.827"/>
<path style="fill:#84D839;" d="M365.227,150.187H30.72c-13.196,0-23.893,10.697-23.893,23.893c0,12.032,8.924,21.89,20.497,23.55
	c0,0.116-0.017,0.227-0.017,0.343c0,26.392,21.395,47.787,47.787,47.787c15.28,0,28.851-7.199,37.6-18.359
	c5.026,2.913,10.786,4.705,17.014,4.705c18.852,0,34.133-15.281,34.133-34.133h112.108c-1.831,4.186-2.881,8.791-2.881,13.653
	c0,18.852,15.281,34.133,34.133,34.133c18.852,0,34.133-15.281,34.133-34.133c0-4.862-1.05-9.467-2.881-13.653h26.774
	c13.196,0,23.893-10.697,23.893-23.893S378.423,150.187,365.227,150.187z"/>
<path d="M307.2,252.587c-22.586,0-40.96-18.374-40.96-40.96c0-2.301,0.193-4.581,0.58-6.827H170.1
	c-3.26,19.347-20.134,34.133-40.393,34.133c-5.267,0-10.394-1.036-15.321-3.084c-10.266,10.697-24.306,16.737-39.293,16.737
	c-28.413,0-51.826-21.81-54.38-49.57C8.579,198.816,0,187.24,0,174.08c0-16.94,13.78-30.72,30.72-30.72h334.507
	c16.94,0,30.72,13.78,30.72,30.72s-13.78,30.72-30.72,30.72H347.58c0.387,2.246,0.58,4.526,0.58,6.827
	C348.16,234.213,329.786,252.587,307.2,252.587z M163.84,191.147h112.108c2.307,0,4.453,1.164,5.714,3.091
	c1.26,1.93,1.466,4.364,0.539,6.473c-1.534,3.495-2.307,7.17-2.307,10.916c0,15.056,12.247,27.307,27.307,27.307
	s27.307-12.25,27.307-27.307c0-3.746-0.773-7.421-2.307-10.916c-0.927-2.109-0.72-4.543,0.539-6.473
	c1.26-1.927,3.406-3.091,5.714-3.091h26.774c9.414,0,17.067-7.656,17.067-17.067s-7.653-17.067-17.067-17.067H30.72
	c-9.414,0-17.067,7.656-17.067,17.067c0,8.376,6.294,15.597,14.64,16.794c3.514,0.503,6.054,3.606,5.847,7.148
	c-0.007,22.538,18.367,40.912,40.953,40.912c12.64,0,24.387-5.74,32.227-15.744c2.094-2.679,5.861-3.403,8.793-1.696
	c4.34,2.514,8.914,3.787,13.594,3.787c15.06,0,27.307-12.25,27.307-27.307C157.013,194.203,160.067,191.147,163.84,191.147z"/>
<path style="fill:#FFDD95;" d="M314.027,375.467H81.92c-22.622,0-40.96-18.338-40.96-40.96l0,0h314.027l0,0
	C354.987,357.129,336.649,375.467,314.027,375.467z"/>
<path d="M314.027,382.293H81.92c-26.348,0-47.787-21.437-47.787-47.787c0-3.77,3.053-6.827,6.827-6.827h314.027
	c3.773,0,6.827,3.057,6.827,6.827C361.813,360.856,340.374,382.293,314.027,382.293z M48.473,341.333
	c3.173,15.56,16.961,27.307,33.447,27.307h232.107c16.486,0,30.273-11.747,33.447-27.307H48.473z"/>
<g>
</g>
<g>
</g>
<g>
</g>
<g>
</g>
<g>
</g>
<g>
</g>
<g>
</g>
<g>
</g>
<g>
</g>
<g>
</g>
<g>
</g>
<g>
</g>
<g>
</g>
<g>
</g>
<g>
</g>
</svg>
