<?xml version="1.0" encoding="iso-8859-1"?>
<!-- Generator: Adobe Illustrator 19.0.0, SVG Export Plug-In . SVG Version: 6.00 Build 0)  -->
<svg version="1.1" id="Capa_1" xmlns="http://www.w3.org/2000/svg" xmlns:xlink="http://www.w3.org/1999/xlink" x="0px" y="0px"
	 viewBox="0 0 215.04 215.04" style="enable-background:new 0 0 215.04 215.04;" xml:space="preserve">
<path style="fill:#26BBEC;" d="M107.52,131.216c55.612,0,104.107,55.521,104.107,0S184.049,13.647,107.52,13.647
	S3.413,75.695,3.413,131.216S51.908,131.216,107.52,131.216z"/>
<path d="M197.035,159.308c-8.361,0-18.939-4.343-31.351-9.44c-16.532-6.791-37.108-15.239-58.165-15.239
	s-41.632,8.448-58.165,15.239c-17.649,7.245-31.589,12.971-40.721,6.851C2.743,152.768,0,144.665,0,131.216
	C0,75.407,28.16,10.232,107.52,10.232s107.52,65.174,107.52,120.984c0,13.449-2.743,21.552-8.634,25.501
	C203.698,158.535,200.562,159.308,197.035,159.308z M107.52,127.803c22.403,0,43.668,8.733,60.757,15.751
	c15.143,6.217,28.218,11.59,34.328,7.494c3.722-2.495,5.608-9.167,5.608-19.83c0-30.071-8.061-57.626-22.694-77.587
	c-17.79-24.267-44.032-36.57-78-36.57s-60.209,12.303-78,36.57C14.887,73.592,6.827,101.145,6.827,131.216
	c0,10.663,1.886,17.335,5.608,19.83c6.108,4.099,19.185-1.277,34.328-7.494C63.852,136.536,85.117,127.803,107.52,127.803z"/>
<path style="fill:#DDDDDD;" d="M105.849,13.647h-0.072c-24.487,0-44.337,19.85-44.337,44.338v85.159h88.747V57.985
	C150.187,33.498,130.336,13.647,105.849,13.647z"/>
<path d="M150.187,146.557H61.44c-1.884,0-3.413-1.529-3.413-3.413V57.985c0-26.33,21.42-47.751,47.751-47.751h0.072
	c26.33,0,47.751,21.42,47.751,47.751v85.159C153.6,145.028,152.071,146.557,150.187,146.557z M64.853,139.731h81.92V57.985
	c0-22.566-18.359-40.924-40.924-40.924h-0.072c-22.566,0-40.924,18.359-40.924,40.924L64.853,139.731L64.853,139.731z"/>
<polygon style="fill:#2A8EE6;" points="105.813,92.026 93.776,98.344 96.075,84.962 86.335,75.485 99.794,73.533 105.813,61.356 
	111.833,73.533 125.292,75.485 115.552,84.962 117.85,98.344 "/>
<path d="M117.85,101.759c-0.543,0-1.087-0.128-1.587-0.391l-10.45-5.487l-10.452,5.485c-1.15,0.604-2.545,0.503-3.594-0.261
	c-1.051-0.763-1.577-2.057-1.357-3.338l1.993-11.612l-8.451-8.223c-0.93-0.906-1.266-2.263-0.865-3.5
	c0.401-1.237,1.469-2.138,2.756-2.324l11.684-1.695l5.224-10.568c0.575-1.164,1.761-1.9,3.06-1.9s2.485,0.737,3.06,1.9l5.224,10.568
	l11.684,1.695c1.287,0.186,2.355,1.089,2.756,2.324c0.401,1.237,0.065,2.594-0.865,3.5l-8.451,8.223l1.993,11.612
	c0.22,1.282-0.305,2.575-1.357,3.338C119.264,101.539,118.559,101.759,117.85,101.759z M105.813,88.613
	c0.544,0,1.091,0.13,1.587,0.391l5.917,3.104l-1.128-6.571c-0.189-1.108,0.177-2.239,0.983-3.024l4.775-4.647l-6.605-0.959
	c-1.111-0.162-2.072-0.858-2.57-1.865l-2.959-5.984l-2.959,5.987c-0.498,1.007-1.458,1.703-2.57,1.865l-6.605,0.959l4.775,4.647
	c0.806,0.785,1.174,1.917,0.983,3.024l-1.128,6.571l5.917-3.104C104.723,88.744,105.269,88.613,105.813,88.613z"/>
<path style="fill:#2A8EE6;" d="M10.24,139.736c0,0,48.64-12.727,97.28-12.727s97.28,12.727,97.28,12.727v44.305
	c0,15.055-10.598,21.176-24.102,14.473c0,0-24.538-18.374-73.178-18.374s-73.228,18.398-73.228,18.398
	c-13.283,7.047-24.052,0.541-24.052-14.496V139.736z"/>
<path d="M24.1,204.808c-3.106,0-6.002-0.765-8.561-2.306c-5.618-3.378-8.713-9.933-8.713-18.463v-44.305
	c0-1.551,1.048-2.91,2.55-3.302c0.492-0.128,49.626-12.836,98.144-12.836s97.654,12.708,98.144,12.836
	c1.502,0.391,2.55,1.749,2.55,3.302v44.305c0,8.361-2.985,14.817-8.405,18.176c-5.542,3.437-12.868,3.205-20.627-0.649
	c-0.184-0.092-0.362-0.2-0.527-0.324c-0.232-0.172-24.381-17.691-71.134-17.691c-46.754,0-70.95,17.543-71.188,17.72
	c-0.138,0.102-0.288,0.198-0.439,0.278C31.805,203.719,27.802,204.808,24.1,204.808z M13.653,142.405v41.636
	c0,6.038,1.92,10.518,5.405,12.614c3.429,2.062,8.192,1.698,13.425-1.024c2.823-2.026,27.774-18.905,75.037-18.905
	c47.041,0,71.938,16.701,74.948,18.854c5.463,2.649,10.336,2.949,13.744,0.836c3.338-2.068,5.175-6.463,5.175-12.375v-41.636
	c-10.597-2.555-52.495-11.982-93.867-11.982C66.123,130.423,24.247,139.849,13.653,142.405z"/>
<g>
</g>
<g>
</g>
<g>
</g>
<g>
</g>
<g>
</g>
<g>
</g>
<g>
</g>
<g>
</g>
<g>
</g>
<g>
</g>
<g>
</g>
<g>
</g>
<g>
</g>
<g>
</g>
<g>
</g>
</svg>
