<?xml version="1.0" encoding="iso-8859-1"?>
<!-- Generator: Adobe Illustrator 19.0.0, SVG Export Plug-In . SVG Version: 6.00 Build 0)  -->
<svg version="1.1" id="Capa_1" xmlns="http://www.w3.org/2000/svg" xmlns:xlink="http://www.w3.org/1999/xlink" x="0px" y="0px"
	 viewBox="0 0 204.801 204.801" style="enable-background:new 0 0 204.801 204.801;" xml:space="preserve">
<rect x="3.413" y="143.361" style="fill:#777777;" width="37.547" height="27.307"/>
<path d="M40.96,174.081H3.413c-1.884,0-3.413-1.529-3.413-3.413v-27.307c0-1.884,1.529-3.413,3.413-3.413H40.96
	c1.884,0,3.413,1.529,3.413,3.413v27.307C44.373,172.552,42.844,174.081,40.96,174.081z M6.827,167.254h30.72v-20.48H6.827V167.254z
	"/>
<rect x="163.84" y="143.361" style="fill:#777777;" width="37.547" height="27.307"/>
<path d="M201.387,174.081H163.84c-1.884,0-3.413-1.529-3.413-3.413v-27.307c0-1.884,1.529-3.413,3.413-3.413h37.547
	c1.884,0,3.413,1.529,3.413,3.413v27.307C204.8,172.552,203.271,174.081,201.387,174.081z M167.253,167.254h30.72v-20.48h-30.72
	V167.254z"/>
<path style="fill:#3090E3;" d="M185.935,157.014H18.865c-8.533,0-15.452-6.919-15.452-15.452v-28.921h197.973v28.921
	C201.387,150.095,194.468,157.014,185.935,157.014z"/>
<path d="M185.935,160.427H18.865C8.463,160.427,0,151.964,0,141.562v-28.921c0-1.884,1.529-3.413,3.413-3.413h197.973
	c1.884,0,3.413,1.529,3.413,3.413v28.921C204.8,151.964,196.337,160.427,185.935,160.427z M6.827,116.054v25.508
	c0,6.639,5.402,12.039,12.039,12.039h167.069c6.639,0,12.039-5.4,12.039-12.039v-25.508H6.827z"/>
<path style="fill:#DDDDDD;" d="M145.911,34.134H58.89c-16.164,0-29.867,11.885-32.154,27.887l-2.843,19.9h157.013l-2.843-19.9
	C175.778,46.019,162.074,34.134,145.911,34.134z"/>
<path d="M180.907,85.334H23.893c-0.99,0-1.93-0.43-2.579-1.176c-0.649-0.748-0.94-1.741-0.8-2.72l2.843-19.9
	c2.511-17.568,17.785-30.817,35.531-30.817h87.021c17.746,0,33.022,13.249,35.531,30.817l2.843,19.9c0.14,0.98-0.152,1.971-0.8,2.72
	C182.837,84.904,181.897,85.334,180.907,85.334z M27.829,78.507h149.142l-2.287-16.003c-2.033-14.228-14.403-24.957-28.773-24.957
	H58.89c-14.37,0-26.74,10.728-28.773,24.957L27.829,78.507z"/>
<path style="fill:#26BBEC;" d="M187.698,84.796c-3.524-3.461-6.182-7.622-7.912-12.145c-6.241,5.738-14.543,9.271-23.689,9.271
	H48.705c-9.146,0-17.447-3.533-23.689-9.271c-1.731,4.523-4.388,8.684-7.912,12.145C8.47,93.279,3.186,105.159,3.422,118.271
	c0.217,12.104,10.402,21.676,22.509,21.676h152.94c12.105,0,22.292-9.573,22.509-21.676
	C201.615,105.157,196.332,93.277,187.698,84.796z"/>
<path d="M178.871,143.361H25.931c-14.046,0-25.673-11.228-25.921-25.028c-0.246-13.643,4.977-26.418,14.703-35.971
	c3.12-3.065,5.513-6.741,7.115-10.93c0.404-1.056,1.306-1.843,2.406-2.103c1.104-0.254,2.26,0.044,3.092,0.811
	c5.871,5.398,13.464,8.37,21.379,8.37h107.392c7.916,0,15.508-2.971,21.378-8.37c0.833-0.765,1.992-1.063,3.091-0.811
	c1.101,0.259,2.002,1.046,2.406,2.103c1.604,4.188,3.999,7.864,7.117,10.93l0,0c9.726,9.556,14.949,22.328,14.703,35.971
	C204.544,132.133,192.916,143.361,178.871,143.361z M26.295,78.091c-1.79,3.393-4.067,6.455-6.798,9.139
	c-8.376,8.228-12.872,19.231-12.662,30.978c0.179,10.107,8.747,18.326,19.094,18.326h152.94c10.348,0,18.915-8.219,19.096-18.324
	c0.21-11.749-4.287-22.75-12.662-30.978l0,0c-2.732-2.685-5.007-5.746-6.798-9.139c-6.518,4.697-14.324,7.243-22.41,7.243H48.703
	C40.617,85.334,32.812,82.788,26.295,78.091z"/>
<path d="M44.373,61.441c-0.874,0-1.748-0.333-2.413-1c-1.333-1.333-1.333-3.494,0-4.826l10.24-10.24
	c1.331-1.333,3.495-1.333,4.826,0c1.333,1.333,1.333,3.494,0,4.826l-10.24,10.24C46.121,61.108,45.247,61.441,44.373,61.441z"/>
<path d="M46.08,73.387c-0.874,0-1.748-0.333-2.413-1c-1.333-1.333-1.333-3.494,0-4.826l25.6-25.6c1.331-1.333,3.495-1.333,4.826,0
	c1.333,1.333,1.333,3.494,0,4.826l-25.6,25.6C47.828,73.055,46.954,73.387,46.08,73.387z"/>
<path d="M160.427,85.334c-1.884,0-3.413-1.529-3.413-3.413c0-9.411-7.656-17.067-17.067-17.067S122.88,72.51,122.88,81.921
	c0,1.884-1.529,3.413-3.413,3.413c-1.884,0-3.413-1.529-3.413-3.413c0-13.175,10.718-23.893,23.893-23.893
	s23.893,10.718,23.893,23.893C163.84,83.805,162.311,85.334,160.427,85.334z"/>
<path style="fill:#FBAD4A;" d="M40.96,126.294H20.48c-3.77,0-6.827-3.057-6.827-6.827v-6.827H40.96c3.77,0,6.827,3.057,6.827,6.827
	l0,0C47.787,123.237,44.73,126.294,40.96,126.294z"/>
<path d="M40.96,129.707H20.48c-5.647,0-10.24-4.593-10.24-10.24v-6.827c0-1.884,1.529-3.413,3.413-3.413H40.96
	c5.647,0,10.24,4.593,10.24,10.24C51.2,125.115,46.607,129.707,40.96,129.707z M17.067,116.054v3.413
	c0,1.882,1.531,3.413,3.413,3.413h20.48c1.882,0,3.413-1.531,3.413-3.413c0-1.882-1.531-3.413-3.413-3.413H17.067z"/>
<path style="fill:#FBAD4A;" d="M163.84,126.294h20.48c3.77,0,6.827-3.057,6.827-6.827v-6.827H163.84
	c-3.77,0-6.827,3.057-6.827,6.827l0,0C157.013,123.237,160.07,126.294,163.84,126.294z"/>
<path d="M184.32,129.707h-20.48c-5.647,0-10.24-4.593-10.24-10.24c0-5.647,4.593-10.24,10.24-10.24h27.307
	c1.884,0,3.413,1.529,3.413,3.413v6.827C194.56,125.115,189.967,129.707,184.32,129.707z M163.84,116.054
	c-1.882,0-3.413,1.531-3.413,3.413c0,1.882,1.531,3.413,3.413,3.413h20.48c1.882,0,3.413-1.531,3.413-3.413v-3.413H163.84z"/>
<rect x="71.68" y="139.947" style="fill:#FFFFFF;" width="58.027" height="20.48"/>
<path d="M129.707,163.841H71.68c-1.884,0-3.413-1.529-3.413-3.413v-20.48c0-1.884,1.529-3.413,3.413-3.413h58.027
	c1.884,0,3.413,1.529,3.413,3.413v20.48C133.12,162.312,131.591,163.841,129.707,163.841z M75.093,157.014h51.2v-13.653h-51.2
	V157.014z"/>
<path style="fill:#777777;" d="M134.827,126.294H69.973c-4.712,0-8.533-3.821-8.533-8.533l0,0c0-4.712,3.821-8.533,8.533-8.533
	h64.853c4.712,0,8.533,3.821,8.533,8.533l0,0C143.36,122.473,139.539,126.294,134.827,126.294z"/>
<path d="M134.827,129.707H69.973c-6.588,0-11.947-5.361-11.947-11.947c0-6.586,5.359-11.947,11.947-11.947h64.853
	c6.588,0,11.947,5.361,11.947,11.947C146.773,124.347,141.414,129.707,134.827,129.707z M69.973,112.641
	c-2.823,0-5.12,2.297-5.12,5.12s2.297,5.12,5.12,5.12h64.853c2.823,0,5.12-2.297,5.12-5.12s-2.297-5.12-5.12-5.12H69.973z"/>
<path d="M81.92,129.707c-1.884,0-3.413-1.529-3.413-3.413v-17.067c0-1.884,1.529-3.413,3.413-3.413c1.884,0,3.413,1.529,3.413,3.413
	v17.067C85.333,128.178,83.804,129.707,81.92,129.707z"/>
<path d="M102.4,129.707c-1.884,0-3.413-1.529-3.413-3.413v-17.067c0-1.884,1.529-3.413,3.413-3.413c1.884,0,3.413,1.529,3.413,3.413
	v17.067C105.813,128.178,104.284,129.707,102.4,129.707z"/>
<path d="M122.88,129.707c-1.884,0-3.413-1.529-3.413-3.413v-17.067c0-1.884,1.529-3.413,3.413-3.413
	c1.884,0,3.413,1.529,3.413,3.413v17.067C126.293,128.178,124.764,129.707,122.88,129.707z"/>
<g>
</g>
<g>
</g>
<g>
</g>
<g>
</g>
<g>
</g>
<g>
</g>
<g>
</g>
<g>
</g>
<g>
</g>
<g>
</g>
<g>
</g>
<g>
</g>
<g>
</g>
<g>
</g>
<g>
</g>
</svg>
