<?xml version="1.0" encoding="iso-8859-1"?>
<!-- Generator: Adobe Illustrator 19.0.0, SVG Export Plug-In . SVG Version: 6.00 Build 0)  -->
<svg version="1.1" id="Capa_1" xmlns="http://www.w3.org/2000/svg" xmlns:xlink="http://www.w3.org/1999/xlink" x="0px" y="0px"
	 viewBox="0 0 512 512" style="enable-background:new 0 0 512 512;" xml:space="preserve">
<path style="fill:#595959;" d="M143.51,500.22c-15.591,0-25.533-6.753-27.686-8.368c-26.406-19.804-25.915-47.247-25.482-71.449
	c0.281-15.662,0.55-30.468-5.208-44.855c-6.908-17.261-17.924-22.851-25.961-24.5c-9.787-2.023-18.331,1.154-22.125,4.952
	c-6.551,6.555-17.19,6.555-23.737,0c-6.555-6.555-6.555-17.181,0-23.737c12.745-12.745,32.919-18.172,52.614-14.097
	c22.776,4.671,40.662,20.623,50.382,44.909c8.276,20.69,7.919,40.477,7.604,57.927c-0.407,22.662-0.055,34.908,12.061,43.998
	c14.244,10.655,46.386-19.876,60.429-38.614c5.569-7.411,16.09-8.918,23.506-3.353c7.416,5.556,8.918,16.082,3.357,23.502
	C190.77,489.862,162.815,500.22,143.51,500.22z"/>
<path d="M143.506,508.617c-17.937,0-29.583-7.693-32.722-10.051C80.95,476.189,81.5,445.171,81.949,420.251
	c0.277-15.465,0.516-28.781-4.608-41.581c-4.432-11.079-11.113-17.605-19.855-19.397c-7.424-1.536-12.972,1.129-14.5,2.661
	c-4.759,4.759-11.084,7.378-17.811,7.378s-13.052-2.619-17.807-7.378c-9.812-9.812-9.812-25.789,0-35.601
	c14.743-14.743,37.829-21.005,60.252-16.384c25.608,5.254,45.669,23.015,56.475,50.012c8.91,22.272,8.532,42.953,8.205,61.201
	c-0.399,22.364,0.218,30.758,8.708,37.133c5.75,4.276,30.867-13.174,48.674-36.935c8.347-11.109,24.161-13.362,35.261-5.032
	c11.1,8.318,13.362,24.135,5.036,35.248C194.618,498.717,163.437,508.617,143.506,508.617z M53.088,342.024
	c2.501,0,5.107,0.252,7.785,0.802c10.034,2.056,23.758,8.868,32.055,29.604c6.383,15.948,6.089,32.281,5.808,48.082
	c-0.42,23.321-0.848,47.398,22.125,64.625c1.49,1.121,9.577,6.69,22.646,6.69c16.099,0,41.841-8.729,73.04-50.327
	c2.774-3.706,2.023-8.977-1.674-11.751c-3.706-2.782-8.981-2.019-11.763,1.679c-12.586,16.795-50.096,56.79-72.167,40.293
	c-16.12-12.095-15.813-29.205-15.423-50.868c0.302-16.661,0.642-35.542-7.004-54.658c-8.637-21.588-24.362-35.722-44.275-39.806
	c-16.963-3.496-34.195,1.016-44.993,11.81c-3.269,3.269-3.269,8.599,0,11.868c3.164,3.177,8.704,3.16,11.864,0
	C35.483,345.688,43.519,342.024,53.088,342.024z"/>
<ellipse style="fill:#777777;" cx="268.59" cy="369.311" rx="109.115" ry="134.295"/>
<path d="M268.585,512c-64.793,0-117.508-64.008-117.508-142.689s52.715-142.689,117.508-142.689s117.508,64.008,117.508,142.689
	S333.383,512,268.585,512z M268.585,243.41c-55.535,0-100.721,56.479-100.721,125.902s45.182,125.902,100.721,125.902
	s100.721-56.479,100.721-125.902S324.125,243.41,268.585,243.41z"/>
<path style="fill:#595959;" d="M365.32,66.887c-23.623-20.681-54.473-33.314-88.337-33.314s-64.713,12.632-88.337,33.314
	L142.688,8.393v159.475c0,74.169,60.126,134.295,134.295,134.295s134.295-60.126,134.295-134.295V8.393L365.32,66.887z"/>
<path d="M276.979,310.557c-78.68,0-142.689-64.008-142.689-142.689V8.393c0-3.58,2.27-6.761,5.649-7.932
	c3.383-1.171,7.134-0.063,9.346,2.745l40.658,51.75c24.937-19.259,55.514-29.776,87.036-29.776c31.526,0,62.103,10.513,87.04,29.776
	L404.677,3.21c2.203-2.816,5.976-3.916,9.342-2.749c3.387,1.171,5.653,4.356,5.653,7.932v159.475
	C419.667,246.549,355.659,310.557,276.979,310.557z M151.081,32.663v135.206c0,69.422,56.479,125.902,125.902,125.902
	s125.902-56.479,125.902-125.902V32.663L371.921,72.07c-1.423,1.813-3.525,2.959-5.821,3.173c-2.279,0.227-4.574-0.525-6.308-2.04
	c-23.011-20.144-52.417-31.236-82.814-31.236c-30.393,0-59.799,11.092-82.806,31.236c-1.733,1.515-3.991,2.266-6.308,2.04
	c-2.291-0.214-4.398-1.36-5.821-3.169L151.081,32.663z"/>
<path style="fill:#595959;" d="M352.524,157.377c0-16.225-13.153-29.377-29.377-29.377s-29.377,13.153-29.377,29.377"/>
<path d="M352.52,165.77c-4.633,0-8.393-3.76-8.393-8.393c0-11.57-9.413-20.984-20.984-20.984s-20.984,9.413-20.984,20.984
	c0,4.633-3.76,8.393-8.393,8.393c-4.633,0-8.393-3.76-8.393-8.393c0-20.824,16.942-37.77,37.771-37.77s37.77,16.946,37.77,37.77
	C360.913,162.014,357.157,165.77,352.52,165.77z"/>
<path style="fill:#595959;" d="M260.196,157.377c0-16.225-13.153-29.377-29.377-29.377s-29.377,13.153-29.377,29.377"/>
<path d="M260.196,165.77c-4.633,0-8.393-3.76-8.393-8.393c0-11.57-9.413-20.984-20.984-20.984s-20.984,9.413-20.984,20.984
	c0,4.633-3.76,8.393-8.393,8.393c-4.633,0-8.393-3.76-8.393-8.393c0-20.824,16.946-37.77,37.77-37.77s37.77,16.946,37.77,37.77
	C268.59,162.014,264.833,165.77,260.196,165.77z"/>
<path d="M50.36,293.77c-2.149,0-4.297-0.818-5.934-2.459c-3.278-3.278-3.278-8.591,0-11.868
	c60.206-60.21,152.362-69.217,156.252-69.569c4.642-0.432,8.696,2.98,9.115,7.596c0.424,4.612-2.975,8.696-7.592,9.124
	c-0.894,0.084-90.074,8.889-145.912,64.722C54.658,292.952,52.505,293.77,50.36,293.77z"/>
<path d="M92.327,302.164c-2.149,0-4.297-0.818-5.934-2.459c-3.278-3.278-3.278-8.591,0-11.868
	c59.963-59.967,111.503-69.128,113.668-69.489c4.545-0.764,8.897,2.325,9.657,6.899c0.764,4.562-2.317,8.88-6.874,9.652
	c-0.579,0.101-48.804,9.031-104.582,64.806C96.625,301.345,94.472,302.164,92.327,302.164z"/>
<path d="M503.602,293.77c-2.149,0-4.293-0.818-5.934-2.459c-55.959-55.955-145.018-64.642-145.907-64.722
	c-4.621-0.42-8.02-4.503-7.604-9.119c0.424-4.616,4.49-8.024,9.119-7.6c3.895,0.353,96.05,9.359,156.257,69.573
	c3.278,3.278,3.278,8.591,0,11.868C507.899,292.952,505.75,293.77,503.602,293.77z"/>
<path d="M461.635,302.164c-2.149,0-4.293-0.818-5.934-2.459c-55.837-55.833-104.108-64.722-104.586-64.806
	c-4.558-0.789-7.63-5.12-6.857-9.678c0.776-4.562,5.086-7.642,9.644-6.874c2.165,0.361,53.701,9.527,113.668,69.493
	c3.278,3.278,3.278,8.591,0,11.868C465.932,301.345,463.783,302.164,461.635,302.164z"/>
<g>
</g>
<g>
</g>
<g>
</g>
<g>
</g>
<g>
</g>
<g>
</g>
<g>
</g>
<g>
</g>
<g>
</g>
<g>
</g>
<g>
</g>
<g>
</g>
<g>
</g>
<g>
</g>
<g>
</g>
</svg>
