<?xml version="1.0" encoding="iso-8859-1"?>
<!-- Generator: Adobe Illustrator 19.0.0, SVG Export Plug-In . SVG Version: 6.00 Build 0)  -->
<svg version="1.1" id="Capa_1" xmlns="http://www.w3.org/2000/svg" xmlns:xlink="http://www.w3.org/1999/xlink" x="0px" y="0px"
	 viewBox="0 0 512 512" style="enable-background:new 0 0 512 512;" xml:space="preserve">
<polygon style="fill:#83D816;" points="407.078,428.032 319.136,318.867 367.453,318.867 307.566,218.099 339.931,218.099 
	255.996,78.231 172.062,218.099 204.427,218.099 144.54,318.867 192.857,318.867 104.914,428.032 "/>
<path d="M407.078,436.425H104.914c-3.231,0-6.178-1.855-7.571-4.772c-1.393-2.917-0.99-6.375,1.037-8.889l76.934-95.505H144.54
	c-3.017,0-5.804-1.62-7.294-4.243c-1.49-2.623-1.46-5.846,0.08-8.44l52.35-88.089h-17.614c-3.026,0-5.812-1.628-7.302-4.26
	c-1.49-2.631-1.448-5.859,0.105-8.456l83.934-139.868c1.515-2.526,4.247-4.075,7.197-4.075c2.946,0,5.682,1.549,7.197,4.075
	l83.934,139.868c1.557,2.594,1.599,5.825,0.105,8.456c-1.486,2.631-4.281,4.26-7.302,4.26h-17.614l52.354,88.089
	c1.54,2.594,1.57,5.817,0.08,8.44c-1.49,2.623-4.281,4.243-7.294,4.243h-30.775l76.938,95.505c2.027,2.518,2.43,5.976,1.032,8.889
	C413.256,434.57,410.31,436.425,407.078,436.425z M122.457,419.639h267.079l-76.938-95.505c-2.027-2.518-2.43-5.976-1.032-8.889
	c1.393-2.913,4.335-4.772,7.571-4.772h33.565l-52.354-88.089c-1.54-2.594-1.57-5.817-0.08-8.44c1.49-2.623,4.281-4.243,7.294-4.243
	h17.542L255.996,94.544l-69.107,115.162h17.538c3.017,0,5.804,1.62,7.294,4.243c1.49,2.623,1.46,5.846-0.08,8.44l-52.35,88.085
	h33.565c3.231,0,6.178,1.855,7.571,4.772c1.393,2.917,0.99,6.375-1.037,8.889L122.457,419.639z"/>
<polygon style="fill:#FEDA38;" points="255.182,8.393 271.226,57.793 323.144,57.793 281.139,88.324 297.183,137.724 
	255.182,107.193 213.177,137.724 229.221,88.324 187.22,57.793 239.138,57.793 "/>
<path d="M297.183,146.117c-1.733,0-3.462-0.533-4.935-1.603l-37.07-26.943l-37.07,26.943c-2.942,2.14-6.925,2.136-9.867,0
	c-2.942-2.136-4.176-5.926-3.051-9.384l14.164-43.604l-37.07-26.947c-2.942-2.136-4.172-5.926-3.047-9.384
	c1.125-3.458,4.348-5.8,7.982-5.8h45.82l14.16-43.6C248.325,2.342,251.544,0,255.182,0l0,0c3.639,0,6.857,2.342,7.982,5.8
	l14.16,43.6h45.82c3.634,0,6.857,2.342,7.982,5.8c1.125,3.458-0.105,7.248-3.051,9.384L291.001,91.53l14.164,43.604
	c1.125,3.458-0.109,7.248-3.051,9.384C300.649,145.58,298.916,146.117,297.183,146.117z M213.043,66.186l21.114,15.347
	c2.942,2.136,4.172,5.926,3.051,9.38l-8.066,24.828l21.109-15.339c2.942-2.14,6.929-2.14,9.871,0l21.101,15.339l-8.066-24.828
	c-1.125-3.458,0.105-7.244,3.051-9.38l21.114-15.347h-26.095c-3.634,0-6.862-2.342-7.982-5.8l-8.058-24.819l-8.062,24.819
	c-1.125,3.458-4.348,5.8-7.982,5.8H213.043z"/>
<rect x="239.209" y="428.024" style="fill:#99783D;" width="33.574" height="75.583"/>
<path d="M272.783,512h-33.574c-4.633,0-8.393-3.76-8.393-8.393v-75.575c0-4.633,3.76-8.393,8.393-8.393h33.574
	c4.633,0,8.393,3.76,8.393,8.393v75.575C281.177,508.24,277.416,512,272.783,512z M247.603,495.213h16.787v-58.788h-16.787V495.213z
	"/>
<path d="M190.334,296.775c-14.982,0-25.126-1.477-26.414-1.674c-4.579-0.705-7.718-4.986-7.017-9.56
	c0.701-4.579,4.982-7.739,9.56-7.03c0.94,0.13,94.892,13.61,141.568-48.648c2.782-3.702,8.045-4.465,11.751-1.679
	c3.71,2.782,4.461,8.041,1.683,11.751C284.698,288.969,224.752,296.775,190.334,296.775z"/>
<path d="M140.234,406.041c-6.291,0-10.269-0.122-11.197-0.155c-4.633-0.164-8.255-4.05-8.091-8.683
	c0.164-4.633,4.125-8.301,8.679-8.095c1.49,0.059,148.396,4.511,195.542-50.508c3.017-3.517,8.31-3.928,11.831-0.911
	c3.521,3.017,3.932,8.314,0.915,11.835C293.158,401.752,177.085,406.041,140.234,406.041z"/>
<circle style="fill:#F97DA3;" cx="230.816" cy="327.265" r="16.787"/>
<path d="M230.816,352.449c-13.887,0-25.185-11.298-25.185-25.185c0-13.887,11.298-25.185,25.185-25.185
	c13.887,0,25.185,11.298,25.185,25.185C256,341.151,244.703,352.449,230.816,352.449z M230.816,318.867
	c-4.633,0-8.398,3.764-8.398,8.398c0,4.633,3.764,8.398,8.398,8.398s8.398-3.764,8.398-8.398
	C239.214,322.631,235.449,318.867,230.816,318.867z"/>
<circle style="fill:#F97DA3;" cx="255.996" cy="167.718" r="16.787"/>
<path d="M255.996,192.902c-13.887,0-25.185-11.298-25.185-25.185c0-13.887,11.298-25.185,25.185-25.185s25.185,11.298,25.185,25.185
	C281.181,181.605,269.883,192.902,255.996,192.902z M255.996,159.32c-4.633,0-8.398,3.764-8.398,8.398s3.764,8.398,8.398,8.398
	c4.633,0,8.398-3.764,8.398-8.398S260.629,159.32,255.996,159.32z"/>
<circle style="fill:#F97DA3;" cx="314.75" cy="394.45" r="16.787"/>
<path d="M314.75,419.626c-13.887,0-25.185-11.298-25.185-25.185c0-13.887,11.298-25.185,25.185-25.185
	c13.887,0,25.185,11.298,25.185,25.185C339.935,408.328,328.637,419.626,314.75,419.626z M314.75,386.044
	c-4.633,0-8.398,3.764-8.398,8.398c0,4.633,3.764,8.398,8.398,8.398c4.633,0,8.398-3.764,8.398-8.398
	C323.148,389.808,319.384,386.044,314.75,386.044z"/>
<g>
</g>
<g>
</g>
<g>
</g>
<g>
</g>
<g>
</g>
<g>
</g>
<g>
</g>
<g>
</g>
<g>
</g>
<g>
</g>
<g>
</g>
<g>
</g>
<g>
</g>
<g>
</g>
<g>
</g>
</svg>
