<?xml version="1.0" encoding="iso-8859-1"?>
<!-- Generator: Adobe Illustrator 19.0.0, SVG Export Plug-In . SVG Version: 6.00 Build 0)  -->
<svg version="1.1" id="Capa_1" xmlns="http://www.w3.org/2000/svg" xmlns:xlink="http://www.w3.org/1999/xlink" x="0px" y="0px"
	 viewBox="0 0 395.947 395.947" style="enable-background:new 0 0 395.947 395.947;" xml:space="preserve">
<path style="fill:#8C6B3B;" d="M271.976,205.141c9.429-18.551,14.744-39.545,14.744-61.781c0-75.406-61.128-136.533-136.533-136.533
	S13.653,67.954,13.653,143.36s61.128,136.533,136.533,136.533c10.465,0,20.656-1.178,30.447-3.407
	c-2.029-5.303-3.14-11.057-3.14-17.073c0-26.392,21.395-47.787,47.787-47.787c4.656,0,9.158,0.666,13.413,1.908
	c7.786-5.502,17.289-8.735,27.547-8.735C268.18,204.8,270.095,204.916,271.976,205.141z"/>
<path d="M150.187,286.72c-79.046,0-143.36-64.314-143.36-143.36S71.141,0,150.187,0s143.36,64.314,143.36,143.36
	c0,22.833-5.214,44.66-15.486,64.874c-1.294,2.546-3.934,4.04-6.907,3.686c-9.82-1.213-20.239,1.333-28.52,7.187
	c-1.7,1.207-3.833,1.58-5.854,0.98c-3.714-1.087-7.586-1.633-11.5-1.633c-22.586,0-40.96,18.374-40.96,40.96
	c0,5.047,0.906,9.967,2.686,14.633c0.707,1.847,0.58,3.913-0.353,5.659c-0.934,1.746-2.58,3-4.507,3.441
	C171.706,285.513,160.954,286.72,150.187,286.72z M150.187,13.653C78.667,13.653,20.48,71.84,20.48,143.36
	s58.187,129.707,129.707,129.707c7.299,0,14.594-0.613,21.767-1.819c-0.853-3.867-1.287-7.82-1.287-11.834
	c0-30.114,24.499-54.613,54.613-54.613c4.113,0,8.201,0.461,12.18,1.367c9.086-5.652,19.599-8.586,30.399-8.166
	c7.987-17.133,12.034-35.494,12.034-54.641C279.893,71.84,221.706,13.653,150.187,13.653z"/>
<circle style="fill:#8C6B3B;" cx="136.533" cy="81.92" r="20.48"/>
<path d="M136.533,109.227c-15.06,0-27.307-12.247-27.307-27.307s12.247-27.307,27.307-27.307S163.84,66.86,163.84,81.92
	S151.593,109.227,136.533,109.227z M136.533,68.267c-7.526,0-13.653,6.127-13.653,13.653c0,7.526,6.127,13.653,13.653,13.653
	c7.526,0,13.653-6.127,13.653-13.653C150.187,74.394,144.06,68.267,136.533,68.267z"/>
<circle style="fill:#8C6B3B;" cx="221.867" cy="139.947" r="23.893"/>
<path d="M221.867,170.667c-16.94,0-30.72-13.78-30.72-30.72s13.78-30.72,30.72-30.72s30.72,13.78,30.72,30.72
	S238.807,170.667,221.867,170.667z M221.867,122.88c-9.414,0-17.067,7.653-17.067,17.067s7.653,17.067,17.067,17.067
	s17.067-7.653,17.067-17.067S231.281,122.88,221.867,122.88z"/>
<circle style="fill:#8C6B3B;" cx="105.813" cy="208.213" r="17.067"/>
<path d="M105.813,232.107c-13.174,0-23.893-10.72-23.893-23.893s10.72-23.893,23.893-23.893s23.893,10.72,23.893,23.893
	S118.987,232.107,105.813,232.107z M105.813,197.973c-5.647,0-10.24,4.593-10.24,10.24s4.593,10.24,10.24,10.24
	c5.647,0,10.24-4.593,10.24-10.24S111.461,197.973,105.813,197.973z"/>
<path style="fill:#997843;" d="M375.41,295.509c4.466-13.498,6.883-27.928,6.883-42.923c0-75.406-61.128-136.533-136.533-136.533
	s-136.533,61.128-136.533,136.533S170.354,389.12,245.76,389.12c10.465,0,20.656-1.178,30.447-3.406
	c-2.029-5.303-3.14-11.057-3.14-17.073c0-25.638,20.188-46.558,45.534-47.734c7.66-16.174,24.129-27.36,43.213-27.36
	C366.537,293.547,371.101,294.233,375.41,295.509z"/>
<path d="M245.76,395.947c-79.046,0-143.36-64.314-143.36-143.36s64.314-143.36,143.36-143.36s143.36,64.314,143.36,143.36
	c0,15.399-2.434,30.56-7.226,45.059c-1.161,3.494-4.873,5.453-8.414,4.407c-3.78-1.113-7.7-1.679-11.667-1.679
	c-15.753,0-30.293,9.207-37.047,23.453c-1.08,2.287-3.326,3.78-5.854,3.9c-21.879,1.014-39.02,18.987-39.02,40.914
	c0,5.047,0.906,9.967,2.686,14.633c0.707,1.847,0.58,3.913-0.353,5.659c-0.934,1.746-2.58,3-4.507,3.441
	C267.279,394.74,256.527,395.947,245.76,395.947z M245.76,122.88c-71.52,0-129.707,58.187-129.707,129.707
	S174.24,382.293,245.76,382.293c7.299,0,14.594-0.613,21.767-1.819c-0.853-3.867-1.287-7.82-1.287-11.834
	c0-27.894,20.801-50.98,48.046-54.221c9.634-16.952,27.866-27.699,47.527-27.699c3,0,5.98,0.247,8.921,0.727
	c3.139-11.307,4.733-23.001,4.733-34.86C375.467,181.067,317.28,122.88,245.76,122.88z"/>
<circle style="fill:#8C6B3B;" cx="232.107" cy="191.147" r="20.48"/>
<path d="M232.107,218.453c-15.06,0-27.307-12.247-27.307-27.307c0-15.06,12.247-27.307,27.307-27.307s27.307,12.247,27.307,27.307
	C259.413,206.206,247.166,218.453,232.107,218.453z M232.107,177.493c-7.526,0-13.653,6.127-13.653,13.653
	c0,7.526,6.127,13.653,13.653,13.653c7.526,0,13.653-6.127,13.653-13.653C245.76,183.62,239.633,177.493,232.107,177.493z"/>
<circle style="fill:#8C6B3B;" cx="317.44" cy="249.173" r="23.893"/>
<path d="M317.44,279.893c-16.94,0-30.72-13.78-30.72-30.72s13.78-30.72,30.72-30.72s30.72,13.78,30.72,30.72
	S334.38,279.893,317.44,279.893z M317.44,232.107c-9.414,0-17.067,7.653-17.067,17.067c0,9.414,7.653,17.067,17.067,17.067
	c9.414,0,17.067-7.653,17.067-17.067C334.507,239.759,326.854,232.107,317.44,232.107z"/>
<circle style="fill:#8C6B3B;" cx="201.387" cy="317.44" r="17.067"/>
<path d="M201.387,341.333c-13.174,0-23.893-10.72-23.893-23.893c0-13.174,10.72-23.893,23.893-23.893s23.893,10.72,23.893,23.893
	C225.28,330.614,214.56,341.333,201.387,341.333z M201.387,307.2c-5.647,0-10.24,4.593-10.24,10.24s4.593,10.24,10.24,10.24
	s10.24-4.593,10.24-10.24S207.034,307.2,201.387,307.2z"/>
<g>
</g>
<g>
</g>
<g>
</g>
<g>
</g>
<g>
</g>
<g>
</g>
<g>
</g>
<g>
</g>
<g>
</g>
<g>
</g>
<g>
</g>
<g>
</g>
<g>
</g>
<g>
</g>
<g>
</g>
</svg>
