<?xml version="1.0" encoding="iso-8859-1"?>
<!-- Generator: Adobe Illustrator 19.0.0, SVG Export Plug-In . SVG Version: 6.00 Build 0)  -->
<svg version="1.1" id="Capa_1" xmlns="http://www.w3.org/2000/svg" xmlns:xlink="http://www.w3.org/1999/xlink" x="0px" y="0px"
	 viewBox="0 0 392.438 392.438" style="enable-background:new 0 0 392.438 392.438;" xml:space="preserve">
<rect x="50.977" y="184.575" transform="matrix(-0.7071 0.7071 -0.7071 -0.7071 269.3941 305.3494)" style="fill:#EE5281;" width="40.96" height="47.786"/>
<path d="M73.872,246.683c-1.746,0-3.494-0.667-4.826-2l-33.79-33.79c-2.666-2.666-2.666-6.987,0-9.653l28.964-28.964
	c2.666-2.666,6.987-2.666,9.653,0l33.79,33.79c2.666,2.666,2.666,6.987,0,9.653l-28.964,28.964
	C77.365,246.015,75.619,246.683,73.872,246.683z M49.736,206.066l24.137,24.137l19.309-19.309l-24.137-24.137L49.736,206.066z"/>
<path style="fill:#EE5281;" d="M70.972,132.181c0,0,64.283-54.914,57.185-98.669c0,0,25.469,65.381-47.42,128.481
	C7.846,225.092,70.972,132.181,70.972,132.181z"/>
<path d="M48.062,190.823c-2.41,0-4.393-0.811-6.124-2.35c-3.536-3.144-10.887-9.684,23.386-60.129
	c0.34-0.503,0.749-0.957,1.21-1.353c0.613-0.524,61.28-52.941,54.88-92.387c-0.556-3.447,1.577-6.76,4.943-7.68
	c3.36-0.923,6.89,0.853,8.156,4.11c1.113,2.85,26.349,70.624-49.314,136.12C66.139,183.655,55.23,190.823,48.062,190.823z
	 M52.426,180.793h0.07H52.426z M76.123,136.753c-8.646,12.803-17.587,27.996-21.567,37.106c4.246-2.749,11.04-7.789,21.714-17.027
	c32.094-27.783,44.153-55.939,47.884-78.08C108.357,107.845,81.132,132.373,76.123,136.753z"/>
<path style="fill:#EE5281;" d="M112.743,20.67c0,0-50.116,27.936-34.825,77.402s12.235,86.559-15.324,107.319
	C35.035,226.15-2.452,169.953,8.918,110.583C20.289,51.211,112.743,20.67,112.743,20.67z"/>
<path d="M50.159,216.585c-5.393,0-10.914-1.65-16.227-4.96c-22.05-13.74-40.443-56.767-31.717-102.327
	c11.986-62.59,104.453-93.814,108.387-95.113c3.354-1.097,6.98,0.521,8.39,3.739c1.417,3.22,0.15,6.994-2.927,8.707
	c-2.01,1.133-45.041,26.033-31.623,69.424c16.874,54.589,10.904,93.21-17.741,114.79C61.626,214.669,55.969,216.585,50.159,216.585z
	 M79.865,42.782c-26.073,14.053-58.167,37.369-64.244,69.084c-7.393,38.62,7.229,76.769,25.53,88.17
	c6.327,3.953,12.003,3.92,17.336-0.097c23.89-17.997,28.114-50.661,12.906-99.85C64.043,76.296,70.392,56.987,79.865,42.782z"/>
<rect x="297.075" y="187.99" transform="matrix(-0.7071 0.7071 -0.7071 -0.7071 695.3372 128.9223)" style="fill:#EE5281;" width="47.786" height="40.96"/>
<path d="M318.567,246.683c-1.746,0-3.494-0.667-4.826-2l-28.967-28.964c-1.28-1.28-2-3.017-2-4.826c0-1.809,0.72-3.546,2-4.826
	l33.794-33.79c1.28-1.28,3.017-2,4.826-2l0,0c1.811,0,3.546,0.72,4.826,2l28.96,28.964c2.666,2.666,2.666,6.987,0,9.653
	l-33.787,33.79C322.059,246.015,320.313,246.683,318.567,246.683z M299.252,210.892l19.313,19.309l24.134-24.137l-19.306-19.309
	L299.252,210.892z"/>
<path style="fill:#EE5281;" d="M321.466,132.181c0,0-64.283-54.914-57.185-98.669c0,0-25.469,65.381,47.421,128.481
	C384.591,225.092,321.466,132.181,321.466,132.181z"/>
<path d="M344.377,190.823c-7.166,0-18.077-7.163-37.14-23.67c-75.663-65.497-50.43-133.267-49.316-136.12
	c1.266-3.256,4.791-5.033,8.156-4.11c3.367,0.92,5.501,4.233,4.943,7.68c-5.32,32.787,37.813,77.807,54.88,92.387
	c0.462,0.393,0.87,0.85,1.213,1.353c34.273,50.447,26.923,56.987,23.386,60.129C348.773,190.013,346.786,190.823,344.377,190.823z
	 M267.938,78.118c3.584,22.141,15.616,50.476,48.23,78.713c10.673,9.236,17.466,14.276,21.717,17.027
	c-3.98-9.11-12.919-24.303-21.567-37.106C311.269,132.339,283.682,107.492,267.938,78.118z"/>
<path style="fill:#EE5281;" d="M279.694,20.67c0,0,50.116,27.936,34.825,77.402s-12.235,86.559,15.324,107.319
	c27.559,20.758,65.046-35.439,53.676-94.809C372.147,51.211,279.694,20.67,279.694,20.67z"/>
<path d="M342.279,216.585c-5.81,0-11.467-1.917-16.543-5.74c-28.646-21.581-34.616-60.199-17.741-114.79
	c13.5-43.677-31.174-69.169-31.626-69.424c-3.077-1.713-4.343-5.487-2.927-8.707s5.064-4.837,8.39-3.739
	c3.934,1.3,96.403,32.524,108.39,95.113c8.726,45.559-9.667,88.586-31.717,102.327C353.197,214.935,347.672,216.585,342.279,216.585
	z M312.569,42.782c9.477,14.199,15.826,33.514,8.474,57.306c-15.21,49.19-10.988,81.853,12.906,99.85
	c5.337,4.023,11.006,4.053,17.336,0.097c18.301-11.401,32.923-49.55,25.53-88.17C370.739,80.153,338.646,56.836,312.569,42.782z"/>
<path d="M174.949,163.563c-1.62,0-3.246-0.573-4.55-1.741l-19.081-17.073c-2.809-2.514-3.046-6.83-0.532-9.639
	c2.507-2.807,6.827-3.053,9.639-0.532l19.081,17.074c2.809,2.514,3.046,6.83,0.532,9.639
	C178.692,162.796,176.826,163.563,174.949,163.563z"/>
<path d="M217.315,163.563c-1.877,0-3.743-0.766-5.089-2.273c-2.514-2.809-2.273-7.127,0.532-9.639l19.084-17.074
	c2.809-2.521,7.134-2.273,9.639,0.532c2.514,2.809,2.277,7.127-0.532,9.639l-19.084,17.073
	C220.563,162.989,218.937,163.563,217.315,163.563z"/>
<path d="M278.752,378.596c-3.77,0-6.827-3.057-6.827-6.827c0-41.407-33.686-75.093-75.093-75.093s-75.093,33.686-75.093,75.093
	c0,3.77-3.057,6.827-6.827,6.827s-6.827-3.057-6.827-6.827c0-48.937,39.81-88.747,88.747-88.747s88.747,39.81,88.747,88.747
	C285.578,375.539,282.522,378.596,278.752,378.596z"/>
<path d="M351.295,284.879c-1.133,0-2.284-0.28-3.34-0.877c-40.257-22.644-93.926-35.113-151.124-35.113
	c-57.201,0-110.87,12.471-151.124,35.113c-3.284,1.857-7.446,0.676-9.296-2.603c-1.85-3.287-0.683-7.446,2.603-9.296
	c42.264-23.774,98.311-36.867,157.817-36.867c59.503,0,115.55,13.094,157.817,36.867c3.287,1.847,4.453,6.009,2.603,9.296
	C355.999,283.627,353.683,284.879,351.295,284.879z"/>
<path d="M333.365,371.769c-3.77,0-6.827-3.057-6.827-6.827c0-56.463-58.187-102.4-129.707-102.4s-129.707,45.937-129.707,102.4
	c0,3.77-3.057,6.827-6.827,6.827s-6.827-3.057-6.827-6.827c0-63.993,64.311-116.053,143.36-116.053s143.36,52.06,143.36,116.053
	C340.192,368.713,337.135,371.769,333.365,371.769z"/>
<path style="fill:#EE5281;" d="M196.832,364.943c32.5,0,122.88-76.356,122.88-122.88s-66.326-95.573-122.88-95.573
	s-122.88,50.988-122.88,95.573S164.332,364.943,196.832,364.943z"/>
<path d="M196.832,371.769c-34.953,0-129.707-80.403-129.707-129.707c0-47.85,69.096-102.4,129.707-102.4
	c61.824,0,129.707,53.593,129.707,102.4C326.538,292.206,233.455,371.769,196.832,371.769z M196.832,153.316
	c-53.147,0-116.053,48.108-116.053,88.747c0,40.687,87.883,116.053,116.053,116.053c29.647,0,116.053-74.593,116.053-116.053
	C312.885,200.592,251.063,153.316,196.832,153.316z"/>
<g>
</g>
<g>
</g>
<g>
</g>
<g>
</g>
<g>
</g>
<g>
</g>
<g>
</g>
<g>
</g>
<g>
</g>
<g>
</g>
<g>
</g>
<g>
</g>
<g>
</g>
<g>
</g>
<g>
</g>
</svg>
