<?xml version="1.0" encoding="iso-8859-1"?>
<!-- Generator: Adobe Illustrator 19.0.0, SVG Export Plug-In . SVG Version: 6.00 Build 0)  -->
<svg version="1.1" id="Capa_1" xmlns="http://www.w3.org/2000/svg" xmlns:xlink="http://www.w3.org/1999/xlink" x="0px" y="0px"
	 viewBox="0 0 417.228 417.228" style="enable-background:new 0 0 417.228 417.228;" xml:space="preserve">
<path style="fill:#FBAD4A;" d="M92.216,174.481c0,0-93.903,81.681-84.968,102.612s137.086-15.34,137.086-15.34L92.216,174.481z"/>
<path d="M30.892,290.181c-15.457,0-26.713-2.893-29.92-10.407c-9.83-23.02,57.404-84.907,86.764-110.447
	c1.521-1.326,3.533-1.927,5.557-1.587c1.997,0.321,3.746,1.507,4.784,3.239l52.12,87.274c1.091,1.819,1.266,4.047,0.483,6.019
	c-0.783,1.973-2.441,3.473-4.483,4.047C112.507,277.853,62.776,290.181,30.892,290.181z M90.562,185.028
	c-44.73,39.767-80.164,80.679-77.034,89.394c5.984,6.98,61.129-0.807,120.354-16.853L90.562,185.028z"/>
<path style="fill:#FBAD4A;" d="M325.009,174.481c0,0,93.903,81.681,84.968,102.612c-8.936,20.931-137.086-15.34-137.086-15.34
	L325.009,174.481z"/>
<path d="M386.333,290.181c-31.884,0-81.609-12.32-115.304-21.861c-2.043-0.573-3.7-2.074-4.483-4.047
	c-0.783-1.973-0.606-4.2,0.483-6.019l52.12-87.274c1.036-1.734,2.787-2.92,4.784-3.239c2.004-0.326,4.033,0.259,5.557,1.587
	c29.36,25.54,96.594,87.427,86.767,110.447C413.046,287.288,401.783,290.181,386.333,290.181z M283.342,257.568
	c59.223,16.053,114.377,23.854,120.446,16.679c3.04-8.547-32.396-49.454-77.126-89.219L283.342,257.568z"/>
<path style="fill:#FEDA38;" d="M86.521,180.398c-2.639-7.038,1.056-14.411,8.31-16.483l82.485-23.567v136.533h-40.974
	c-7.533,0-15.785-5.719-18.418-12.744L86.521,180.398z"/>
<path d="M177.316,283.707h-40.974c-10.3,0-21.197-7.547-24.81-17.172L80.13,182.802c-1.954-5.221-1.69-10.754,0.748-15.587
	c2.434-4.833,6.723-8.334,12.08-9.866l82.483-23.567c2.06-0.573,4.28-0.174,5.987,1.113c1.71,1.294,2.717,3.313,2.717,5.453v136.533
	C184.142,280.654,181.086,283.707,177.316,283.707z M170.489,149.401L96.71,170.482c-1.65,0.466-2.944,1.493-3.644,2.881
	c-0.7,1.388-0.753,3.04-0.15,4.64l31.399,83.732c1.633,4.354,7.363,8.32,12.027,8.32h34.147L170.489,149.401L170.489,149.401z"/>
<path style="fill:#FEDA38;" d="M329.55,180.398c2.639-7.038-1.056-14.411-8.31-16.483l-82.485-23.567v136.533h40.974
	c7.533,0,15.785-5.719,18.418-12.744L329.55,180.398z"/>
<path d="M279.729,283.707h-40.974c-3.77,0-6.827-3.053-6.827-6.827V140.347c0-2.14,1.007-4.161,2.717-5.453
	c1.71-1.287,3.93-1.686,5.987-1.113l82.483,23.567c5.357,1.533,9.646,5.033,12.08,9.866c2.437,4.833,2.7,10.366,0.748,15.587
	l-31.399,83.732C300.926,276.16,290.029,283.707,279.729,283.707z M245.582,270.054h34.147c4.663,0,10.394-3.966,12.03-8.32
	l31.396-83.732c0.604-1.601,0.55-3.253-0.15-4.64c-0.7-1.388-1.993-2.413-3.644-2.881l-73.779-21.081V270.054z"/>
<path style="fill:#FBAD4A;" d="M158.537,147.112c-0.94-11.278,7.475-20.419,18.775-20.419h61.449
	c11.308,0,19.712,9.16,18.775,20.419l-10.25,123.001c-0.94,11.278-10.909,20.419-22.221,20.419H191.01
	c-11.332,0-21.282-9.16-22.221-20.419L158.537,147.112z"/>
<path d="M225.063,297.361H191.01c-14.78,0-27.8-11.967-29.024-26.68l-10.254-122.999l0,0c-0.613-7.38,1.727-14.353,6.583-19.633
	c4.857-5.274,11.6-8.18,18.997-8.18h61.447c7.393,0,14.14,2.906,18.993,8.18c4.861,5.28,7.2,12.254,6.586,19.633L254.085,270.68
	C252.863,285.393,239.846,297.361,225.063,297.361z M165.34,146.548l10.254,122.999c0.637,7.673,7.697,14.16,15.416,14.16h34.053
	c7.719,0,14.78-6.487,15.416-14.16l10.254-122.999c0.294-3.526-0.78-6.813-3.026-9.254c-2.237-2.434-5.417-3.773-8.946-3.773
	h-61.447c-3.533,0-6.711,1.34-8.95,3.773C166.12,139.728,165.046,143.013,165.34,146.548L165.34,146.548z"/>
<g>
</g>
<g>
</g>
<g>
</g>
<g>
</g>
<g>
</g>
<g>
</g>
<g>
</g>
<g>
</g>
<g>
</g>
<g>
</g>
<g>
</g>
<g>
</g>
<g>
</g>
<g>
</g>
<g>
</g>
</svg>
