<svg xmlns="http://www.w3.org/2000/svg" data-name="Слой 1" viewBox="0 0 100 100" x="0px" y="0px"><title>bracket-01-01-01-01-01-01-01-01</title><path d="M31.15794,52.9668c0.8204,0.8374,1.6045,1.6156,2.3636,2.4174a8.49226,8.49226,0,0,1,2.1032,5.0235c0.4124,3.2924-.4101,6.4714-0.7802,9.6931-0.2736,2.3813-.6077,4.7591-0.7744,7.1482a7.19955,7.19955,0,0,0,2.1982,6.0703,5.72425,5.72425,0,0,0,5.8558.8367,4.02194,4.02194,0,0,0,1.5825-5.3127,1.06969,1.06969,0,0,0-1.5232-.5742,1.21987,1.21987,0,0,0-.54719,1.8523l0.48039-.6594a1.21633,1.21633,0,0,0,.2751.3426c0.518,0.272,1.1347.4984,0.567,1.238a1.41709,1.41709,0,0,1-1.8891.4766,2.60325,2.60325,0,0,1-.2846-4.2038,2.23966,2.23966,0,0,1,2.996-.3429,3.88605,3.88605,0,0,1,2.001,3.6219c-0.2045,4.4943-3.9076,6.7748-8.1772,5.1792-3.4884-1.3038-5.0947-4.4288-5.0657-8.09,0.0178-2.2336.5827-4.4574,0.7236-6.6967,0.2127-3.3789,1.3078-6.6571.943-10.1099a7.76922,7.76922,0,0,0-3.6922-6.1677,5.46041,5.46041,0,0,0-2.3187-.5022c-0.7347-.0679-1.4944.1127-2.2243,0.0261a2.923,2.923,0,0,1-1.02829-.6752,3.18706,3.18706,0,0,1,.90759-0.5822,19.2474,19.2474,0,0,0,2.9659-.5451,8.3572,8.3572,0,0,0,4.9242-4.3785,12.10707,12.10707,0,0,0,.9668-6.1064,13.04573,13.04573,0,0,0-.8217-2.9051,47.19805,47.19805,0,0,1-2.2883-9.1976,12.44176,12.44176,0,0,1,.3687-4.9942c0.6283-2.3412,1.0919-4.7501,2.6952-6.6806a12.91638,12.91638,0,0,1,4.5844-3.8944c2.59021-1.1359,5.4944-.7077,6.806,2.9559a5.69946,5.69946,0,0,1-4.0595,7.4029,2.39043,2.39043,0,0,1-2.8488-1.5209c-0.2952-.7758.36251-2.615,1.2464-2.8505a2.94764,2.94764,0,0,1,2.2594.2831c0.66771,0.5085.26471,1.392-.2877,2.2089-0.2258-.2539-0.3921-0.4628-0.58159-0.6481-0.21-.2052-0.44111-0.3888-0.663-0.5817a5.17459,5.17459,0,0,0-.67971,1.1609,0.98539,0.98539,0,0,0,.6269.5985,10.03225,10.03225,0,0,0,2.11181-.7902,5.83917,5.83917,0,0,0,1.05869-.9215,3.51259,3.51259,0,0,0,.6411-3.755c-0.4864-1.5244-1.1249-2.7029-3.0001-2.7477-1.9285-.0461-3.2148,1.0859-4.4954,2.2233a13.34565,13.34565,0,0,0-3.9609,7.1432,18.32479,18.32479,0,0,0,.7152,10.4006,68.85712,68.85712,0,0,1,2.044,7.2517c0.4186,1.9488-.2188,3.8725-0.858,5.7165C34.47364,50.2448,34.32626,50.3654,31.15794,52.9668Z"/><path d="M68.842,52.9668c-0.8204.8374-1.6045,1.6156-2.3636,2.4174a8.49216,8.49216,0,0,0-2.10319,5.0235c-0.41241,3.2924.41009,6.4714,0.78019,9.6931,0.2736,2.3813.6077,4.7591,0.7744,7.1482a7.19951,7.19951,0,0,1-2.1982,6.0703,5.72425,5.72425,0,0,1-5.8558.8367,4.022,4.022,0,0,1-1.5825-5.3127,1.06969,1.06969,0,0,1,1.5232-.5742,1.21988,1.21988,0,0,1,.5472,1.8523l-0.4804-.6594a1.21631,1.21631,0,0,1-.27509.3426c-0.518.272-1.13471,0.4984-.567,1.238a1.41707,1.41707,0,0,0,1.88909.4766,2.60324,2.60324,0,0,0,.2846-4.2038,2.23966,2.23966,0,0,0-2.996-.3429,3.88605,3.88605,0,0,0-2.001,3.6219c0.2045,4.4943,3.9076,6.7748,8.1772,5.1792,3.4884-1.3038,5.0947-4.4288,5.0657-8.09-0.0178-2.2336-.5827-4.4574-0.72359-6.6967-0.21271-3.3789-1.30781-6.6571-.943-10.1099a7.76917,7.76917,0,0,1,3.69219-6.1677,5.46046,5.46046,0,0,1,2.3187-.5022c0.7347-.0679,1.4944.1127,2.2243,0.0261a2.92311,2.92311,0,0,0,1.0283-.6752,3.18711,3.18711,0,0,0-.9076-0.5822,19.24691,19.24691,0,0,1-2.96589-.5451A8.35719,8.35719,0,0,1,66.26,48.0522a12.10692,12.10692,0,0,1-.96679-6.1064,13.045,13.045,0,0,1,.82169-2.9051,47.19815,47.19815,0,0,0,2.28831-9.1976,12.442,12.442,0,0,0-.36871-4.9942c-0.62829-2.3412-1.0919-4.7501-2.6952-6.6806a12.91455,12.91455,0,0,0-4.5844-3.8944c-2.5902-1.1359-5.4944-.7077-6.806,2.9559a5.69947,5.69947,0,0,0,4.0595,7.4029,2.39044,2.39044,0,0,0,2.84881-1.5209c0.29519-.7758-0.36251-2.615-1.24641-2.8505a2.94764,2.94764,0,0,0-2.2594.2831c-0.6677.5085-.2647,1.392,0.2877,2.2089,0.2258-.2539.39211-0.4628,0.5816-0.6481,0.21-.2052.4411-0.3888,0.663-0.5817a5.174,5.174,0,0,1,.6797,1.1609,0.98538,0.98538,0,0,1-.6269.5985,10.03214,10.03214,0,0,1-2.1118-.7902,5.83881,5.83881,0,0,1-1.0587-.9215,3.51259,3.51259,0,0,1-.6411-3.755c0.4864-1.5244,1.1249-2.7029,3.0001-2.7477,1.9285-.0461,3.2148,1.0859,4.4954,2.2233a13.34557,13.34557,0,0,1,3.9609,7.1432,18.32479,18.32479,0,0,1-.7152,10.4006,68.85712,68.85712,0,0,0-2.044,7.2517c-0.4186,1.9488.2188,3.8725,0.858,5.7165C65.52634,50.2448,65.67374,50.3654,68.842,52.9668Z"/></svg>