<?xml version="1.0" encoding="iso-8859-1"?>
<!-- Generator: Adobe Illustrator 19.0.0, SVG Export Plug-In . SVG Version: 6.00 Build 0)  -->
<svg version="1.1" id="Capa_1" xmlns="http://www.w3.org/2000/svg" xmlns:xlink="http://www.w3.org/1999/xlink" x="0px" y="0px"
	 viewBox="0 0 395.947 395.947" style="enable-background:new 0 0 395.947 395.947;" xml:space="preserve">
<path style="fill:#777777;" d="M95.573,389.12L95.573,389.12c-7.54,0-13.653-6.113-13.653-13.653V102.4h27.307v273.067
	C109.227,383.007,103.113,389.12,95.573,389.12z"/>
<path d="M95.573,395.947c-11.293,0-20.48-9.187-20.48-20.48V95.573h40.96v279.893C116.053,386.76,106.866,395.947,95.573,395.947z
	 M88.747,109.227v266.24c0,3.763,3.063,6.827,6.827,6.827c3.763,0,6.827-3.063,6.827-6.827v-266.24H88.747z"/>
<path style="fill:#777777;" d="M293.547,389.12L293.547,389.12c-7.54,0-13.653-6.113-13.653-13.653V102.4H307.2v273.067
	C307.2,383.007,301.087,389.12,293.547,389.12z"/>
<path d="M293.547,395.947c-11.293,0-20.48-9.187-20.48-20.48V95.573h40.96v279.893C314.027,386.76,304.84,395.947,293.547,395.947z
	 M286.72,109.227v266.24c0,3.763,3.063,6.827,6.827,6.827c3.763,0,6.827-3.063,6.827-6.827v-266.24H286.72z"/>
<path style="fill:#777777;" d="M197.973,389.12L197.973,389.12c-7.54,0-13.653-6.113-13.653-13.653v-307.2h27.307v307.2
	C211.627,383.007,205.513,389.12,197.973,389.12z"/>
<path d="M197.973,395.947c-11.293,0-20.48-9.187-20.48-20.48V61.44h40.96v314.027C218.453,386.76,209.266,395.947,197.973,395.947z
	 M191.147,75.093v300.373c0,3.763,3.063,6.827,6.827,6.827c3.763,0,6.827-3.063,6.827-6.827V75.093H191.147z"/>
<path d="M95.573,109.227c-22.586,0-40.96-18.374-40.96-40.96V0h13.653v68.267c0,15.056,12.25,27.307,27.307,27.307
	s27.307-12.25,27.307-27.307V0h13.653v68.267C136.533,90.853,118.159,109.227,95.573,109.227z"/>
<rect x="88.747" width="13.653" height="102.4"/>
<path style="fill:#DDDDDD;" d="M163.84,218.453h47.787V6.827l0,0c-19.519,0-36.004,14.493-38.501,33.853L163.84,218.453z"/>
<path d="M211.627,225.28H163.84c-1.874,0-3.662-0.77-4.949-2.127c-1.29-1.36-1.966-3.186-1.867-5.057l9.286-177.773
	C169.283,17.113,188.744,0,211.627,0c3.77,0,6.827,3.057,6.827,6.827v211.627C218.453,222.223,215.397,225.28,211.627,225.28z
	 M171.034,211.627H204.8V14.394c-12.94,2.836-23.149,13.57-24.904,27.16L171.034,211.627z"/>
<ellipse style="fill:#DDDDDD;" cx="293.547" cy="54.613" rx="40.96" ry="47.787"/>
<path d="M293.547,109.227c-26.349,0-47.787-24.499-47.787-54.613S267.197,0,293.547,0c26.349,0,47.787,24.499,47.787,54.613
	S319.896,109.227,293.547,109.227z M293.547,13.653c-18.819,0-34.133,18.374-34.133,40.96s15.314,40.96,34.133,40.96
	s34.133-18.374,34.133-40.96S312.366,13.653,293.547,13.653z"/>
<g>
</g>
<g>
</g>
<g>
</g>
<g>
</g>
<g>
</g>
<g>
</g>
<g>
</g>
<g>
</g>
<g>
</g>
<g>
</g>
<g>
</g>
<g>
</g>
<g>
</g>
<g>
</g>
<g>
</g>
</svg>
