<?xml version="1.0" encoding="iso-8859-1"?>
<!-- Generator: Adobe Illustrator 19.0.0, SVG Export Plug-In . SVG Version: 6.00 Build 0)  -->
<svg version="1.1" id="Capa_1" xmlns="http://www.w3.org/2000/svg" xmlns:xlink="http://www.w3.org/1999/xlink" x="0px" y="0px"
	 viewBox="0 0 431.643 431.643" style="enable-background:new 0 0 431.643 431.643;" xml:space="preserve">
<path style="fill:#FFFFFF;" d="M187.044,356.523l-11.063,52.41c-2.282,10.783-13.146,17.734-24.161,15.444l0,0
	c-11.008-2.29-18.162-12.983-15.879-23.765l12.645-59.887"/>
<path style="fill:#602F75;" d="M156.066,431.643c-1.859,0-3.746-0.189-5.637-0.582c-7.197-1.498-13.367-5.7-17.37-11.832
	c-3.913-5.994-5.262-13.109-3.796-20.031l12.643-59.884c0.78-3.69,4.407-6.047,8.09-5.268c3.69,0.778,6.048,4.4,5.268,8.09
	l-12.645,59.887c-0.71,3.35-0.044,6.808,1.871,9.742c2.005,3.072,5.103,5.178,8.719,5.931c7.359,1.529,14.58-3.033,16.092-10.173
	l11.061-52.405c0.78-3.69,4.398-6.047,8.09-5.27c3.69,0.778,6.048,4.4,5.268,8.09l-11.063,52.41
	C179.988,422.963,168.666,431.643,156.066,431.643z"/>
<path style="fill:#FFFFFF;" d="M100.093,311.871c-1.483,1.927-3.355,3.604-5.54,4.934l-53.639,32.413
	c-9.651,5.83-22.328,2.708-28.16-6.944l0,0c-5.839-9.661-2.717-22.332,6.943-28.17l44.467-26.878"/>
<path style="fill:#602F75;" d="M30.351,358.992c-9.265,0-18.311-4.7-23.439-13.191c-7.798-12.902-3.645-29.745,9.255-37.542
	l44.465-26.878c3.227-1.951,7.424-0.915,9.375,2.311c1.951,3.227,0.916,7.424-2.311,9.373l-44.465,26.88
	c-6.46,3.903-8.537,12.336-4.632,18.797c3.9,6.456,12.329,8.533,18.789,4.632l53.635-32.411c1.435-0.874,2.673-1.973,3.661-3.256
	c2.299-2.987,6.586-3.545,9.573-1.244c2.987,2.301,3.545,6.586,1.244,9.574c-2.016,2.618-4.506,4.838-7.398,6.601l-53.656,32.425
	C40.035,357.724,35.162,358.992,30.351,358.992z"/>
<path style="fill:#FFFFFF;" d="M98.804,203.718l-52.758-14.71c-10.17-2.84-16.749-13.597-14.614-23.919v-0.009
	c2.138-10.322,12.209-16.435,22.38-13.595l79.314,22.12"/>
<path style="fill:#602F75;" d="M98.807,210.546c-0.608,0-1.224-0.082-1.838-0.253l-52.758-14.71
	c-13.585-3.792-22.318-18.092-19.466-31.877c1.422-6.861,5.432-12.605,11.295-16.177c5.874-3.579,12.836-4.509,19.606-2.62
	l79.314,22.12c3.632,1.012,5.755,4.779,4.741,8.409c-1.012,3.632-4.774,5.755-8.41,4.741l-79.316-22.12
	c-3.089-0.862-6.224-0.461-8.835,1.128c-2.596,1.582-4.381,4.166-5.024,7.276c-1.403,6.784,3.069,14.097,9.766,15.968l52.755,14.708
	c3.632,1.012,5.755,4.777,4.743,8.409C104.538,208.568,101.794,210.546,98.807,210.546z"/>
<path style="fill:#FFFFFF;" d="M236.721,277.241l35.065,36.087c7.354,7.581,19.951,8.209,28,1.396l0,0
	c8.04-6.815,8.595-18.589,1.232-26.16l-57.37-59.066"/>
<path style="fill:#602F75;" d="M286.606,326.253c-7.236,0-14.466-2.756-19.719-8.172l-35.062-36.084
	c-2.628-2.703-2.565-7.026,0.138-9.653c2.703-2.627,7.026-2.565,9.653,0.138l35.065,36.087c4.844,4.994,13.402,5.422,18.691,0.942
	c2.422-2.053,3.838-4.859,3.985-7.897c0.147-3.053-1.002-5.999-3.234-8.294l-57.373-59.068c-2.628-2.705-2.563-7.026,0.14-9.653
	c2.705-2.627,7.028-2.563,9.653,0.14l57.37,59.066c4.896,5.035,7.412,11.595,7.081,18.466c-0.331,6.859-3.454,13.129-8.796,17.657
	C299.197,324.168,292.898,326.253,286.606,326.253z"/>
<path style="fill:#EA3457;" d="M149.577,156.814L38.627,259.772c51.579,51.306,114.618,86.46,189.264,105.257l17.338-160.014
	L149.577,156.814z"/>
<path style="fill:#602F75;" d="M227.891,371.855c-0.558,0-1.116-0.068-1.667-0.206c-75.346-18.975-140.083-54.987-192.411-107.037
	c-1.318-1.311-2.043-3.101-2.012-4.958c0.032-1.859,0.819-3.622,2.183-4.886l110.95-102.958c2.091-1.94,5.166-2.376,7.716-1.092
	l95.652,48.203c2.541,1.28,4.021,4.002,3.714,6.832l-17.338,160.014c-0.213,1.964-1.266,3.739-2.886,4.867
	C230.635,371.437,229.272,371.855,227.891,371.855z M48.526,259.9c47.862,45.906,106.141,78.343,173.431,96.526l15.976-147.442
	l-87.19-43.938L48.526,259.9z"/>
<path style="fill:#FFFFFF;" d="M253.867,59.976c60.25,18.048,99.927,63.258,88.629,100.992
	c-11.308,37.733-69.306,53.693-129.556,35.644c-60.249-18.039-99.936-63.258-88.627-100.992
	C135.61,57.888,193.609,41.928,253.867,59.976L253.867,59.976z"/>
<g>
	<path style="fill:#602F75;" d="M261.429,210.772c-16.053,0-33.179-2.447-50.449-7.62c-30.351-9.088-56.745-25.12-74.319-45.146
		c-18.348-20.908-25.057-43.759-18.888-64.343c6.163-20.584,24.327-35.983,51.145-43.363c25.687-7.067,56.552-5.955,86.907,3.139
		l0,0c63.754,19.098,105.568,68.215,93.21,109.489C340.016,193.024,304.64,210.772,261.429,210.772z M204.858,59.344
		c-11.412,0-22.32,1.367-32.317,4.118c-22.118,6.086-36.924,18.202-41.689,34.116c-4.77,15.916,0.939,34.176,16.072,51.42
		c15.906,18.125,40.047,32.712,67.975,41.074c56.544,16.939,110.85,3.002,121.059-31.065c10.199-34.062-27.505-75.554-84.048-92.493
		l0,0C235.989,61.747,219.982,59.344,204.858,59.344z"/>
	<path style="fill:#602F75;" d="M244.079,166.796c-28.317,0-51.744-13.025-69.926-38.968c-2.164-3.087-1.415-7.344,1.673-9.508
		c3.086-2.164,7.344-1.415,9.508,1.673c22.081,31.51,52.105,40.422,91.781,27.247c3.581-1.188,7.441,0.749,8.631,4.328
		c1.188,3.579-0.749,7.443-4.328,8.631C268.165,164.599,255.71,166.796,244.079,166.796z"/>
	<path style="fill:#602F75;" d="M134.54,72.105C117.881,48.71,99.15,27.918,78.868,10.31L87.82,0
		c21.096,18.316,40.557,39.912,57.842,64.186L134.54,72.105z"/>
	<path style="fill:#602F75;" d="M128.73,86.202c-26.092-11.928-52.705-20.569-79.104-25.685l2.596-13.404
		c27.459,5.321,55.11,14.295,82.185,26.672L128.73,86.202z"/>
	<path style="fill:#602F75;" d="M344.294,127.261l-4.939-12.728c27.771-10.774,55.9-18.116,83.604-21.821l1.811,13.532
		C398.136,109.805,371.06,116.876,344.294,127.261z"/>
	<path style="fill:#602F75;" d="M423.467,159.092c-24.825-10.226-51.808-17.638-80.2-22.033l2.089-13.493
		c29.459,4.559,57.489,12.264,83.311,22.902L423.467,159.092z"/>
	<path style="fill:#602F75;" d="M230.011,327.46c-48.671-17.004-94.996-41.742-137.69-73.525l8.153-10.952
		c41.581,30.956,86.68,55.04,134.042,71.588L230.011,327.46z"/>
	<path style="fill:#602F75;" d="M393.197,209.946c-13.276-23.371-29.973-45.831-49.621-66.755l9.953-9.347
		c20.388,21.711,37.729,45.046,51.54,69.357L393.197,209.946z"/>
	<path style="fill:#602F75;" d="M46.885,121.291l-5.808-12.356c25.281-11.885,52.907-20.942,82.106-26.921l2.737,13.375
		C97.782,101.151,71.188,109.865,46.885,121.291z"/>
</g>
<path style="fill:#602F75;" d="M218.747,110.544h-0.792c-3.77,0-6.827-3.057-6.827-6.827s3.057-6.827,6.827-6.827h0.792
	c3.77,0,6.827,3.057,6.827,6.827S222.517,110.544,218.747,110.544z"/>
<path style="fill:#602F75;" d="M259.883,122.86h-0.79c-3.77,0-6.827-3.057-6.827-6.827s3.057-6.827,6.827-6.827h0.79
	c3.77,0,6.827,3.057,6.827,6.827S263.653,122.86,259.883,122.86z"/>
<g>
	<circle style="fill:#FFE600;" cx="169.878" cy="234.629" r="20.48"/>
	<path style="fill:#FFE600;" d="M169.878,261.941c-15.056,0-27.307-12.25-27.307-27.307c0-15.056,12.25-27.307,27.307-27.307
		c15.056,0,27.307,12.25,27.307,27.307C197.185,249.69,184.934,261.941,169.878,261.941z M169.878,220.981
		c-7.528,0-13.653,6.125-13.653,13.653c0,7.528,6.125,13.653,13.653,13.653c7.528,0,13.653-6.125,13.653-13.653
		C183.531,227.106,177.406,220.981,169.878,220.981z"/>
</g>
<g>
</g>
<g>
</g>
<g>
</g>
<g>
</g>
<g>
</g>
<g>
</g>
<g>
</g>
<g>
</g>
<g>
</g>
<g>
</g>
<g>
</g>
<g>
</g>
<g>
</g>
<g>
</g>
<g>
</g>
</svg>
