<?xml version="1.0" encoding="iso-8859-1"?>
<!-- Generator: Adobe Illustrator 19.0.0, SVG Export Plug-In . SVG Version: 6.00 Build 0)  -->
<svg version="1.1" id="Capa_1" xmlns="http://www.w3.org/2000/svg" xmlns:xlink="http://www.w3.org/1999/xlink" x="0px" y="0px"
	 viewBox="0 0 430.08 430.08" style="enable-background:new 0 0 430.08 430.08;" xml:space="preserve">
<g>
	<path style="fill:#00E7FF;" d="M150.187,399.229H6.827l0,0c0-60.324,48.903-109.227,109.227-109.227h34.133V399.229z"/>
	<path style="fill:#00E7FF;" d="M150.187,406.055H6.827c-3.773,0-6.827-3.057-6.827-6.827c0-63.993,52.06-116.053,116.053-116.053
		h34.133c3.773,0,6.827,3.057,6.827,6.827v109.227C157.014,402.999,153.96,406.055,150.187,406.055z M13.88,392.402h129.48v-95.573
		h-27.307C61.887,296.829,17.406,339.111,13.88,392.402z"/>
</g>
<path style="fill:#FFFFFF;" d="M206.732,187.602l3.374-47.72c2.14-7.496,3.359-15.382,3.359-23.566
	c0-47.346-38.381-85.728-85.728-85.728S42.01,68.97,42.01,116.316s38.381,85.728,85.728,85.728c0.666,0,1.307-0.085,1.969-0.099
	l1.08,0.186c-37.245,20.292-62.52,59.783-62.52,105.182v58.204c0,18.763,15.21,33.973,33.973,33.973h201.301
	c66.115,0,119.712-53.596,119.712-119.712V187.6H256.959"/>
<g>
	<path style="fill:#602F75;" d="M303.541,406.318H102.24c-22.499,0-40.8-18.302-40.8-40.8v-58.204
		c0-39.52,18.393-76.303,49.06-100.057c-42.827-8.1-75.313-45.8-75.313-90.943c0-51.033,41.52-92.553,92.553-92.553
		s92.553,41.52,92.553,92.553c0,8.226-1.154,16.55-3.427,24.743l-3.326,47.024c-0.259,3.76-3.599,6.53-7.287,6.33
		c-3.76-0.266-6.593-3.529-6.327-7.289l3.374-47.72c0.034-0.473,0.113-0.94,0.241-1.393c2.06-7.2,3.099-14.5,3.099-21.693
		c0-43.506-35.393-78.899-78.899-78.899S48.84,72.81,48.84,116.316s35.393,78.899,78.899,78.899l1.794-0.097
		c0.461-0.034,0.893,0.02,1.333,0.097l1.08,0.186c2.867,0.493,5.1,2.746,5.574,5.613s-0.913,5.717-3.466,7.107
		c-36.367,19.818-58.96,57.824-58.96,99.193v58.204c0,14.969,12.18,27.146,27.146,27.146h201.3
		c62.247,0,112.887-50.64,112.887-112.887v-85.35H256.959c-3.773,0-6.827-3.057-6.827-6.827c0-3.77,3.053-6.827,6.827-6.827h166.294
		c3.773,0,6.827,3.057,6.827,6.827v92.177C430.08,349.551,373.313,406.318,303.541,406.318z"/>
	<circle style="fill:#602F75;" cx="84.019" cy="109.619" r="8.402"/>
	<path style="fill:#602F75;" d="M84.021,124.848c-8.393,0-15.227-6.83-15.227-15.227s6.833-15.23,15.227-15.23
		s15.227,6.833,15.227,15.23S92.414,124.848,84.021,124.848z M84.021,108.046c-0.867,0-1.574,0.707-1.574,1.577
		c0,1.734,3.147,1.734,3.147,0C85.593,108.752,84.886,108.046,84.021,108.046z"/>
	<circle style="fill:#602F75;" cx="134.434" cy="109.619" r="8.402"/>
	<path style="fill:#602F75;" d="M134.434,124.848c-8.393,0-15.227-6.83-15.227-15.227s6.833-15.23,15.227-15.23
		s15.227,6.833,15.227,15.23S142.828,124.848,134.434,124.848z M134.434,108.046c-0.867,0-1.574,0.707-1.574,1.577
		c0,1.734,3.147,1.734,3.147,0C136.008,108.752,135.3,108.046,134.434,108.046z"/>
</g>
<path style="fill:#FFE600;" d="M82.446,143.229l-75.619,42.01c0,0,103.41,41.364,144.128-21.328
	C107.652,151.631,82.446,143.229,82.446,143.229z"/>
<path style="fill:#602F75;" d="M76.754,205.618c-36.613,0-70.001-13.056-72.46-14.041c-2.447-0.98-4.113-3.28-4.28-5.907
	c-0.167-2.63,1.193-5.12,3.5-6.4l75.621-42.01c1.667-0.93,3.654-1.113,5.473-0.51c0.247,0.084,25.586,8.503,68.207,20.593
	c2.087,0.59,3.767,2.137,4.533,4.166c0.759,2.029,0.514,4.301-0.667,6.12C137.44,197.252,106.061,205.618,76.754,205.618z
	 M23.788,183.629c26.981,7.733,85.086,18.973,115.727-15.887c-29.46-8.484-49.294-14.807-56.359-17.097L23.788,183.629z"/>
<path style="fill:#FFE600;" d="M404.874,251.803c0-38.687-139.127-16.166-177.812-16.166S157.014,267,157.014,305.686
	s31.362,70.047,70.047,70.047S404.874,290.49,404.874,251.803z"/>
<g>
	<path style="fill:#602F75;" d="M227.06,382.561c-42.387,0-76.873-34.487-76.873-76.877c0-42.387,34.487-76.873,76.873-76.873
		c8.34,0,21.9-1.113,37.606-2.403c65.067-5.35,120.513-8.32,139.913,9.54c4.659,4.294,7.12,9.774,7.12,15.853
		C411.701,297.419,264.46,382.561,227.06,382.561z M339.861,235.979c-24.953,0-53.04,2.307-74.08,4.036
		c-16,1.314-29.821,2.451-38.721,2.451c-34.86,0-63.22,28.36-63.22,63.22s28.36,63.223,63.22,63.223
		c16.794,0,59.633-19.917,99.654-46.329c42.667-28.16,71.334-56.603,71.334-70.777c0-2.287-0.84-4.081-2.72-5.813
		C387.007,238.329,365.027,235.979,339.861,235.979z"/>
	<path style="fill:#602F75;" d="M202.247,216.615c-0.406,0-0.819-0.036-1.241-0.113c-3.707-0.679-6.159-4.236-5.48-7.943l4.693-25.6
		c0.679-3.707,4.193-6.166,7.946-5.484c3.707,0.679,6.159,4.236,5.48,7.943l-4.693,25.6
		C208.353,214.311,205.481,216.615,202.247,216.615z"/>
</g>
<g>
</g>
<g>
</g>
<g>
</g>
<g>
</g>
<g>
</g>
<g>
</g>
<g>
</g>
<g>
</g>
<g>
</g>
<g>
</g>
<g>
</g>
<g>
</g>
<g>
</g>
<g>
</g>
<g>
</g>
</svg>
