<?xml version="1.0" encoding="iso-8859-1"?>
<!-- Generator: Adobe Illustrator 19.0.0, SVG Export Plug-In . SVG Version: 6.00 Build 0)  -->
<svg version="1.1" id="Capa_1" xmlns="http://www.w3.org/2000/svg" xmlns:xlink="http://www.w3.org/1999/xlink" x="0px" y="0px"
	 viewBox="0 0 416.427 416.427" style="enable-background:new 0 0 416.427 416.427;" xml:space="preserve">
<circle style="fill:#00E7FF;" cx="194.56" cy="157.013" r="122.88"/>
<path style="fill:#602F75;" d="M194.56,286.72c-71.52,0-129.707-58.187-129.707-129.707S123.04,27.307,194.56,27.307
	s129.707,58.187,129.707,129.707S266.08,286.72,194.56,286.72z M194.56,40.96c-63.993,0-116.053,52.06-116.053,116.053
	s52.06,116.053,116.053,116.053s116.053-52.06,116.053-116.053S258.553,40.96,194.56,40.96z"/>
<path style="fill:#FFFFFF;" d="M76.556,122.757c10.583,2.241,20.499,5.68,23.122,10.924c6.223,12.443,18.666,12.443,31.109,0
	c12.443-12.443,31.109-24.887,12.443-43.552c-9.315-9.315-12.377-24.684-13.107-37.745C104.487,68.207,85.127,93.184,76.556,122.757
	z"/>
<path style="fill:#602F75;" d="M112.86,149.84c-1.091,0-2.167-0.087-3.231-0.259c-6.764-1.097-12.467-5.659-16.06-12.846
	c-0.017-0.036-2.091-3.84-18.427-7.296c-1.857-0.393-3.466-1.543-4.444-3.169c-0.973-1.626-1.231-3.587-0.7-5.41
	c8.963-30.93,29.044-57.313,56.537-74.283c2.05-1.266,4.606-1.353,6.746-0.244c2.133,1.113,3.523,3.27,3.657,5.673
	c0.597,10.716,3.014,25.194,11.117,33.3c6.67,6.67,9.999,13.607,9.894,20.617c-0.174,11.633-9.457,20.374-17.647,28.087
	c-1.603,1.51-3.193,3.004-4.69,4.5C128.224,145.9,120.26,149.84,112.86,149.84z M85.309,117.866
	c11.146,3.14,17.724,7.264,20.473,12.761c1.623,3.249,3.654,5.089,6.033,5.477c3.743,0.637,8.924-2.029,14.143-7.25
	c1.591-1.591,3.28-3.183,4.983-4.787c6.523-6.144,13.269-12.493,13.356-18.35c0.046-3.18-1.937-6.799-5.897-10.761
	c-7.013-7.016-11.65-17.246-13.839-30.503C106.54,78.08,92.916,96.597,85.309,117.866z"/>
<path style="fill:#FFFFFF;" d="M161.896,251.895c0,0,12.443-37.33,0-43.552c-12.443-6.223-24.887,0-31.109-18.666
	c-6.223-18.666,0-24.887,18.666-31.109s43.552,0,49.775,24.887c6.223,24.887-6.222,37.33-12.443,62.218
	C182.255,263.782,161.896,251.895,161.896,251.895z"/>
<path style="fill:#602F75;" d="M174.973,262.543c-8.076,0-15.473-4.14-16.517-4.75c-2.79-1.626-4.057-4.99-3.036-8.054
	c5.581-16.79,6.564-33.72,3.424-35.29s-6.477-2.161-10.01-2.784c-8.477-1.493-19.029-3.35-24.523-19.83
	c-2.584-7.753-4.826-17.731,0.797-26.167c4.659-6.987,13.416-10.653,22.19-13.577c12.897-4.302,27.267-3.203,38.436,2.924
	c10.173,5.583,17.13,14.846,20.116,26.783c4.756,19.029-0.29,31.863-5.634,45.454c-2.42,6.156-4.924,12.527-6.81,20.077
	c-2.127,8.499-7.057,12.174-10.82,13.759C180.099,262.137,177.504,262.543,174.973,262.543z M161.896,251.897h0.067H161.896z
	 M170.213,248.064c2.596,0.8,5.344,1.171,7.086,0.437c0.48-0.203,1.947-0.829,2.86-4.483c2.103-8.407,4.89-15.5,7.351-21.76
	c5.103-12.979,8.789-22.357,5.093-37.144c-2.067-8.27-6.589-14.367-13.44-18.127c-7.9-4.34-18.21-5.067-27.551-1.94
	c-8.607,2.867-13.276,5.396-15.147,8.197c-1.133,1.7-2.284,5.03,0.797,14.273c2.92,8.764,6.373,9.373,13.94,10.706
	c4.137,0.727,8.827,1.553,13.747,4.014C178.927,209.224,174.056,234.447,170.213,248.064z"/>
<path style="fill:#FFFFFF;" d="M258.144,51.847c-18.57,18.159-38.753,40.856-27.808,44.505
	c18.666,6.223,31.109,12.443,31.109,12.443s-6.222,18.666-24.887,18.666c-18.666,0-43.552,0-43.552,6.223
	c0,6.222,37.33,31.109,37.33,37.33c0,6.221,8.044,32.932,12.443,37.33c6.223,6.223,24.887,12.443,31.109-12.443
	c6.222-24.887,0-43.552,12.443-49.775c6.956-3.478,15.853-20.407,22.35-34.664C298.72,86.526,280.854,65.606,258.144,51.847z"/>
<path style="fill:#602F75;" d="M256.37,220.733c-7.414,0-14.384-3.529-18.417-7.564c-5.767-5.767-13.559-31.927-14.374-40.827
	c-2.06-2.903-10.557-9.984-16.28-14.754c-15.647-13.037-21.123-18.116-21.123-23.91c0-12.44,18.203-13.047,50.381-13.047
	c7.883,0,12.8-4.666,15.553-8.62c-5.309-2.33-13.681-5.77-23.933-9.187c-3.879-1.294-6.6-4.183-7.463-7.933
	c-1.487-6.456,1.23-17.2,32.657-47.927c2.22-2.173,5.644-2.577,8.31-0.959c23.994,14.541,42.94,36.883,53.344,62.92
	c0.69,1.731,0.643,3.669-0.13,5.367c-13.327,29.237-20.943,35.654-25.51,37.939c-3.826,1.91-4.483,6.637-5.267,18.661
	c-0.48,7.376-1.08,16.56-3.606,26.663c-3.847,15.394-12.041,20.669-18.237,22.386C260.306,220.489,258.323,220.733,256.37,220.733z
	 M202.846,135.67c3.56,3.403,9.09,8.009,13.193,11.433c15.647,13.037,21.123,18.116,21.123,23.91c0,4.896,7.404,28.87,10.523,32.587
	c1.917,1.913,6.796,4.316,10.943,3.186c4.883-1.353,7.39-7.567,8.634-12.544c2.231-8.91,2.76-17.053,3.231-24.24
	c0.817-12.541,1.591-24.387,12.783-29.983c0.623-0.314,6.287-3.714,17.956-28.706c-8.817-20.529-23.61-38.327-42.163-50.78
	c-18.33,18.374-23.219,26.824-24.527,30.031c17.763,6.064,29.447,11.87,29.954,12.124c3.036,1.521,4.497,5.043,3.424,8.264
	c-0.317,0.954-8.043,23.337-31.363,23.337C227.721,134.287,211.231,134.287,202.846,135.67z"/>
<g>
	<path style="fill:#EA3457;" d="M194.56,314.027c-45.36,0-88.491-19.613-118.337-53.813c-2.48-2.843-2.186-7.153,0.654-9.634
		c2.85-2.476,7.159-2.186,9.634,0.654c27.252,31.23,66.632,49.14,108.049,49.14c79.049,0,143.36-64.311,143.36-143.36
		s-64.311-143.36-143.36-143.36c-3.77,0-6.827-3.057-6.827-6.827S190.79,0,194.56,0c86.578,0,157.013,70.436,157.013,157.013
		S281.138,314.027,194.56,314.027z"/>
	<path style="fill:#EA3457;" d="M194.56,389.12c-3.77,0-6.827-3.057-6.827-6.827V307.2c0-3.77,3.057-6.827,6.827-6.827
		c3.77,0,6.827,3.057,6.827,6.827v75.093C201.387,386.063,198.33,389.12,194.56,389.12z"/>
</g>
<rect x="126.293" y="382.293" style="fill:#FFE600;" width="136.533" height="27.307"/>
<path style="fill:#602F75;" d="M262.827,416.427H126.293c-3.77,0-6.827-3.057-6.827-6.827v-27.307c0-3.77,3.057-6.827,6.827-6.827
	h136.533c3.77,0,6.827,3.057,6.827,6.827V409.6C269.653,413.37,266.597,416.427,262.827,416.427z M133.12,402.773H256V389.12H133.12
	V402.773z"/>
<g>
</g>
<g>
</g>
<g>
</g>
<g>
</g>
<g>
</g>
<g>
</g>
<g>
</g>
<g>
</g>
<g>
</g>
<g>
</g>
<g>
</g>
<g>
</g>
<g>
</g>
<g>
</g>
<g>
</g>
</svg>
