<?xml version="1.0" encoding="iso-8859-1"?>
<!-- Generator: Adobe Illustrator 19.0.0, SVG Export Plug-In . SVG Version: 6.00 Build 0)  -->
<svg version="1.1" id="Capa_1" xmlns="http://www.w3.org/2000/svg" xmlns:xlink="http://www.w3.org/1999/xlink" x="0px" y="0px"
	 viewBox="0 0 177.493 177.493" style="enable-background:new 0 0 177.493 177.493;" xml:space="preserve">
<path style="fill:#2ABBE9;" d="M40.96,157.013c0-9.426-17.067-40.96-17.067-40.96s-17.067,31.534-17.067,40.96
	c0,9.426,7.641,17.067,17.067,17.067S40.96,166.439,40.96,157.013z"/>
<path d="M23.893,177.493c-11.293,0-20.48-9.187-20.48-20.48c0-10.003,15.689-39.281,17.476-42.583c1.193-2.207,4.813-2.207,6.007,0
	c1.787,3.302,17.476,32.58,17.476,42.583C44.373,168.306,35.186,177.493,23.893,177.493z M23.893,123.377
	c-6.19,12.044-13.653,28.307-13.653,33.637c0,7.53,6.124,13.653,13.653,13.653s13.653-6.124,13.653-13.653
	C37.547,151.683,30.083,135.421,23.893,123.377z"/>
<path d="M143.36,17.067H102.4c-1.886,0-3.413-1.527-3.413-3.413s1.527-3.413,3.413-3.413h40.96c1.886,0,3.413,1.527,3.413,3.413
	S145.246,17.067,143.36,17.067z"/>
<path style="fill:#DDDDDD;" d="M23.893,105.813c-3.77,0-6.827-3.057-6.827-6.827v-2.871c0-17.241,14.024-31.263,31.263-31.263
	H163.84c3.77,0,6.827,3.057,6.827,6.827s-3.057,6.827-6.827,6.827H48.329c-9.709,0-17.609,7.9-17.609,17.609v2.871
	C30.72,102.757,27.663,105.813,23.893,105.813z"/>
<path d="M23.893,109.227c-5.647,0-10.24-4.593-10.24-10.24v-2.871c0-19.12,15.556-34.676,34.676-34.676H163.84
	c5.647,0,10.24,4.593,10.24,10.24s-4.593,10.24-10.24,10.24H48.329c-7.827,0-14.196,6.369-14.196,14.196v2.871
	C34.133,104.634,29.541,109.227,23.893,109.227z M48.329,68.267c-15.357,0-27.849,12.493-27.849,27.849v2.871
	c0,1.884,1.529,3.413,3.413,3.413s3.413-1.529,3.413-3.413v-2.871c0-11.593,9.429-21.023,21.023-21.023H163.84
	c1.884,0,3.413-1.529,3.413-3.413c0-1.884-1.529-3.413-3.413-3.413H48.329z"/>
<path style="fill:#DDDDDD;" d="M122.88,39.253c0,10.368,0,18.773,0,18.773S122.88,49.621,122.88,39.253s0-29.013,0-29.013
	S122.88,28.885,122.88,39.253z"/>
<rect x="119.467" y="10.24" width="6.827" height="47.787"/>
<path style="fill:#DDDDDD;" d="M122.88,64.853c-3.77,0-6.827-3.057-6.827-6.827V10.24c0-3.77,3.057-6.827,6.827-6.827
	s6.827,3.057,6.827,6.827v47.787C129.707,61.797,126.65,64.853,122.88,64.853z"/>
<path d="M122.88,68.267c-5.647,0-10.24-4.593-10.24-10.24V10.24c0-5.647,4.593-10.24,10.24-10.24s10.24,4.593,10.24,10.24v47.787
	C133.12,63.674,128.527,68.267,122.88,68.267z M122.88,6.827c-1.884,0-3.413,1.529-3.413,3.413v47.787
	c0,1.884,1.529,3.413,3.413,3.413c1.884,0,3.413-1.529,3.413-3.413V10.24C126.293,8.356,124.764,6.827,122.88,6.827z"/>
<circle style="fill:#777777;" cx="122.88" cy="71.68" r="23.893"/>
<path d="M122.88,98.987c-15.056,0-27.307-12.25-27.307-27.307s12.25-27.307,27.307-27.307s27.307,12.25,27.307,27.307
	S137.936,98.987,122.88,98.987z M122.88,51.2c-11.293,0-20.48,9.187-20.48,20.48s9.187,20.48,20.48,20.48s20.48-9.187,20.48-20.48
	S134.173,51.2,122.88,51.2z"/>
<circle style="fill:#777777;" cx="153.6" cy="13.653" r="10.24"/>
<path d="M153.6,27.307c-7.53,0-13.653-6.124-13.653-13.653S146.07,0,153.6,0s13.653,6.124,13.653,13.653S161.13,27.307,153.6,27.307
	z M153.6,6.827c-3.763,0-6.827,3.063-6.827,6.827s3.063,6.827,6.827,6.827s6.827-3.063,6.827-6.827S157.363,6.827,153.6,6.827z"/>
<circle style="fill:#777777;" cx="92.16" cy="13.653" r="10.24"/>
<path d="M92.16,27.307c-7.53,0-13.653-6.124-13.653-13.653S84.63,0,92.16,0s13.653,6.124,13.653,13.653S99.69,27.307,92.16,27.307z
	 M92.16,6.827c-3.763,0-6.827,3.063-6.827,6.827s3.063,6.827,6.827,6.827c3.763,0,6.827-3.063,6.827-6.827S95.923,6.827,92.16,6.827
	z"/>
<g>
</g>
<g>
</g>
<g>
</g>
<g>
</g>
<g>
</g>
<g>
</g>
<g>
</g>
<g>
</g>
<g>
</g>
<g>
</g>
<g>
</g>
<g>
</g>
<g>
</g>
<g>
</g>
<g>
</g>
</svg>
