<?xml version="1.0" encoding="iso-8859-1"?>
<!-- Generator: Adobe Illustrator 19.0.0, SVG Export Plug-In . SVG Version: 6.00 Build 0)  -->
<svg version="1.1" id="Capa_1" xmlns="http://www.w3.org/2000/svg" xmlns:xlink="http://www.w3.org/1999/xlink" x="0px" y="0px"
	 viewBox="0 0 427.589 427.589" style="enable-background:new 0 0 427.589 427.589;" xml:space="preserve">
<rect x="109.227" y="200.143" style="fill:#FFFFFF;" width="252.587" height="27.307"/>
<path d="M361.814,234.281H109.227c-3.773,0-6.827-3.053-6.827-6.827v-27.307c0-3.773,3.053-6.827,6.827-6.827h252.587
	c3.773,0,6.827,3.053,6.827,6.827v27.307C368.64,231.228,365.587,234.281,361.814,234.281z M116.054,220.628h238.933v-13.653
	H116.054L116.054,220.628L116.054,220.628z"/>
<polygon style="fill:#EE5281;" points="334.591,200.646 420.76,145.531 399.768,213.798 420.76,282.064 334.906,227.152 
	348.524,213.798 "/>
<path d="M420.76,288.894c-1.273,0-2.553-0.353-3.68-1.073l-85.854-54.914c-1.753-1.12-2.893-2.98-3.113-5.047
	c-0.213-2.074,0.527-4.127,2.014-5.581l8.554-8.387l-8.774-8.281c-1.527-1.447-2.307-3.514-2.106-5.606
	c0.193-2.094,1.347-3.98,3.113-5.113l86.166-55.113c2.413-1.546,5.526-1.42,7.813,0.321c2.28,1.734,3.234,4.7,2.393,7.439
	l-20.379,66.26l20.379,66.26c0.84,2.739-0.113,5.707-2.393,7.439C423.674,288.429,422.221,288.894,420.76,288.894z M345.814,226.028
	l62.954,40.267l-15.527-50.487c-0.399-1.307-0.399-2.707,0-4.014l15.527-50.487l-63.126,40.38l7.574,7.148
	c1.347,1.28,2.12,3.046,2.14,4.9c0.02,1.86-0.72,3.64-2.046,4.941L345.814,226.028z"/>
<path style="fill:#F97DA3;" d="M116.924,106.372c20.628,28.085,33.263,65.871,33.263,107.426s-12.634,79.341-33.263,107.426
	C66.898,302.401,26.836,263.23,6.827,213.798C26.836,164.366,66.898,125.194,116.924,106.372z"/>
<path d="M116.928,328.054c-0.807,0-1.62-0.14-2.406-0.44C62.794,308.147,21.235,267.6,0.5,216.359c-0.667-1.64-0.667-3.48,0-5.12
	c20.739-51.246,62.3-91.8,114.021-111.254c2.86-1.101,6.086-0.133,7.907,2.347c22.306,30.36,34.587,69.946,34.587,111.468
	c0,41.513-12.279,81.101-34.587,111.466C121.114,327.061,119.054,328.054,116.928,328.054z M14.214,213.801
	c18.959,44.887,55.187,80.674,100.227,99.12c18.686-27.453,28.919-62.426,28.919-99.12c0-36.7-10.24-71.673-28.919-99.12
	C69.407,133.115,33.18,168.907,14.214,213.801z"/>
<circle cx="68.267" cy="179.663" r="13.653"/>
<path d="M163.847,305.534c-0.587,0-1.186-0.073-1.78-0.234c-3.64-0.98-5.799-4.727-4.82-8.366l23.086-85.787l-23.079-84.294
	c-0.993-3.633,1.147-7.386,4.787-8.387c3.613-0.959,7.386,1.147,8.387,4.787l23.567,86.081c0.321,1.167,0.321,2.4,0.007,3.574
	l-23.567,87.572C169.614,303.527,166.854,305.534,163.847,305.534z"/>
<path d="M207.028,305.534c-0.587,0-1.186-0.073-1.78-0.234c-3.64-0.98-5.799-4.727-4.82-8.366l23.079-85.787l-23.074-84.294
	c-0.993-3.633,1.147-7.386,4.787-8.387c3.613-0.959,7.386,1.147,8.387,4.787l23.561,86.081c0.321,1.167,0.321,2.4,0.007,3.574
	l-23.561,87.572C212.794,303.527,210.033,305.534,207.028,305.534z"/>
<path d="M247.988,305.534c-0.587,0-1.186-0.073-1.78-0.234c-3.64-0.98-5.799-4.727-4.82-8.366l23.079-85.787l-23.074-84.294
	c-0.993-3.633,1.147-7.386,4.787-8.387c3.613-0.959,7.386,1.147,8.387,4.787l23.561,86.081c0.321,1.167,0.321,2.4,0.007,3.574
	l-23.561,87.572C253.754,303.527,250.993,305.534,247.988,305.534z"/>
<path d="M288.948,305.534c-0.587,0-1.186-0.073-1.78-0.234c-3.64-0.98-5.799-4.727-4.82-8.366l23.079-85.787l-23.074-84.294
	c-0.993-3.633,1.147-7.386,4.787-8.387c3.613-0.959,7.386,1.147,8.387,4.787l23.561,86.081c0.321,1.167,0.321,2.4,0.007,3.574
	l-23.561,87.572C294.714,303.527,291.953,305.534,288.948,305.534z"/>
<g>
</g>
<g>
</g>
<g>
</g>
<g>
</g>
<g>
</g>
<g>
</g>
<g>
</g>
<g>
</g>
<g>
</g>
<g>
</g>
<g>
</g>
<g>
</g>
<g>
</g>
<g>
</g>
<g>
</g>
</svg>
