<?xml version="1.0" encoding="iso-8859-1"?>
<!-- Generator: Adobe Illustrator 19.0.0, SVG Export Plug-In . SVG Version: 6.00 Build 0)  -->
<svg version="1.1" id="Capa_1" xmlns="http://www.w3.org/2000/svg" xmlns:xlink="http://www.w3.org/1999/xlink" x="0px" y="0px"
	 viewBox="0 0 427.586 427.586" style="enable-background:new 0 0 427.586 427.586;" xml:space="preserve">
<polygon style="fill:#EE5281;" points="157.014,143.734 263.745,75.468 263.745,212.001 "/>
<path d="M263.747,218.831c-1.28,0-2.56-0.36-3.68-1.074l-106.733-68.267c-1.959-1.26-3.147-3.427-3.147-5.753
	s1.186-4.494,3.147-5.753l106.733-68.267c2.106-1.333,4.774-1.427,6.96-0.234c2.186,1.193,3.546,3.494,3.546,5.987v136.533
	c0,2.493-1.36,4.794-3.546,5.987C266,218.551,264.873,218.831,263.747,218.831z M169.681,143.738l87.24,55.799V87.937
	L169.681,143.738z"/>
<polygon style="fill:#EE5281;" points="314.027,232.481 420.759,164.214 399.154,232.481 420.759,300.748 "/>
<path d="M420.76,307.578c-1.273,0-2.553-0.353-3.68-1.073l-106.733-68.267c-1.959-1.26-3.147-3.427-3.147-5.753
	c0-2.326,1.186-4.494,3.147-5.753l106.733-68.267c2.42-1.546,5.553-1.413,7.834,0.333c2.28,1.753,3.22,4.739,2.354,7.48
	l-20.953,66.207l20.953,66.207c0.867,2.739-0.073,5.726-2.354,7.48C423.694,307.103,422.226,307.578,420.76,307.578z
	 M326.694,232.485l81.874,52.367l-15.92-50.307c-0.427-1.34-0.427-2.78,0-4.12l15.92-50.307L326.694,232.485z"/>
<path style="fill:#F97DA3;" d="M6.827,232.481c28.394-70.146,97.166-119.629,177.493-119.629s149.1,49.483,177.493,119.629
	C333.42,302.627,264.648,352.11,184.32,352.11S35.221,302.629,6.827,232.481z"/>
<path d="M184.32,358.937c-81.207,0-153.359-48.633-183.82-123.894c-0.667-1.64-0.667-3.48,0-5.12
	c30.467-75.267,102.62-123.901,183.82-123.901s153.353,48.633,183.82,123.901c0.667,1.64,0.667,3.48,0,5.12
	C337.68,310.303,265.527,358.937,184.32,358.937z M14.214,232.485c28.954,68.62,95.42,112.8,170.107,112.8
	s141.153-44.18,170.107-112.8c-28.954-68.627-95.42-112.807-170.107-112.807S43.167,163.858,14.214,232.485z"/>
<g>
	<circle cx="68.267" cy="198.348" r="13.653"/>
	<polygon style="fill:#EE5281;" points="218.194,222.241 160.168,275.469 160.168,209.974 	"/>
</g>
<path d="M160.168,282.297c-0.927,0-1.867-0.186-2.746-0.58c-2.48-1.087-4.081-3.54-4.081-6.246v-65.5
	c0-2.06,0.927-4.007,2.526-5.299c1.601-1.307,3.714-1.812,5.714-1.381l58.027,12.273c2.5,0.532,4.5,2.413,5.173,4.879
	c0.672,2.466-0.087,5.1-1.973,6.833l-58.027,53.228C163.501,281.677,161.84,282.297,160.168,282.297z M166.994,218.391v41.554
	l36.813-33.766L166.994,218.391z"/>
<g>
</g>
<g>
</g>
<g>
</g>
<g>
</g>
<g>
</g>
<g>
</g>
<g>
</g>
<g>
</g>
<g>
</g>
<g>
</g>
<g>
</g>
<g>
</g>
<g>
</g>
<g>
</g>
<g>
</g>
</svg>
