<?xml version="1.0" encoding="iso-8859-1"?>
<!-- Generator: Adobe Illustrator 19.0.0, SVG Export Plug-In . SVG Version: 6.00 Build 0)  -->
<svg version="1.1" id="Capa_1" xmlns="http://www.w3.org/2000/svg" xmlns:xlink="http://www.w3.org/1999/xlink" x="0px" y="0px"
	 viewBox="0 0 417.471 417.471" style="enable-background:new 0 0 417.471 417.471;" xml:space="preserve">
<ellipse style="fill:#FEDA38;" cx="200.389" cy="130.758" rx="150.187" ry="61.44"/>
<path d="M200.387,199.018c-88.044,0-157.013-29.986-157.013-68.267s68.97-68.267,157.013-68.267S357.4,92.471,357.4,130.751
	S288.43,199.018,200.387,199.018z M200.387,76.138c-85.753,0-143.36,28.24-143.36,54.613s57.607,54.613,143.36,54.613
	s143.36-28.24,143.36-54.613S286.14,76.138,200.387,76.138z"/>
<rect x="70.682" y="35.185" style="fill:#FEDA38;" width="34.133" height="197.973"/>
<path d="M104.814,239.978H70.68c-3.77,0-6.827-3.053-6.827-6.827V35.178c0-3.773,3.057-6.827,6.827-6.827h34.133
	c3.77,0,6.827,3.053,6.827,6.827v197.973C111.64,236.925,108.584,239.978,104.814,239.978z M77.507,226.325h20.48V42.005h-20.48
	V226.325z"/>
<rect x="138.949" y="55.665" style="fill:#FBAD4A;" width="34.133" height="197.973"/>
<path d="M173.08,260.458h-34.133c-3.77,0-6.827-3.053-6.827-6.827V55.658c0-3.773,3.057-6.827,6.827-6.827h34.133
	c3.77,0,6.827,3.053,6.827,6.827v197.973C179.907,257.405,176.85,260.458,173.08,260.458z M145.774,246.805h20.48V62.485h-20.48
	V246.805z"/>
<rect x="195.065" y="114.276" transform="matrix(-0.6018 0.7986 -0.7986 -0.6018 575.9067 -24.4481)" style="fill:#FBAD4A;" width="197.966" height="34.132"/>
<path d="M248.126,227.485c-1.473,0-2.917-0.48-4.11-1.374l-27.261-20.547c-3.011-2.273-3.61-6.554-1.343-9.561L334.557,37.898
	c2.266-3.007,6.543-3.62,9.561-1.347l27.261,20.54c1.447,1.094,2.4,2.714,2.654,4.5c0.253,1.794-0.217,3.613-1.307,5.06
	L253.58,224.767c-1.091,1.447-2.71,2.4-4.504,2.654C248.759,227.465,248.443,227.485,248.126,227.485z M230.426,198.772
	l16.357,12.327L357.709,63.893l-16.357-12.327L230.426,198.772z"/>
<rect x="145.198" y="119.21" transform="matrix(-0.5 0.866 -0.866 -0.5 484.2946 -7.0511)" style="fill:#FBAD4A;" width="197.969" height="34.133"/>
<path d="M209.46,237.345c-1.157,0-2.33-0.294-3.407-0.913l-29.559-17.067c-1.567-0.906-2.714-2.4-3.18-4.147
	c-0.469-1.746-0.224-3.613,0.679-5.18L272.98,38.591c1.884-3.273,6.05-4.386,9.327-2.5l29.559,17.067
	c1.567,0.906,2.714,2.4,3.18,4.147c0.469,1.746,0.224,3.613-0.679,5.18L215.38,233.931
	C214.114,236.119,211.82,237.345,209.46,237.345z M189.232,210.953l17.734,10.24l92.16-159.619l-17.734-10.24L189.232,210.953z"/>
<rect x="207.215" y="14.705" style="fill:#FEDA38;" width="34.133" height="197.973"/>
<path d="M241.347,219.498h-34.133c-3.77,0-6.827-3.053-6.827-6.827V14.698c0-3.773,3.057-6.827,6.827-6.827h34.133
	c3.77,0,6.827,3.053,6.827,6.827v197.973C248.174,216.445,245.117,219.498,241.347,219.498z M214.04,205.845h20.48V21.525h-20.48
	V205.845z"/>
<rect x="275.471" y="7.884" transform="matrix(-0.9659 0.2588 -0.2588 -0.9659 602.7665 134.3837)" style="fill:#FEDA38;" width="34.132" height="197.967"/>
<path d="M301.679,213.719c-1.186,0-2.367-0.314-3.413-0.913c-1.567-0.906-2.714-2.4-3.18-4.147L243.849,17.432
	c-0.976-3.64,1.183-7.386,4.826-8.359l32.969-8.841c1.737-0.466,3.606-0.227,5.18,0.679c1.567,0.906,2.714,2.4,3.18,4.147
	l51.236,191.227c0.976,3.64-1.183,7.386-4.826,8.359l-32.969,8.841C302.865,213.639,302.273,213.719,301.679,213.719z
	 M258.803,20.492l47.703,178.039l19.784-5.306L278.586,15.186L258.803,20.492z"/>
<rect x="102.538" y="8.918" transform="matrix(-0.9659 0.2588 -0.2588 -0.9659 263.0587 181.1717)" style="fill:#FBAD4A;" width="34.132" height="197.967"/>
<path d="M128.743,214.759c-3.017,0-5.774-2.007-6.589-5.06L70.912,18.472c-0.469-1.746-0.224-3.613,0.679-5.18
	c0.906-1.567,2.396-2.714,4.147-3.18l32.969-8.834c3.654-0.993,7.383,1.179,8.359,4.826l51.239,191.227
	c0.469,1.746,0.224,3.613-0.679,5.18c-0.906,1.567-2.396,2.714-4.147,3.18l-32.969,8.834
	C129.92,214.685,129.326,214.759,128.743,214.759z M85.866,21.532l47.706,178.039l19.784-5.299L105.65,16.232L85.866,21.532z"/>
<rect x="166.255" y="28.358" style="fill:#FEDA38;" width="34.133" height="197.973"/>
<path d="M200.387,233.151h-34.133c-3.77,0-6.827-3.053-6.827-6.827V28.351c0-3.773,3.057-6.827,6.827-6.827h34.133
	c3.77,0,6.827,3.053,6.827,6.827v197.973C207.214,230.098,204.157,233.151,200.387,233.151z M173.08,219.498h20.48V35.178h-20.48
	V219.498z"/>
<path style="fill:#DDDDDD;" d="M104.814,130.751H50.2l20.48,279.893h259.413l20.48-279.893H295.96
	c0,30.162-42.79,54.613-95.573,54.613S104.814,160.915,104.814,130.751z"/>
<path d="M330.094,417.471H70.68c-3.577,0-6.547-2.76-6.81-6.327l-20.48-279.893c-0.137-1.893,0.517-3.76,1.811-5.147
	c1.29-1.393,3.103-2.179,5.001-2.179h54.613c3.77,0,6.827,3.053,6.827,6.827c0,25.9,40.639,47.787,88.747,47.787
	s88.747-21.886,88.747-47.787c0-3.773,3.057-6.827,6.827-6.827h54.613c1.896,0,3.71,0.787,5.001,2.179
	c1.294,1.386,1.947,3.253,1.811,5.147l-20.48,279.893C336.64,414.712,333.669,417.471,330.094,417.471z M77.026,403.818h246.721
	l19.483-266.24h-41.04c-5.494,31.126-48.234,54.613-101.803,54.613s-96.311-23.487-101.803-54.613H57.542L77.026,403.818z"/>
<circle style="fill:#EE5281;" cx="200.389" cy="301.425" r="54.613"/>
<path d="M200.387,362.858c-33.877,0-61.44-27.559-61.44-61.44s27.563-61.44,61.44-61.44s61.44,27.559,61.44,61.44
	S234.263,362.858,200.387,362.858z M200.387,253.631c-26.349,0-47.787,21.439-47.787,47.787c0,26.348,21.437,47.787,47.787,47.787
	s47.787-21.439,47.787-47.787C248.174,275.071,226.736,253.631,200.387,253.631z"/>
<g>
</g>
<g>
</g>
<g>
</g>
<g>
</g>
<g>
</g>
<g>
</g>
<g>
</g>
<g>
</g>
<g>
</g>
<g>
</g>
<g>
</g>
<g>
</g>
<g>
</g>
<g>
</g>
<g>
</g>
</svg>
