<?xml version="1.0" encoding="iso-8859-1"?>
<!-- Generator: Adobe Illustrator 19.0.0, SVG Export Plug-In . SVG Version: 6.00 Build 0)  -->
<svg version="1.1" id="Capa_1" xmlns="http://www.w3.org/2000/svg" xmlns:xlink="http://www.w3.org/1999/xlink" x="0px" y="0px"
	 viewBox="0 0 402.773 402.773" style="enable-background:new 0 0 402.773 402.773;" xml:space="preserve">
<path style="fill:#FFFFFF;" d="M224.087,201.387c30.8-25.068,66.046-93.515,66.046-174.08H112.64
	c0,80.565,35.246,149.012,66.046,174.08c-30.8,25.068-66.046,93.515-66.046,174.08h177.493
	C290.133,294.902,254.887,226.454,224.087,201.387z"/>
<path style="fill:#602F75;" d="M290.133,382.293H112.64c-3.77,0-6.827-3.053-6.827-6.827c0-76.38,30.58-143.367,62.594-174.08
	c-32.014-30.713-62.594-97.7-62.594-174.08c0-3.773,3.057-6.827,6.827-6.827h177.493c3.77,0,6.827,3.053,6.827,6.827
	c0,76.38-30.58,143.367-62.594,174.08c32.014,30.713,62.594,97.7,62.594,174.08C296.96,379.24,293.903,382.293,290.133,382.293z
	 M119.554,368.64H283.22c-1.877-73.247-33.57-137.646-63.444-161.959c-1.594-1.294-2.517-3.239-2.517-5.294s0.923-4,2.517-5.294
	c29.873-24.313,61.566-88.713,63.444-161.959H119.554c1.877,73.247,33.57,137.646,63.444,161.959
	c1.594,1.294,2.517,3.239,2.517,5.294s-0.923,4-2.517,5.294C153.124,230.994,121.429,295.393,119.554,368.64z"/>
<path style="fill:#FFE600;" d="M133.12,375.467c0-60.324,40.794-109.227,68.267-109.227s68.267,48.903,68.267,109.227H133.12z"/>
<path style="fill:#602F75;" d="M269.653,382.293H133.12c-3.77,0-6.827-3.053-6.827-6.827c0-61.413,41.993-116.053,75.093-116.053
	s75.093,54.641,75.093,116.053C276.48,379.24,273.423,382.293,269.653,382.293z M140.136,368.64h122.499
	c-2.9-52.5-38.526-95.573-61.251-95.573S143.037,316.14,140.136,368.64z"/>
<path style="fill:#FFE600;" d="M249.173,116.053c0,37.702-30.304,68.267-47.787,68.267S153.6,153.755,153.6,116.053H249.173z"/>
<path style="fill:#602F75;" d="M201.387,191.147c-21.567,0-54.613-33.64-54.613-75.093c0-3.773,3.057-6.827,6.827-6.827h95.573
	c3.77,0,6.827,3.053,6.827,6.827C256,157.507,222.954,191.147,201.387,191.147z M160.783,122.88
	c3.326,31.947,29.184,54.613,40.603,54.613s37.277-22.666,40.603-54.613H160.783z"/>
<path style="fill:#00E7FF;" d="M98.987,13.647c0-3.767,3.053-6.82,6.815-6.82h191.172c3.763,0,6.815,3.023,6.815,6.82v6.84
	c0,3.767-3.053,6.82-6.815,6.82H105.801c-3.763,0-6.815-3.023-6.815-6.82V13.647z"/>
<path style="fill:#602F75;" d="M296.974,34.133H105.8c-7.52,0-13.64-6.12-13.64-13.647v-6.84C92.16,6.12,98.28,0,105.8,0h191.174
	c7.52,0,13.64,6.12,13.64,13.647v6.84C310.613,28.013,304.493,34.133,296.974,34.133z M105.813,13.653v6.833l191.16-0.007
	l-0.014-6.833L105.813,13.653z"/>
<path style="fill:#EA3457;" d="M98.987,382.287c0-3.767,3.053-6.82,6.815-6.82h191.172c3.763,0,6.815,3.022,6.815,6.82v6.84
	c0,3.767-3.053,6.82-6.815,6.82H105.801c-3.763,0-6.815-3.023-6.815-6.82V382.287z"/>
<path style="fill:#602F75;" d="M296.974,402.773H105.8c-7.52,0-13.64-6.12-13.64-13.647v-6.84c0-7.526,6.12-13.647,13.64-13.647
	h191.174c7.52,0,13.64,6.12,13.64,13.647v6.84C310.613,396.653,304.493,402.773,296.974,402.773z M105.813,382.293v6.833
	l191.16-0.007l-0.014-6.833L105.813,382.293z"/>
<g>
</g>
<g>
</g>
<g>
</g>
<g>
</g>
<g>
</g>
<g>
</g>
<g>
</g>
<g>
</g>
<g>
</g>
<g>
</g>
<g>
</g>
<g>
</g>
<g>
</g>
<g>
</g>
<g>
</g>
</svg>
