<?xml version="1.0" encoding="iso-8859-1"?>
<!-- Generator: Adobe Illustrator 19.0.0, SVG Export Plug-In . SVG Version: 6.00 Build 0)  -->
<svg version="1.1" id="Capa_1" xmlns="http://www.w3.org/2000/svg" xmlns:xlink="http://www.w3.org/1999/xlink" x="0px" y="0px"
	 viewBox="0 0 187.734 187.734" style="enable-background:new 0 0 187.734 187.734;" xml:space="preserve">
<polygon style="fill:#FFDD95;" points="20.48,23.893 3.413,102.4 58.027,102.4 40.96,177.493 112.64,75.093 47.787,75.093 
	75.093,23.893 "/>
<path d="M40.96,180.907c-0.466,0-0.937-0.094-1.384-0.294c-1.49-0.66-2.307-2.287-1.947-3.876l16.121-70.924H3.413
	c-1.033,0-2.01-0.466-2.657-1.27c-0.65-0.807-0.896-1.86-0.679-2.871l17.067-78.507c0.343-1.567,1.731-2.686,3.337-2.686h54.613
	c1.2,0,2.311,0.63,2.927,1.657c0.616,1.031,0.65,2.307,0.087,3.364L53.477,71.68h59.163c1.273,0,2.441,0.707,3.026,1.836
	c0.59,1.13,0.5,2.49-0.23,3.533l-71.68,102.4C43.1,180.386,42.044,180.907,40.96,180.907z M7.649,98.987h50.377
	c1.036,0,2.021,0.473,2.666,1.283c0.65,0.814,0.893,1.874,0.664,2.886l-13.21,58.117l57.936-82.767H47.787
	c-1.2,0-2.311-0.63-2.927-1.657c-0.616-1.031-0.65-2.307-0.087-3.364l24.631-46.179H23.23L7.649,98.987z"/>
<polygon style="fill:#FBAD4A;" points="92.16,10.24 75.093,88.747 129.707,88.747 112.64,163.84 184.32,61.44 119.467,61.44 
	146.773,10.24 "/>
<path d="M112.64,167.253c-0.466,0-0.937-0.094-1.384-0.294c-1.49-0.66-2.307-2.287-1.947-3.876L125.43,92.16H75.093
	c-1.033,0-2.01-0.466-2.657-1.27c-0.65-0.807-0.896-1.86-0.679-2.871L88.824,9.513c0.343-1.567,1.729-2.686,3.337-2.686h54.613
	c1.2,0,2.311,0.63,2.927,1.657c0.616,1.031,0.65,2.307,0.087,3.364l-24.631,46.179h59.163c1.273,0,2.441,0.707,3.026,1.836
	c0.59,1.13,0.5,2.49-0.23,3.533l-71.68,102.4C114.78,166.733,113.724,167.253,112.64,167.253z M79.329,85.333h50.377
	c1.036,0,2.021,0.473,2.666,1.283c0.65,0.814,0.893,1.874,0.664,2.886l-13.21,58.117l57.936-82.767h-58.296
	c-1.2,0-2.311-0.63-2.927-1.657c-0.616-1.031-0.65-2.307-0.087-3.364l24.631-46.179H94.91L79.329,85.333z"/>
<g>
</g>
<g>
</g>
<g>
</g>
<g>
</g>
<g>
</g>
<g>
</g>
<g>
</g>
<g>
</g>
<g>
</g>
<g>
</g>
<g>
</g>
<g>
</g>
<g>
</g>
<g>
</g>
<g>
</g>
</svg>
