<?xml version="1.0" encoding="iso-8859-1"?>
<!-- Generator: Adobe Illustrator 19.0.0, SVG Export Plug-In . SVG Version: 6.00 Build 0)  -->
<svg version="1.1" id="Capa_1" xmlns="http://www.w3.org/2000/svg" xmlns:xlink="http://www.w3.org/1999/xlink" x="0px" y="0px"
	 viewBox="0 0 512.006 512.006" style="enable-background:new 0 0 512.006 512.006;" xml:space="preserve">
<path style="fill:#F97DA3;" d="M211.782,69.746c-13.766-16.611-4.247-42.92,17.257-45.097c1.069-0.107,2.15-0.165,3.25-0.165
	c11.055,0,20.783,5.637,26.473,14.176c5.69-8.544,15.418-14.176,26.473-14.176c1.095,0,2.182,0.053,3.25,0.165
	c21.505,2.177,31.024,28.486,17.257,45.097l-46.981,56.687L211.782,69.746z"/>
<path d="M258.762,135.337c-2.649,0-5.165-1.18-6.857-3.223l-46.981-56.682l0,0c-8.735-10.543-10.908-25.04-5.663-37.827
	c5.058-12.342,15.855-20.498,28.882-21.812c11.046-1.1,22.302,2.44,30.614,9.559c7.279-6.238,16.62-9.773,26.473-9.773
	c1.402,0,2.8,0.071,4.172,0.214c13.005,1.313,23.806,9.47,28.86,21.812c5.24,12.787,3.068,27.279-5.663,37.827l-46.976,56.687
	C263.932,134.157,261.416,135.337,258.762,135.337z M218.638,64.065l40.124,48.414l40.124-48.414
	c4.532-5.467,5.641-13.018,2.898-19.706c-1.207-2.952-5.018-9.92-14.194-10.85c-8.508-0.882-16.727,3.041-21.415,10.089
	c-1.652,2.48-4.43,3.971-7.409,3.971c-0.004,0-0.004,0-0.004,0c-2.979,0-5.757-1.487-7.409-3.967
	c-4.261-6.393-11.389-10.209-19.065-10.209c-0.801,0-1.589,0.045-2.369,0.12c-9.167,0.926-12.974,7.894-14.185,10.846
	C212.997,51.046,214.11,58.597,218.638,64.065L218.638,64.065z"/>
<path style="fill:#F97DA3;" d="M173.906,220.754c0,0-29.559-40.939-85.533-68.098c-40.832-19.813-56.237-99.478-56.237-99.478
	s-46.82,64.67-7.538,83.093c0,0-37.096,42.154,9.025,55.671c0,0-23.41,32.333,17.787,39.024c0,0-7.671,46.936,46.255,49.674
	c0,0-23.41,32.333,17.787,39.024c0,0-46.949,28.508-94.032,20.863c0,0,55.974,27.159,96.343,75.876c0,0,13.557-45.979,39.015-53.891
	s50.916-15.819,62.426-86.223s42.982-41.201,42.982-41.201S234.546,182.42,173.906,220.754z"/>
<path d="M117.763,425.314c-2.622,0-5.147-1.158-6.857-3.223c-38.686-46.691-92.83-73.285-93.373-73.547
	c-3.976-1.932-5.935-6.483-4.604-10.699c1.336-4.212,5.57-6.759,9.915-6.104c26.522,4.31,53.361-3.927,70.306-11.028
	c-4.19-3.014-7.226-6.772-9.078-11.26c-3.112-7.542-2.039-15.307,0.049-21.531c-13.321-2.738-23.726-8.669-31.028-17.72
	c-8.86-10.975-10.775-23.873-10.944-32.163c-11.282-3.219-18.704-9.011-22.119-17.284c-3.562-8.629-1.647-17.555,1.006-24.122
	c-9.612-4.733-15.739-11.491-18.254-20.173c-4.114-14.194,3.148-28.998,9.016-37.934c-5.178-4.506-8.753-10.285-10.507-17.088
	c-7.56-29.256,20.414-69.042,23.628-73.481c2.079-2.876,5.672-4.243,9.132-3.473c3.464,0.766,6.144,3.517,6.821,6.999
	c0.147,0.752,15.062,75.538,51.384,93.164c44.652,21.665,72.888,51.526,83.792,64.505c19.492-10.694,37.92-13.815,54.87-9.274
	c26.277,7.048,38.633,30.097,39.145,31.077c2.017,3.838,0.975,8.575-2.475,11.211c-3.437,2.631-8.286,2.404-11.465-0.543l0,0
	c0,0-5.846-5.018-10.908-3.232c-2.689,0.953-11.874,6.598-17.23,39.336c-12.395,75.84-42.239,85.11-68.57,93.293
	c-17.066,5.303-29.951,37.163-33.116,47.907c-0.931,3.157-3.526,5.543-6.75,6.206C118.961,425.252,118.359,425.314,117.763,425.314z
	 M54.767,349.666c17.253,11.273,39.536,27.956,59.776,49.625c6.683-15.77,19.644-39.078,39.59-45.28
	c24.501-7.609,45.658-14.185,56.281-79.153c4.853-29.688,13.82-46.954,27.395-52.684c-3.375-2.137-7.271-3.98-11.687-5.138
	c-13.909-3.655-29.87,0.129-47.457,11.251c-3.971,2.516-9.216,1.505-11.972-2.306c-0.329-0.454-29.14-39.559-82.207-65.306
	c-30.752-14.929-47.916-58.405-55.769-84.789c-6.857,13.116-13.148,29.648-10.178,41.112c1.327,5.125,4.452,8.686,9.84,11.215
	c2.538,1.189,4.363,3.504,4.938,6.247c0.574,2.743-0.183,5.592-2.035,7.698c-3.873,4.434-14.296,19.385-11.385,29.372
	c1.509,5.165,6.968,9.158,16.229,11.874c2.778,0.815,4.987,2.925,5.922,5.663c0.935,2.738,0.481,5.757-1.211,8.103
	c-1.839,2.591-6.634,11.309-4.332,16.821c1.603,3.833,7.404,6.745,16.331,8.192c2.333,0.378,4.417,1.67,5.797,3.589
	s1.946,4.305,1.563,6.638c-0.013,0.107-2.248,15.579,6.852,26.723c6.233,7.645,16.692,11.892,31.073,12.622
	c3.259,0.165,6.166,2.101,7.578,5.044c1.411,2.947,1.095,6.425-0.819,9.069c-1.839,2.587-6.634,11.309-4.332,16.816
	c1.603,3.833,7.404,6.745,16.335,8.192c3.682,0.601,6.598,3.433,7.311,7.088c0.712,3.66-0.931,7.377-4.118,9.319
	C118.529,328.219,90.168,345.182,54.767,349.666z"/>
<path style="fill:#26BBEC;" d="M333.071,289.471c0,0,31.442-39.519,88.632-64.042c41.714-17.889,60.836-96.748,60.836-96.748
	s43.739,66.775,3.638,83.351c0,0,35.08,43.837-11.625,55.191c0,0,21.87,33.388-19.595,38.156c0,0,5.463,47.243-48.53,47.466
	c0,0,21.87,33.388-19.595,38.156c0,0,45.565,30.663,92.95,25.218c0,0-57.185,24.523-99.794,71.308c0,0-11.389-46.562-36.446-55.649
	c-25.062-9.087-50.119-18.174-58.316-89.037s-41.006-43.156-41.006-43.156S274.297,248.354,333.071,289.471z"/>
<path d="M379.994,496.426c-0.73,0-1.469-0.089-2.195-0.276c-3.188-0.81-5.668-3.313-6.456-6.505
	c-2.876-11.674-14.02-43.303-30.832-49.403c-25.917-9.394-55.297-20.049-64.126-96.383c-3.811-32.947-12.725-39.02-15.365-40.093
	c-5-2.03-11.051,2.72-11.113,2.769c-3.344,2.711-8.179,2.676-11.447-0.129c-3.264-2.805-4.092-7.515-1.919-11.224
	c0.557-0.957,13.985-23.41,40.565-29.22c17.128-3.735,35.396,0.223,54.362,11.816c11.5-12.453,41.104-40.97,86.726-60.533
	c30.863-13.237,50.667-69.937,55.694-90.662c0.837-3.451,3.638-6.073,7.137-6.678c3.531-0.623,7.026,0.926,8.967,3.896
	c3.005,4.581,29.082,45.623,20.164,74.491c-2.075,6.714-5.913,12.324-11.3,16.589c5.445,9.198,11.999,24.318,7.23,38.307
	c-2.921,8.553-9.354,15.022-19.185,19.301c2.342,6.683,3.838,15.685-0.12,24.14c-3.798,8.108-11.487,13.553-22.907,16.238
	c-0.557,8.268-3.072,21.068-12.44,31.625c-7.716,8.7-18.388,14.14-31.816,16.251c1.794,6.313,2.507,14.123-0.962,21.509
	c-2.057,4.39-5.254,8.001-9.564,10.815c16.62,7.885,43.094,17.391,69.674,14.305c4.372-0.485,8.482,2.288,9.621,6.558
	c1.135,4.27-1.029,8.726-5.093,10.476c-0.557,0.24-55.988,24.394-96.726,69.117C384.865,495.402,382.465,496.426,379.994,496.426z
	 M269.176,287.912c13.286,6.362,21.438,24.025,24.893,53.904c7.569,65.395,28.397,72.946,52.51,81.691
	c19.635,7.119,31.487,31.006,37.426,47.065c21.233-20.694,44.278-36.322,62.038-46.785c-35.151-6.126-62.679-24.394-64.18-25.4
	c-3.094-2.084-4.564-5.868-3.682-9.497c0.882-3.62,3.931-6.313,7.636-6.741c8.994-1.029,14.924-3.669,16.701-7.426
	c2.56-5.401-1.821-14.332-3.557-17.034c-1.759-2.734-1.897-6.224-0.343-9.083c1.554-2.858,4.528-4.657,7.778-4.67
	c14.394-0.062,25.035-3.811,31.625-11.157c9.612-10.712,8.103-26.269,8.085-26.429c-0.508-4.857,2.983-9.265,7.836-9.826
	c8.994-1.028,14.924-3.669,16.701-7.426c2.56-5.401-1.821-14.332-3.557-17.034c-1.558-2.422-1.857-5.467-0.788-8.139
	c1.069-2.671,3.357-4.679,6.153-5.361c9.377-2.28,15.022-6.02,16.772-11.108c3.379-9.835-6.336-25.253-10.004-29.879
	c-1.736-2.191-2.346-5.076-1.647-7.783c0.703-2.703,2.631-4.929,5.214-5.997c5.503-2.275,8.798-5.694,10.36-10.761
	c3.504-11.353-2.004-28.147-8.241-41.549c-9.074,25.984-28.263,68.641-59.687,82.118c-54.26,23.281-84.878,61.041-85.186,61.419
	c-2.925,3.664-8.21,4.439-12.066,1.745c-17.124-11.977-32.969-16.478-47.056-13.406
	C276.523,284.319,272.605,285.962,269.176,287.912z"/>
<g>
</g>
<g>
</g>
<g>
</g>
<g>
</g>
<g>
</g>
<g>
</g>
<g>
</g>
<g>
</g>
<g>
</g>
<g>
</g>
<g>
</g>
<g>
</g>
<g>
</g>
<g>
</g>
<g>
</g>
</svg>
