<?xml version="1.0" encoding="iso-8859-1"?>
<!-- Generator: Adobe Illustrator 19.0.0, SVG Export Plug-In . SVG Version: 6.00 Build 0)  -->
<svg version="1.1" id="Capa_1" xmlns="http://www.w3.org/2000/svg" xmlns:xlink="http://www.w3.org/1999/xlink" x="0px" y="0px"
	 viewBox="0 0 429.013 429.013" style="enable-background:new 0 0 429.013 429.013;" xml:space="preserve">
<path style="fill:#FFFFFF;" d="M401.908,49.791c49.492,69.821,5.719,200.183-97.78,291.152
	C200.629,431.919,76.605,449.056,27.107,379.224c-49.492-69.823-5.717-200.183,97.782-291.151
	C228.386-2.904,352.409-20.04,401.908,49.791L401.908,49.791z"/>
<path style="fill:#602F75;" d="M120.577,429.013c-6.439,0-12.761-0.357-18.942-1.08c-34.507-4.04-62.205-19.517-80.099-44.761
	c-51.379-72.486-7.038-207.165,98.843-300.227c66.697-58.626,144.079-89.231,207-81.864c34.507,4.04,62.203,19.517,80.097,44.761
	l0,0c51.379,72.484,7.038,207.165-98.843,300.227C248.492,398.934,179.659,429.013,120.577,429.013z M308.273,13.644
	c-55.721,0-121.206,28.861-178.879,79.558C28.605,181.785-14.782,308.322,32.676,375.275c15.594,21.999,39.989,35.519,70.547,39.096
	c59.139,6.924,132.56-22.444,196.398-78.556c100.789-88.586,144.178-215.125,96.719-282.076
	C380.745,31.74,356.35,18.22,325.794,14.643C320.082,13.974,314.228,13.644,308.273,13.644z"/>
<path style="fill:#FFE600;" d="M330.991,62.815c43.675,25.218,58.638,81.074,33.418,124.742
	c-25.209,43.677-81.065,58.644-124.742,33.427c-43.669-25.218-58.636-81.063-33.418-124.74
	C231.458,52.565,287.314,37.597,330.991,62.815L330.991,62.815z"/>
<path style="fill:#602F75;" d="M285.167,240.086c-17.007,0-33.79-4.46-48.911-13.191c-46.862-27.061-62.974-87.204-35.917-134.066
	c13.104-22.704,34.266-38.944,59.59-45.73s51.772-3.304,74.477,9.803l0,0c22.702,13.109,38.941,34.273,45.725,59.597
	c6.784,25.324,3.301,51.77-9.808,74.47c-13.104,22.702-34.266,38.943-59.59,45.728C302.274,238.965,293.693,240.086,285.167,240.086
	z M285.469,57.371c-7.34,0-14.727,0.964-22.009,2.917c-21.801,5.842-40.018,19.823-51.299,39.368
	c-23.294,40.344-9.423,92.119,30.92,115.417c19.545,11.284,42.315,14.281,64.114,8.439c21.801-5.842,40.02-19.823,51.301-39.368
	c11.286-19.543,14.285-42.31,8.445-64.111s-19.82-40.021-39.364-51.306l0,0C314.561,61.211,300.108,57.371,285.469,57.371z"/>
<g>
	<ellipse style="fill:#EA3457;" cx="106.083" cy="283.2" rx="68.267" ry="102.4"/>
	<path style="fill:#EA3457;" d="M106.086,392.432c-41.407,0-75.093-48.998-75.093-109.227s33.686-109.227,75.093-109.227
		s75.093,48.998,75.093,109.227S147.492,392.432,106.086,392.432z M106.086,187.632c-33.877,0-61.44,42.873-61.44,95.573
		s27.563,95.573,61.44,95.573s61.44-42.873,61.44-95.573S139.963,187.632,106.086,187.632z"/>
</g>
<g>
	<path style="fill:#602F75;" d="M286.633,190.465c-23.852,0-40.987-11.752-49.867-34.374c-1.377-3.511,0.352-7.472,3.86-8.849
		c3.509-1.377,7.472,0.352,8.849,3.86c7.806,19.888,22.079,27.906,44.925,25.238c3.744-0.439,7.136,2.243,7.572,5.989
		c0.437,3.744-2.243,7.136-5.989,7.572C292.765,190.277,289.643,190.465,286.633,190.465z"/>
	<path style="fill:#602F75;" d="M150.628,254.322c-15.915,0-32.084-0.966-48.693-2.879l1.563-13.563
		c55.755,6.426,106.38,1.79,159.322-14.585l4.035,13.044C227.819,248.412,190.005,254.322,150.628,254.322z"/>
	<path style="fill:#602F75;" d="M153.296,418.781c-85.876-124.25-53.132-275.313-20.244-344.986l12.346,5.828
		c-31.64,67.029-63.215,212.256,19.128,331.395L153.296,418.781z"/>
</g>
<path style="fill:#602F75;" d="M274.104,118.997h-0.79c-3.77,0-6.827-3.057-6.827-6.827s3.057-6.827,6.827-6.827h0.79
	c3.77,0,6.827,3.057,6.827,6.827S277.874,118.997,274.104,118.997z"/>
<path style="fill:#602F75;" d="M317.281,143.923h-0.79c-3.77,0-6.827-3.057-6.827-6.827c0-3.77,3.057-6.827,6.827-6.827h0.79
	c3.77,0,6.827,3.057,6.827,6.827C324.108,140.866,321.051,143.923,317.281,143.923z"/>
<g>
</g>
<g>
</g>
<g>
</g>
<g>
</g>
<g>
</g>
<g>
</g>
<g>
</g>
<g>
</g>
<g>
</g>
<g>
</g>
<g>
</g>
<g>
</g>
<g>
</g>
<g>
</g>
<g>
</g>
</svg>
