<?xml version="1.0" encoding="iso-8859-1"?>
<!-- Generator: Adobe Illustrator 19.0.0, SVG Export Plug-In . SVG Version: 6.00 Build 0)  -->
<svg version="1.1" id="Layer_1" xmlns="http://www.w3.org/2000/svg" xmlns:xlink="http://www.w3.org/1999/xlink" x="0px" y="0px"
	 viewBox="0 0 511.996 511.996" style="enable-background:new 0 0 511.996 511.996;" xml:space="preserve">
<path style="fill:#AA6100;" d="M377.386,144.072c-4.455-55.659-23.882-22.882-23.882-22.882s-21.426,41.424-72.886,41.424H195.17
	c-33.861,0-61.567,27.704-61.567,61.567l0,0c0,33.861,27.705,61.567,61.567,61.567H304.3c8.384,0,23.999-4.893,24.102-4.947
	C385.491,250.936,377.386,144.069,377.386,144.072z"/>
<path style="fill:#9A4C00;" d="M199.342,224.18L199.342,224.18c0-33.861,27.704-61.567,61.567-61.567h-65.736
	c-33.861,0-61.567,27.704-61.567,61.567l0,0c0,33.861,27.705,61.567,61.567,61.567h65.736
	C227.046,285.747,199.342,258.043,199.342,224.18z"/>
<path style="fill:#CC7400;" d="M352.109,392.069H159.881c-33.861,0-61.567-27.705-61.567-61.567l0,0
	c0-33.862,27.705-61.567,61.567-61.567h192.228c33.861,0,61.567,27.705,61.567,61.567l0,0
	C413.676,364.364,385.971,392.069,352.109,392.069z"/>
<path style="fill:#AA6100;" d="M161.227,330.502L161.227,330.502c0-33.862,27.705-61.567,61.567-61.567h-62.913
	c-33.861,0-61.567,27.704-61.567,61.567l0,0c0,33.862,27.705,61.567,61.567,61.567h62.913
	C188.932,392.069,161.227,364.364,161.227,330.502z"/>
<path style="fill:#EE8700;" d="M382.633,504.27H129.356c-33.861,0-61.567-27.704-61.567-61.567l0,0
	c0-33.862,27.705-61.567,61.567-61.567h253.277c33.861,0,61.567,27.705,61.567,61.567l0,0
	C444.2,476.565,416.494,504.27,382.633,504.27z"/>
<g>
	<path style="fill:#CC7400;" d="M132.049,441.82L132.049,441.82c0-30.356,22.27-55.747,51.275-60.684h-53.967
		c-33.861,0-61.567,27.704-61.567,61.567l0,0c0,33.862,27.705,61.567,61.567,61.567l64.253,0.328
		C159.748,504.598,132.049,475.682,132.049,441.82z"/>
	<path style="fill:#CC7400;" d="M404.294,428.763c-1.978,0-3.954-0.753-5.464-2.262c-4.337-4.334-10.089-6.721-16.198-6.721
		c-4.269,0-7.729-3.459-7.729-7.729s3.459-7.729,7.729-7.729c10.236,0,19.869,3.994,27.124,11.246
		c3.019,3.017,3.02,7.911,0.003,10.929C408.251,428.008,406.272,428.763,404.294,428.763z"/>
	<path style="fill:#CC7400;" d="M382.633,481.085h-53.475c-4.269,0-7.729-3.459-7.729-7.729c0-4.269,3.459-7.729,7.729-7.729h53.475
		c10.838,0,20.282-7.7,22.458-18.307c0.858-4.183,4.948-6.875,9.124-6.018c4.182,0.857,6.876,4.942,6.018,9.124
		C416.588,468.191,400.774,481.085,382.633,481.085z"/>
</g>
<path d="M225.634,107.087c0,4.268,3.459,7.729,7.729,7.729s7.729-3.46,7.729-7.729c0-6.073,1.671-8.759,3.986-12.478
	c2.814-4.524,6.319-10.154,6.319-20.643c0-10.489-3.504-16.12-6.319-20.645c-2.314-3.718-3.986-6.404-3.986-12.476
	s1.671-8.758,3.986-12.476c2.814-4.525,6.319-10.154,6.319-20.641c0-4.269-3.459-7.729-7.729-7.729s-7.729,3.459-7.729,7.729
	c0,6.071-1.671,8.757-3.985,12.474c-2.815,4.525-6.32,10.154-6.32,20.643s3.504,16.119,6.319,20.643
	c2.314,3.719,3.986,6.406,3.986,12.478s-1.671,8.758-3.986,12.476C229.139,90.967,225.634,96.598,225.634,107.087z"/>
<path d="M286.737,139.375c0,4.269,3.459,7.729,7.729,7.729c4.269,0,7.729-3.459,7.729-7.729c0-6.073,1.671-8.758,3.986-12.476
	c2.814-4.526,6.319-10.156,6.319-20.645s-3.504-16.12-6.319-20.643c-2.314-3.719-3.986-6.406-3.986-12.478
	c0-6.071,1.671-8.757,3.985-12.475c2.815-4.525,6.32-10.154,6.32-20.643c0-4.269-3.459-7.729-7.729-7.729
	c-4.269,0-7.729,3.459-7.729,7.729c0,6.071-1.671,8.758-3.986,12.475c-2.814,4.525-6.319,10.154-6.319,20.641
	c0,10.489,3.504,16.119,6.319,20.645c2.314,3.718,3.986,6.404,3.986,12.476c0,6.073-1.671,8.759-3.986,12.478
	C290.241,123.255,286.737,128.887,286.737,139.375z"/>
<path d="M306.488,373.408h-21.64c-4.269,0-7.729,3.459-7.729,7.729c0,4.269,3.459,7.729,7.729,7.729h21.64
	c4.269,0,7.729-3.459,7.729-7.729C314.216,376.867,310.757,373.408,306.488,373.408z"/>
<path d="M403.66,376.68c11.288-12.61,17.745-29.04,17.745-46.178c0-35.431-26.735-64.718-61.089-68.792
	c11.704-17.169,19.457-40.342,23.07-69.196c1.745-13.933,2.119-26.466,2.126-34.525c0.006-8.146-0.164-12.253-0.451-14.532
	l0.031-0.003c-1.992-24.874-7.247-36.977-17.043-39.246c-11.264-2.602-19.63,10.405-21.192,13.04
	c-0.066,0.112-0.143,0.25-0.203,0.366c-0.801,1.523-20.132,37.27-66.033,37.27h-85.447c-22.52,0-43.741,11.087-56.765,29.657
	c-2.45,3.495-1.604,8.314,1.89,10.765c3.495,2.452,8.313,1.605,10.765-1.89c10.134-14.449,26.623-23.077,44.11-23.077h85.447
	c53.993,0,77.48-41.36,79.619-45.354c1.075-1.765,2.943-4.004,4.316-5.098c1.242,2.036,3.792,8.109,5.129,24.778
	c0.102,1.411,5.355,79.245-28.56,116.54l-0.002-0.001c0,0-182.858,0.032-184.819,0.093c-9.652-10.091-14.968-23.218-14.968-37.12
	c0-2.897,0.236-5.804,0.699-8.643c0.688-4.213-2.168-8.185-6.381-8.872c-4.212-0.696-8.185,2.168-8.872,6.381
	c-0.599,3.659-0.902,7.406-0.902,11.134c0,14.633,4.565,28.591,13.001,40.29c-27.972,8.918-48.291,35.142-48.291,66.031
	c0,17.227,6.429,33.601,17.721,46.186c-27.948,8.932-48.245,35.144-48.245,66.017c0,38.209,31.085,69.294,69.295,69.294h253.276
	c38.21,0,69.296-31.085,69.296-69.296C451.928,411.822,431.62,385.605,403.66,376.68z M382.633,496.542H129.357
	c-29.687,0-53.838-24.152-53.838-53.838c0-50.635,53.296-53.837,53.838-53.837h118.91c4.269,0,7.729-3.459,7.729-7.729
	c0-4.269-3.459-7.729-7.729-7.729c0,0-120.113,0.03-120.715,0.045c-13.514-10.205-21.509-26.052-21.509-42.952
	c0-29.686,24.152-53.837,53.838-53.837h192.228c29.687,0,53.838,24.152,53.838,53.837c0,16.815-8.031,32.752-21.528,42.952
	c-0.596-0.015-42.379-0.045-42.379-0.045c-4.269,0-7.729,3.459-7.729,7.729c0,4.269,3.459,7.729,7.729,7.729h40.594
	c29.687,0,53.838,24.152,53.838,53.838C436.471,472.389,412.32,496.542,382.633,496.542z"/>
<g>
</g>
<g>
</g>
<g>
</g>
<g>
</g>
<g>
</g>
<g>
</g>
<g>
</g>
<g>
</g>
<g>
</g>
<g>
</g>
<g>
</g>
<g>
</g>
<g>
</g>
<g>
</g>
<g>
</g>
</svg>
