<?xml version="1.0" encoding="iso-8859-1"?>
<!-- Generator: Adobe Illustrator 19.0.0, SVG Export Plug-In . SVG Version: 6.00 Build 0)  -->
<svg version="1.1" id="Capa_1" xmlns="http://www.w3.org/2000/svg" xmlns:xlink="http://www.w3.org/1999/xlink" x="0px" y="0px"
	 viewBox="0 0 512 512" style="enable-background:new 0 0 512 512;" xml:space="preserve">
<polygon style="fill:#FCAD3A;" points="385.62,503.607 117.987,503.607 100.721,134.295 402.885,134.295 "/>
<path d="M385.62,512H117.987c-4.482,0-8.175-3.525-8.385-7.999L92.336,134.69c-0.105-2.291,0.73-4.528,2.312-6.186
	c1.582-1.658,3.777-2.602,6.073-2.602h302.164c2.296,0,4.486,0.94,6.073,2.598c1.582,1.662,2.417,3.895,2.312,6.186l-17.265,369.311
	C393.795,508.475,390.102,512,385.62,512z M125.994,495.213h251.614l16.481-352.525H109.518L125.994,495.213z"/>
<circle style="fill:#EE5281;" cx="251.803" cy="302.164" r="75.541"/>
<path d="M251.803,386.098c-46.281,0-83.934-37.653-83.934-83.934s37.653-83.934,83.934-83.934s83.934,37.653,83.934,83.934
	S298.085,386.098,251.803,386.098z M251.803,235.016c-37.023,0-67.148,30.124-67.148,67.148s30.124,67.148,67.148,67.148
	s67.148-30.124,67.148-67.148S288.827,235.016,251.803,235.016z"/>
<path d="M160.374,511.786c-4.474,0-8.192-3.534-8.381-8.045L136.645,134.66c-0.193-4.633,3.408-8.54,8.037-8.733
	c4.654-0.193,8.545,3.408,8.733,8.037l15.347,369.081c0.193,4.633-3.408,8.54-8.037,8.733
	C160.613,511.782,160.495,511.786,160.374,511.786z"/>
<path d="M338.088,511.786c-0.113,0-0.235-0.004-0.353-0.008c-4.633-0.193-8.23-4.104-8.037-8.733l15.347-369.081
	c0.193-4.629,3.958-8.322,8.733-8.037c4.633,0.193,8.23,4.104,8.037,8.733l-15.347,369.081
	C346.28,508.252,342.562,511.786,338.088,511.786z"/>
<path d="M201.443,512c-4.574,0-8.314-3.668-8.389-8.259l-2.333-143.465c-0.076-4.633,3.622-8.452,8.255-8.528
	c4.797,0.034,8.456,3.622,8.528,8.259l2.333,143.465c0.076,4.633-3.622,8.452-8.255,8.528C201.531,512,201.485,512,201.443,512z"/>
<path d="M197.321,258.312c-4.574,0-8.314-3.668-8.389-8.255l-1.884-115.607c-0.076-4.633,3.622-8.456,8.255-8.528
	c0.046,0,0.092,0,0.138,0c4.574,0,8.314,3.668,8.389,8.255l1.88,115.607c0.076,4.633-3.622,8.452-8.255,8.532
	C197.414,258.312,197.363,258.312,197.321,258.312z"/>
<path d="M296.167,512c-0.05,0-0.092,0-0.138,0c-4.633-0.08-8.331-3.895-8.259-8.528l2.266-139.6
	c0.076-4.591,3.819-8.259,8.389-8.259c0.05,0,0.092,0,0.138,0c4.633,0.08,8.331,3.895,8.259,8.528l-2.266,139.6
	C304.485,508.332,300.737,512,296.167,512z"/>
<path d="M300.422,250.167c-0.05,0-0.092,0-0.138,0c-4.633-0.076-8.33-3.895-8.259-8.528l1.746-107.465
	c0.076-4.587,3.819-8.255,8.389-8.255c0.05,0,0.092,0,0.138,0c4.633,0.076,8.33,3.895,8.259,8.528l-1.746,107.461
	C308.736,246.499,304.993,250.167,300.422,250.167z"/>
<path d="M251.803,512c-4.633,0-8.393-3.76-8.393-8.393V378.423c0-4.633,3.76-8.393,8.393-8.393c4.633,0,8.393,3.76,8.393,8.393
	v125.184C260.197,508.24,256.436,512,251.803,512z"/>
<path d="M251.803,232.7c-4.633,0-8.393-3.76-8.393-8.393v-90.011c0-4.633,3.76-8.393,8.393-8.393c4.633,0,8.393,3.76,8.393,8.393
	v90.011C260.197,228.944,256.436,232.7,251.803,232.7z"/>
<path style="fill:#FFFFFF;" d="M411.279,83.934c-6.48,0-12.326,2.514-16.787,6.534v-6.534h-2.934
	c1.83-3.827,2.934-8.066,2.934-12.59c0-16.225-13.153-29.377-29.377-29.377c-10.756,0-20.06,5.842-25.18,14.466
	c-5.12-8.62-14.424-14.466-25.18-14.466c-10.114,0-19.028,5.116-24.312,12.892c-4.318-7.659-12.431-12.892-21.852-12.892
	c-6.559,0-12.481,2.568-16.959,6.677c-0.919-22.364-19.204-40.251-41.795-40.251c-18.73,0-34.405,12.351-39.806,29.289
	c-4.348-2.543-9.346-4.109-14.751-4.109c-12.582,0-23.233,7.949-27.417,19.066c-3.164-1.435-6.652-2.279-10.353-2.279
	c-13.908,0-25.18,11.272-25.18,25.18c0,3.315,0.68,6.463,1.842,9.363C83.46,87.8,75.541,97.49,75.541,109.115
	c0,13.908,11.272,25.18,25.18,25.18h293.77v-6.534c4.461,4.02,10.307,6.534,16.787,6.534c13.908,0,25.18-11.272,25.18-25.18
	S425.187,83.934,411.279,83.934z"/>
<path d="M411.279,142.689c-3.89,0-7.722-0.692-11.335-2.01c-1.469,1.251-3.37,2.01-5.452,2.01h-293.77
	c-18.512,0-33.574-15.062-33.574-33.574c0-12.238,6.732-23.3,17.089-29.142c-0.201-1.469-0.302-2.946-0.302-4.432
	c0-18.512,15.062-33.574,33.574-33.574c2.052,0,4.088,0.189,6.098,0.571c6.857-10.622,18.785-17.358,31.673-17.358
	c3.462,0,6.933,0.512,10.307,1.498C174.202,10.42,191.031,0,209.836,0c22.545,0,41.623,14.764,47.977,35.378
	c3.446-1.188,7.08-1.805,10.777-1.805c8.293,0,16.178,3.131,22.238,8.549c6.669-5.464,15.091-8.549,23.926-8.549
	c9.506,0,18.365,3.5,25.18,9.703c6.811-6.203,15.675-9.703,25.18-9.703c20.828,0,37.77,16.946,37.77,37.77
	c0,1.809-0.134,3.609-0.403,5.393c2.85-0.789,5.804-1.196,8.796-1.196c18.512,0,33.574,15.062,33.574,33.574
	S429.79,142.689,411.279,142.689z M394.492,119.367c2.035,0,4.046,0.739,5.619,2.157c2.216,1.998,5.955,4.377,11.167,4.377
	c9.258,0,16.787-7.529,16.787-16.787s-7.529-16.787-16.787-16.787c-5.212,0-8.952,2.38-11.167,4.377
	c-2.468,2.22-6.001,2.782-9.031,1.431c-3.03-1.347-4.982-4.352-4.982-7.667v-0.159c-0.63-0.537-1.188-1.179-1.645-1.901
	c-1.536-2.438-1.712-5.498-0.466-8.095c1.402-2.929,2.111-5.947,2.111-8.968c0-11.57-9.413-20.984-20.984-20.984
	c-7.399,0-14.114,3.869-17.962,10.358c-1.511,2.547-4.255,4.109-7.218,4.109s-5.703-1.561-7.218-4.109
	c-3.853-6.484-10.563-10.358-17.962-10.358c-6.954,0-13.446,3.446-17.37,9.216c-1.633,2.401-4.394,3.815-7.29,3.668
	c-2.9-0.118-5.535-1.733-6.962-4.264c-3.047-5.397-8.482-8.62-14.542-8.62c-4.134,0-8.142,1.586-11.285,4.47
	c-2.405,2.207-5.871,2.816-8.893,1.565c-3.017-1.255-5.032-4.142-5.166-7.407c-0.743-18.058-15.419-32.201-33.41-32.201
	c-14.554,0-27.337,9.422-31.807,23.443c-0.776,2.43-2.61,4.373-4.99,5.288c-2.38,0.911-5.044,0.697-7.248-0.592
	c-3.357-1.964-6.895-2.959-10.513-2.959c-8.767,0-16.447,5.351-19.565,13.631c-0.818,2.174-2.497,3.911-4.642,4.797
	c-2.145,0.89-4.558,0.852-6.677-0.109c-2.241-1.016-4.558-1.532-6.887-1.532c-9.258,0-16.787,7.529-16.787,16.787
	c0,2.09,0.42,4.188,1.238,6.241c0.89,2.224,0.789,4.726-0.281,6.87s-3.005,3.731-5.321,4.356
	c-7.311,1.977-12.422,8.599-12.422,16.107c0,9.258,7.529,16.787,16.787,16.787h285.587c0.579-2.543,2.321-4.721,4.772-5.808
	C392.171,119.607,393.338,119.367,394.492,119.367z"/>
<path d="M184.656,109.115c-4.633,0-8.393-3.76-8.393-8.393c0-9.258-7.529-16.787-16.787-16.787c-9.258,0-16.787,7.529-16.787,16.787
	c0,4.633-3.76,8.393-8.393,8.393s-8.393-3.76-8.393-8.393c0-18.512,15.062-33.574,33.574-33.574s33.574,15.062,33.574,33.574
	C193.049,105.354,189.289,109.115,184.656,109.115z"/>
<path d="M327.344,117.508c-4.633,0-8.393-3.76-8.393-8.393c0-4.629-3.764-8.393-8.393-8.393c-4.629,0-8.393,3.764-8.393,8.393
	c0,4.633-3.76,8.393-8.393,8.393c-4.633,0-8.393-3.76-8.393-8.393c0-13.887,11.293-25.18,25.18-25.18
	c13.887,0,25.18,11.293,25.18,25.18C335.738,113.748,331.977,117.508,327.344,117.508z"/>
<g>
</g>
<g>
</g>
<g>
</g>
<g>
</g>
<g>
</g>
<g>
</g>
<g>
</g>
<g>
</g>
<g>
</g>
<g>
</g>
<g>
</g>
<g>
</g>
<g>
</g>
<g>
</g>
<g>
</g>
</svg>
