<?xml version="1.0" encoding="iso-8859-1"?>
<!-- Generator: Adobe Illustrator 19.0.0, SVG Export Plug-In . SVG Version: 6.00 Build 0)  -->
<svg version="1.1" id="Capa_1" xmlns="http://www.w3.org/2000/svg" xmlns:xlink="http://www.w3.org/1999/xlink" x="0px" y="0px"
	 viewBox="0 0 512 512" style="enable-background:new 0 0 512 512;" xml:space="preserve">
<path style="fill:#FCAD3A;" d="M503.467,311.468c0-63.377-55.501-152.393-136.393-179.059C333.67,121.4,295.94,149.334,256,149.334
	c-39.727,0-77.265-28.002-110.532-17.101C64.282,158.832,8.533,247.95,8.533,311.468c0,89.545,110.793,162.133,247.467,162.133
	S503.467,401.012,503.467,311.468z"/>
<path d="M256,482.134c-141.158,0-256-76.561-256-170.667c0-66.483,58.65-159.77,142.814-187.341
	c21.461-7.04,43.861-0.03,65.532,6.746c15.612,4.881,31.757,9.929,47.654,9.929c15.97,0,32.175-5.018,47.851-9.869
	c21.794-6.754,44.339-13.73,65.894-6.626C453.581,151.941,512,245.125,512,311.468C512,405.573,397.158,482.134,256,482.134z
	 M162.031,138.271c-4.809,0-9.455,0.619-13.905,2.074C70.891,165.65,17.067,250.838,17.067,311.468
	c0,84.698,107.187,153.6,238.933,153.6c131.75,0,238.933-68.902,238.933-153.6c0-60.506-53.606-145.596-130.53-170.953
	c-16.388-5.393-35.388,0.491-55.505,6.72c-16.887,5.227-34.342,10.633-52.898,10.633c-18.505,0-35.913-5.444-52.749-10.705
	C188.736,142.627,174.801,138.271,162.031,138.271z"/>
<path style="fill:#99783D;" d="M238.933,140.801c0,0,0-68.267,51.2-102.4l51.2,25.6c0,0-85.333,34.133-76.8,76.8"/>
<path d="M264.525,149.339c-3.985,0-7.552-2.807-8.358-6.861c-7.373-36.86,38.908-65.638,65.348-78.844L290.88,48.317
	c-42.901,32.073-43.413,91.866-43.413,92.484c0,4.71-3.823,8.533-8.533,8.533s-8.533-3.823-8.533-8.533
	c0-2.974,0.623-73.25,55.002-109.5c2.543-1.698,5.811-1.907,8.55-0.533l51.2,25.6c3.004,1.502,4.847,4.629,4.71,7.987
	c-0.137,3.358-2.231,6.319-5.355,7.569c-21.897,8.781-77.449,37.973-71.603,67.204c0.926,4.621-2.069,9.118-6.69,10.039
	C265.643,149.283,265.079,149.339,264.525,149.339z"/>
<path d="M256,482.134c-44.343,0-68.267-87.932-68.267-170.667S211.657,140.801,256,140.801c44.344,0,68.267,87.932,68.267,170.667
	S300.343,482.134,256,482.134z M256,157.868c-24.218,0-51.2,63.083-51.2,153.6s26.982,153.6,51.2,153.6s51.2-63.083,51.2-153.6
	S280.218,157.868,256,157.868z"/>
<path d="M256,482.134c-94.106,0-170.667-76.561-170.667-170.667S161.894,140.801,256,140.801s170.667,76.561,170.667,170.667
	S350.106,482.134,256,482.134z M256,157.868c-84.698,0-153.6,68.907-153.6,153.6s68.902,153.6,153.6,153.6s153.6-68.902,153.6-153.6
	S340.698,157.868,256,157.868z"/>
<g>
</g>
<g>
</g>
<g>
</g>
<g>
</g>
<g>
</g>
<g>
</g>
<g>
</g>
<g>
</g>
<g>
</g>
<g>
</g>
<g>
</g>
<g>
</g>
<g>
</g>
<g>
</g>
<g>
</g>
</svg>
