<?xml version="1.0" encoding="iso-8859-1"?>
<!-- Generator: Adobe Illustrator 19.0.0, SVG Export Plug-In . SVG Version: 6.00 Build 0)  -->
<svg version="1.1" id="Capa_1" xmlns="http://www.w3.org/2000/svg" xmlns:xlink="http://www.w3.org/1999/xlink" x="0px" y="0px"
	 viewBox="0 0 512.001 512.001" style="enable-background:new 0 0 512.001 512.001;" xml:space="preserve">
<path style="fill:#EE5281;" d="M263.54,83.532l129.221,53.615l18.461-15.32c0,0-110.764-145.529-184.606-107.234
	s-110.764,196.49-110.764,196.49h249.216c0,0-12.92-86.193-34.15-99.216"/>
<path d="M365.065,219.273H115.849c-2.498,0-4.865-1.143-6.417-3.1c-1.552-1.958-2.13-4.521-1.56-6.954
	c1.544-6.61,38.659-162.323,114.97-201.9c79.046-41.006,190.2,103.376,194.897,109.544c2.654,3.493,2.089,8.461-1.286,11.262
	l-18.465,15.32c-2.342,1.941-5.57,2.42-8.371,1.261l-37.099-15.39c12.241,28.147,19.035,69.816,20.644,80.549
	c0.356,2.359-0.336,4.755-1.892,6.561C369.713,218.233,367.449,219.273,365.065,219.273z M126.423,202.892h229.014
	c-5.86-33.573-17.503-77.113-28.802-84.043c-0.324-0.197-0.627-0.414-0.913-0.647L260.399,91.1
	c-4.181-1.732-6.159-6.524-4.427-10.705c1.728-4.177,6.511-6.159,10.705-4.427l124.651,51.719l8.481-7.036
	C378.1,94.036,289.049-8.554,230.389,21.862C171.164,52.576,135.899,167.98,126.423,202.892z"/>
<circle style="fill:#FFFFFF;" cx="414.237" cy="136.414" r="30.141"/>
<path d="M414.241,174.741c-21.136,0-38.327-17.196-38.327-38.332s17.192-38.332,38.327-38.332c21.136,0,38.332,17.196,38.332,38.332
	S435.377,174.741,414.241,174.741z M414.241,114.459c-12.101,0-21.946,9.845-21.946,21.951s9.845,21.951,21.946,21.951
	c12.106,0,21.951-9.849,21.951-21.951S426.347,114.459,414.241,114.459z"/>
<path style="fill:#FFFFFF;" d="M365.454,266.18H116.918l-12.138,86.197c-7.666,54.442,19.948,107.861,69.55,134.545l0,0
	c41.579,22.368,92.139,22.368,133.718,0l0,0c49.602-26.685,77.216-80.103,69.55-134.545L365.454,266.18z"/>
<path d="M241.184,512.001c-24.301,0-48.59-5.954-70.737-17.868c-53.025-28.527-81.987-84.616-73.78-142.904l12.138-86.197
	c0.569-4.038,4.026-7.048,8.109-7.048h248.532c4.083,0,7.543,3.006,8.109,7.048l12.147,86.197
	c8.207,58.284-20.751,114.376-73.784,142.904C289.782,506.043,265.477,512.001,241.184,512.001z M124.035,274.371l-11.147,79.149
	c-7.24,51.416,18.4,100.944,65.319,126.187c39.433,21.213,86.52,21.217,125.958,0c46.919-25.239,72.56-74.771,65.319-126.187
	l-11.155-79.149L124.035,274.371L124.035,274.371z"/>
<path style="fill:#FFFFFF;" d="M376.569,271.369l-88.564,9.927c-30.514,3.42-61.31,3.448-91.832,0.086L105.3,271.369
	c-20.808,0-37.676-16.868-37.676-37.676l0,0c0-20.808,16.868-37.676,37.676-37.676l89.141,9.947
	c30.514,3.403,61.31,3.42,91.828,0.045l90.304-9.992c20.808,0,37.676,16.868,37.676,37.676l0,0
	C414.245,254.5,397.377,271.369,376.569,271.369z"/>
<path d="M241.684,292.066c-15.509,0-31.013-0.848-46.411-2.543l-90.448-9.972c-25.075-0.254-45.396-20.73-45.396-45.863
	c0-25.292,20.575-45.867,45.867-45.867l0.909,0.049l89.141,9.951c29.867,3.334,60.151,3.342,90.018,0.045l91.205-10.042
	c25.288,0,45.863,20.575,45.863,45.867c0,25.128-20.316,45.605-45.383,45.859l-88.134,9.878
	C273.246,291.186,257.463,292.066,241.684,292.066z M104.87,204.211c-16.062,0.229-29.06,13.367-29.06,29.482
	c0,16.258,13.228,29.486,29.486,29.486l0.897,0.049l90.874,10.013c29.854,3.293,60.147,3.26,90.022-0.086l89.477-9.98
	c16.258,0,29.482-13.228,29.486-29.486c0-16.115-12.998-29.252-29.06-29.482l-89.833,9.939c-31.058,3.436-62.563,3.424-93.634-0.045
	L104.87,204.211z"/>
<path style="fill:#FFDD95;" d="M243.719,438.176L243.719,438.176c-56.543,0-102.381-45.838-102.381-102.381v-59.979
	c0-14.37,11.651-26.017,26.021-26.017h152.724c14.37,0,26.021,11.651,26.021,26.017v59.979
	C346.1,392.338,300.262,438.176,243.719,438.176z"/>
<path d="M243.719,446.367c-60.97,0-110.572-49.602-110.572-110.572v-59.983c0-18.859,15.349-34.208,34.212-34.208h152.724
	c18.863,0,34.212,15.349,34.212,34.208v59.979C354.291,396.765,304.685,446.367,243.719,446.367z M167.359,257.99
	c-9.833,0-17.831,7.994-17.831,17.827v59.979c0,51.94,42.255,94.191,94.191,94.191s94.191-42.251,94.195-94.191v-59.983
	c0-9.829-7.998-17.827-17.831-17.827H167.359V257.99z"/>
<path style="fill:#FFDD95;" d="M223.243,298.942c0,9.046-7.335,16.381-16.381,16.381c-9.046,0-16.381-7.335-16.381-16.381"/>
<path d="M206.862,323.514c-13.551,0-24.571-11.02-24.571-24.571c0-4.521,3.669-8.19,8.19-8.19c4.521,0,8.19,3.669,8.19,8.19
	c0,4.517,3.673,8.19,8.191,8.19s8.19-3.673,8.19-8.19c0-4.521,3.669-8.19,8.19-8.19s8.19,3.669,8.19,8.19
	C231.433,312.489,220.409,323.514,206.862,323.514z"/>
<path style="fill:#FFDD95;" d="M296.957,298.942c0,9.046-7.335,16.381-16.381,16.381c-9.046,0-16.381-7.335-16.381-16.381"/>
<path d="M280.576,323.514c-13.551,0-24.571-11.02-24.571-24.571c0-4.521,3.669-8.19,8.19-8.19s8.19,3.669,8.19,8.19
	c0,4.517,3.673,8.19,8.19,8.19c4.517,0,8.19-3.673,8.19-8.19c0-4.521,3.669-8.19,8.19-8.19c4.521,0,8.191,3.669,8.191,8.19
	C305.148,312.489,294.123,323.514,280.576,323.514z"/>
<path style="fill:#FFFFFF;" d="M329.719,404.735c0-24.879-38.504-45.048-86-45.048s-86,20.169-86,45.048
	c0,24.879,38.504,4.095,86,4.095S329.719,429.613,329.719,404.735z"/>
<path d="M315.103,425.149c-7.212,0-15.857-1.474-25.956-3.198c-13.531-2.31-28.863-4.931-45.433-4.931s-31.906,2.621-45.433,4.931
	c-19.518,3.334-33.614,5.733-42.374-1.646c-4.239-3.575-6.389-8.813-6.389-15.57c0-29.854,41.374-53.238,94.191-53.238
	s94.191,23.384,94.191,53.238c0,6.753-2.146,11.991-6.389,15.57C327.295,423.868,321.824,425.149,315.103,425.149z M243.719,367.877
	c-45.854,0-77.81,19.424-77.81,36.857c0,1.884,0.34,2.854,0.569,3.047c2.94,2.482,18.027-0.098,29.048-1.978
	c13.469-2.302,30.231-5.164,48.193-5.164c17.958,0,34.724,2.863,48.189,5.164c11.024,1.884,26.111,4.46,29.056,1.978
	c0.229-0.192,0.569-1.163,0.569-3.047C321.529,387.301,289.573,367.877,243.719,367.877z"/>
<g>
</g>
<g>
</g>
<g>
</g>
<g>
</g>
<g>
</g>
<g>
</g>
<g>
</g>
<g>
</g>
<g>
</g>
<g>
</g>
<g>
</g>
<g>
</g>
<g>
</g>
<g>
</g>
<g>
</g>
</svg>
