<?xml version="1.0" encoding="iso-8859-1"?>
<!-- Generator: Adobe Illustrator 19.0.0, SVG Export Plug-In . SVG Version: 6.00 Build 0)  -->
<svg version="1.1" id="Capa_1" xmlns="http://www.w3.org/2000/svg" xmlns:xlink="http://www.w3.org/1999/xlink" x="0px" y="0px"
	 viewBox="0 0 433.058 433.058" style="enable-background:new 0 0 433.058 433.058;" xml:space="preserve">
<polygon style="fill:#8C6B3B;" points="93.736,54.051 91.047,6.831 51.498,32.771 "/>
<path d="M93.738,60.878c-1.05,0-2.103-0.241-3.07-0.727l-42.24-21.28c-2.179-1.101-3.606-3.28-3.746-5.714
	c-0.137-2.434,1.033-4.76,3.074-6.093l39.55-25.94c2.033-1.347,4.644-1.493,6.813-0.387c2.179,1.094,3.606,3.273,3.746,5.707
	l2.69,47.22c0.137,2.434-1.033,4.76-3.074,6.093C96.351,60.504,95.044,60.878,93.738,60.878z M65.128,31.998l21.123,10.639
	l-1.347-23.613L65.128,31.998z"/>
<polygon style="fill:#8C6B3B;" points="84.416,380.549 38.731,392.791 72.174,426.234 "/>
<path d="M72.174,433.058c-1.787,0-3.529-0.7-4.826-2l-33.444-33.44c-1.727-1.727-2.4-4.239-1.766-6.593
	c0.63-2.353,2.47-4.193,4.826-4.826l45.687-12.24c2.357-0.647,4.871,0.039,6.593,1.766c1.727,1.727,2.4,4.239,1.766,6.593
	l-12.244,45.681c-0.63,2.353-2.47,4.193-4.826,4.826C73.357,432.984,72.765,433.058,72.174,433.058z M51.921,396.325l16.72,16.72
	l6.12-22.84L51.921,396.325z"/>
<path style="fill:#8C6B3B;" d="M99.211,396.451c-5.753,0-11.573-1.62-16.749-4.994c-14.213-9.274-18.22-28.307-8.95-42.513
	c89.23-136.827,4.323-260.627,0.667-265.827c-9.733-13.846-6.47-33,7.337-42.786c13.807-9.774,32.889-6.6,42.723,7.166
	c4.68,6.547,113.3,162.413,0.734,335.007C119.08,391.538,109.247,396.451,99.211,396.451z"/>
<path d="M99.211,403.278c-7.274,0-14.353-2.106-20.477-6.1c-8.404-5.487-14.17-13.906-16.234-23.719
	c-2.067-9.813-0.186-19.847,5.294-28.247c86.74-133.007,4.349-253.121,0.799-258.168c-11.88-16.899-7.857-40.354,8.974-52.28
	c16.833-11.919,40.26-7.987,52.227,8.767c4.791,6.7,116.023,166.18,0.893,342.7C123.731,396.905,111.964,403.278,99.211,403.278z
	 M99.251,41.518c-4.78,0-9.607,1.42-13.793,4.386c-10.706,7.586-13.263,22.519-5.697,33.287
	c3.767,5.361,91.203,132.813-0.532,273.48c-3.487,5.347-4.683,11.727-3.367,17.973c1.314,6.246,4.983,11.607,10.33,15.094
	c3.9,2.54,8.404,3.886,13.02,3.886c8.12,0,15.613-4.053,20.04-10.846c110.094-168.8,4.004-320.92-0.567-327.306
	C114.048,44.979,106.704,41.518,99.251,41.518z"/>
<path d="M85.58,106.311c-3.057,0-5.84-2.067-6.617-5.173c-0.913-3.654,1.311-7.359,4.966-8.274l27.307-6.827
	c3.663-0.913,7.366,1.3,8.281,4.966c0.913,3.654-1.311,7.359-4.966,8.274l-27.307,6.827
	C86.688,106.245,86.132,106.311,85.58,106.311z"/>
<path d="M106.06,154.098c-3.057,0-5.84-2.067-6.617-5.173c-0.913-3.654,1.311-7.359,4.966-8.274l27.307-6.827
	c3.666-0.92,7.363,1.3,8.281,4.966c0.913,3.654-1.311,7.359-4.966,8.274l-27.307,6.827
	C107.168,154.031,106.612,154.098,106.06,154.098z"/>
<path d="M147.027,208.711H119.72c-3.77,0-6.827-3.053-6.827-6.827s3.057-6.827,6.827-6.827h27.307c3.77,0,6.827,3.053,6.827,6.827
	S150.797,208.711,147.027,208.711z"/>
<path d="M133.374,270.151c-0.713,0-1.444-0.113-2.161-0.353l-20.48-6.827c-3.577-1.186-5.511-5.053-4.316-8.634
	c1.19-3.574,5.05-5.507,8.637-4.313l20.48,6.827c3.577,1.186,5.511,5.053,4.316,8.634
	C138.898,268.346,136.234,270.151,133.374,270.151z"/>
<path d="M119.72,324.765c-0.713,0-1.444-0.113-2.161-0.353l-20.48-6.827c-3.577-1.186-5.511-5.053-4.316-8.634
	c1.19-3.574,5.047-5.519,8.637-4.313l20.48,6.827c3.577,1.186,5.511,5.053,4.316,8.634
	C125.245,322.959,122.581,324.765,119.72,324.765z"/>
<polygon style="fill:#8C6B3B;" points="202.963,54.051 200.273,6.831 160.725,32.771 "/>
<path d="M202.965,60.878c-1.05,0-2.103-0.241-3.07-0.727l-42.24-21.28c-2.179-1.101-3.606-3.28-3.746-5.714
	c-0.137-2.434,1.033-4.76,3.074-6.093l39.55-25.94c2.036-1.347,4.647-1.493,6.813-0.387c2.179,1.094,3.606,3.273,3.746,5.707
	l2.69,47.22c0.137,2.434-1.033,4.76-3.074,6.093C205.578,60.504,204.27,60.878,202.965,60.878z M174.354,31.998l21.123,10.639
	l-1.347-23.613L174.354,31.998z"/>
<polygon style="fill:#8C6B3B;" points="193.643,380.549 147.957,392.791 181.401,426.234 "/>
<path d="M181.401,433.058c-1.787,0-3.529-0.7-4.826-2l-33.444-33.44c-1.727-1.727-2.4-4.239-1.766-6.593
	c0.63-2.353,2.47-4.193,4.826-4.826l45.687-12.24c2.35-0.647,4.871,0.039,6.593,1.766c1.727,1.727,2.4,4.239,1.766,6.593
	l-12.244,45.681c-0.63,2.353-2.47,4.193-4.826,4.826C182.584,432.984,181.992,433.058,181.401,433.058z M161.148,396.325
	l16.72,16.72l6.12-22.84L161.148,396.325z"/>
<path style="fill:#8C6B3B;" d="M208.438,396.451c-5.753,0-11.573-1.62-16.749-4.994c-14.213-9.274-18.22-28.307-8.95-42.513
	c89.23-136.827,4.323-260.627,0.667-265.827c-9.733-13.846-6.47-33,7.337-42.786c13.807-9.774,32.889-6.6,42.723,7.166
	c4.68,6.547,113.3,162.413,0.734,335.007C228.307,391.538,218.473,396.451,208.438,396.451z"/>
<path d="M208.438,403.278c-7.274,0-14.353-2.106-20.477-6.1c-8.404-5.487-14.17-13.906-16.234-23.719
	c-2.067-9.813-0.186-19.847,5.294-28.247c86.74-133.007,4.35-253.119,0.8-258.167c-11.88-16.899-7.857-40.354,8.974-52.28
	c16.829-11.919,40.26-7.987,52.227,8.767c4.791,6.7,116.023,166.18,0.893,342.7C232.958,396.905,221.19,403.278,208.438,403.278z
	 M208.477,41.518c-4.78,0-9.607,1.42-13.793,4.386c-10.706,7.586-13.262,22.519-5.697,33.287
	c3.767,5.361,91.203,132.813-0.532,273.48c-3.487,5.347-4.683,11.727-3.367,17.973c1.314,6.246,4.983,11.607,10.33,15.094
	c3.9,2.54,8.404,3.886,13.02,3.886c8.12,0,15.613-4.053,20.04-10.846c110.094-168.8,4.004-320.92-0.567-327.306
	C223.274,44.979,215.93,41.518,208.477,41.518z"/>
<path d="M194.807,106.311c-3.057,0-5.84-2.067-6.617-5.173c-0.913-3.654,1.311-7.359,4.966-8.274l27.307-6.827
	c3.663-0.913,7.366,1.3,8.281,4.966c0.913,3.654-1.311,7.359-4.966,8.274l-27.307,6.827
	C195.915,106.245,195.358,106.311,194.807,106.311z"/>
<path d="M215.287,154.098c-3.057,0-5.84-2.067-6.617-5.173c-0.913-3.654,1.311-7.359,4.966-8.274l27.307-6.827
	c3.666-0.92,7.363,1.3,8.281,4.966c0.913,3.654-1.311,7.359-4.966,8.274l-27.307,6.827
	C216.395,154.031,215.838,154.098,215.287,154.098z"/>
<path d="M256.254,208.711h-27.307c-3.77,0-6.827-3.053-6.827-6.827s3.057-6.827,6.827-6.827h27.307c3.77,0,6.827,3.053,6.827,6.827
	S260.024,208.711,256.254,208.711z"/>
<path d="M242.6,270.151c-0.713,0-1.444-0.113-2.161-0.353l-20.48-6.827c-3.577-1.186-5.511-5.053-4.316-8.634
	c1.19-3.574,5.047-5.507,8.637-4.313l20.48,6.827c3.577,1.186,5.511,5.053,4.316,8.634
	C248.125,268.346,245.461,270.151,242.6,270.151z"/>
<path d="M228.947,324.765c-0.713,0-1.444-0.113-2.161-0.353l-20.48-6.827c-3.577-1.186-5.511-5.053-4.316-8.634
	c1.193-3.574,5.04-5.519,8.637-4.313l20.48,6.827c3.577,1.186,5.511,5.053,4.316,8.634
	C234.472,322.959,231.808,324.765,228.947,324.765z"/>
<polygon style="fill:#8C6B3B;" points="312.19,54.051 309.5,6.831 269.952,32.771 "/>
<path d="M312.191,60.878c-1.05,0-2.103-0.241-3.07-0.727l-42.24-21.28c-2.179-1.101-3.606-3.28-3.746-5.714
	c-0.137-2.434,1.033-4.76,3.074-6.093l39.55-25.94c2.043-1.347,4.64-1.493,6.813-0.387c2.179,1.094,3.606,3.273,3.746,5.707
	l2.69,47.22c0.137,2.434-1.033,4.76-3.074,6.093C314.804,60.504,313.497,60.878,312.191,60.878z M283.581,31.998l21.123,10.639
	l-1.347-23.613L283.581,31.998z"/>
<polygon style="fill:#8C6B3B;" points="302.87,380.549 257.184,392.791 290.628,426.234 "/>
<path d="M290.628,433.058c-1.787,0-3.529-0.7-4.826-2l-33.444-33.44c-1.727-1.727-2.4-4.239-1.766-6.593
	c0.63-2.353,2.47-4.193,4.826-4.826l45.687-12.24c2.357-0.647,4.867,0.039,6.593,1.766s2.4,4.239,1.766,6.593l-12.244,45.681
	c-0.63,2.353-2.47,4.193-4.826,4.826C291.81,432.984,291.218,433.058,290.628,433.058z M270.375,396.325l16.72,16.72l6.12-22.84
	L270.375,396.325z"/>
<path style="fill:#8C6B3B;" d="M317.665,396.451c-5.753,0-11.573-1.62-16.749-4.994c-14.213-9.274-18.22-28.307-8.95-42.513
	c89.23-136.827,4.323-260.627,0.667-265.827c-9.733-13.846-6.47-33,7.337-42.786c13.807-9.774,32.889-6.6,42.723,7.166
	c4.68,6.547,113.301,162.413,0.734,335.007C337.534,391.538,327.7,396.451,317.665,396.451z"/>
<path d="M317.665,403.278c-7.274,0-14.353-2.106-20.477-6.1c-8.404-5.487-14.17-13.906-16.234-23.719
	c-2.067-9.813-0.186-19.847,5.294-28.247c86.74-133.007,4.35-253.119,0.8-258.167c-11.88-16.899-7.857-40.354,8.974-52.28
	c16.836-11.919,40.264-7.987,52.227,8.767c4.791,6.7,116.023,166.18,0.893,342.7C342.184,396.905,330.417,403.278,317.665,403.278z
	 M317.704,41.518c-4.78,0-9.607,1.42-13.793,4.386c-10.706,7.586-13.263,22.519-5.697,33.287
	c3.767,5.361,91.203,132.813-0.532,273.48c-3.487,5.347-4.683,11.727-3.367,17.973c1.314,6.246,4.983,11.607,10.33,15.094
	c3.9,2.54,8.404,3.886,13.02,3.886c8.12,0,15.613-4.053,20.04-10.846c110.094-168.8,4.004-320.92-0.567-327.306
	C332.501,44.979,325.157,41.518,317.704,41.518z"/>
<path d="M304.034,106.311c-3.057,0-5.84-2.067-6.617-5.173c-0.913-3.654,1.311-7.359,4.966-8.274l27.307-6.827
	c3.666-0.913,7.363,1.3,8.281,4.966c0.913,3.654-1.311,7.359-4.966,8.274l-27.307,6.827
	C305.141,106.245,304.585,106.311,304.034,106.311z"/>
<path d="M324.514,154.098c-3.057,0-5.84-2.067-6.617-5.173c-0.913-3.654,1.311-7.359,4.966-8.274l27.307-6.827
	c3.647-0.92,7.363,1.3,8.281,4.966c0.913,3.654-1.311,7.359-4.966,8.274l-27.307,6.827
	C325.621,154.031,325.065,154.098,324.514,154.098z"/>
<path d="M365.48,208.711h-27.307c-3.77,0-6.827-3.053-6.827-6.827s3.057-6.827,6.827-6.827h27.307c3.77,0,6.827,3.053,6.827,6.827
	S369.25,208.711,365.48,208.711z"/>
<path d="M351.827,270.151c-0.713,0-1.444-0.113-2.161-0.353l-20.48-6.827c-3.577-1.186-5.511-5.053-4.316-8.634
	c1.193-3.574,5.04-5.507,8.637-4.313l20.48,6.827c3.577,1.186,5.511,5.053,4.316,8.634
	C357.352,268.346,354.688,270.151,351.827,270.151z"/>
<path d="M338.174,324.765c-0.713,0-1.444-0.113-2.161-0.353l-20.48-6.827c-3.577-1.186-5.511-5.053-4.316-8.634
	c1.193-3.574,5.05-5.519,8.637-4.313l20.48,6.827c3.577,1.186,5.511,5.053,4.316,8.634
	C343.698,322.959,341.034,324.765,338.174,324.765z"/>
<g>
</g>
<g>
</g>
<g>
</g>
<g>
</g>
<g>
</g>
<g>
</g>
<g>
</g>
<g>
</g>
<g>
</g>
<g>
</g>
<g>
</g>
<g>
</g>
<g>
</g>
<g>
</g>
<g>
</g>
</svg>
