<svg xmlns="http://www.w3.org/2000/svg" data-name="Слой 1" viewBox="0 0 100 100" x="0px" y="0px"><title>точка с запятой</title><path d="M66.37215,60.19505c0.35935,6.70582-3.18324,12.0651-7.28265,17.19135A67.05878,67.05878,0,0,1,43.28974,91.63123a37.72143,37.72143,0,0,1-7.151,3.09464,1.02736,1.02736,0,0,1-1.59752-.57321,1.55461,1.55461,0,0,1,.50753-2.0234,104.6672,104.6672,0,0,0,9.403-7.64977c2.79943-2.57437,3.81563-6.07363,5.23572-9.36665a30.60211,30.60211,0,0,0,1.09909-3.87167,1.18047,1.18047,0,0,0-.13577-1.32607,1.19567,1.19567,0,0,0-1.33605.02278c-2.20461.55508-4.243,1.75026-6.69,1.31244-3.24466-.58053-6.11488-1.67654-8.05354-4.53767-1.52884-2.25638-1.00578-4.67253-.57405-7.05547a17.14,17.14,0,0,1,7.0976-11.25132,15.95726,15.95726,0,0,1,7.8435-2.58758,26.02531,26.02531,0,0,1,7.48124-.11086,9.27654,9.27654,0,0,1,6.07814,4.07085c0.73208,1.00653,1.54688,1.93618,2.19959,3.027A11.2614,11.2614,0,0,1,66.37215,60.19505Z"/><path d="M48.08044,33.21985c-2.38587.44122-4.67561-.93614-6.38475-2.65131a10.76885,10.76885,0,0,1-3.2532-7.2117A15.94416,15.94416,0,0,1,41.6184,12.5684c2.69485-3.58277,6.17132-6.46875,10.68816-7.158,3.14814-.48041,6.66451-0.81907,9.04238,2.421,0.58074,0.79134,1.644,1.02341,2.3087,1.88913,2.064,2.68831,2.27562,5.57227,1.682,8.77932-0.72768,3.93123-1.72647,7.69428-4.95318,10.347C56.94429,31.67666,53.12988,33.67482,48.08044,33.21985Z"/></svg>