<?xml version="1.0" encoding="iso-8859-1"?>
<!-- Generator: Adobe Illustrator 19.0.0, SVG Export Plug-In . SVG Version: 6.00 Build 0)  -->
<svg version="1.1" id="Capa_1" xmlns="http://www.w3.org/2000/svg" xmlns:xlink="http://www.w3.org/1999/xlink" x="0px" y="0px"
	 viewBox="0 0 218.439 218.439" style="enable-background:new 0 0 218.439 218.439;" xml:space="preserve">
<path style="fill:#26BBEC;" d="M194.877,112.636H37c-1.043,0-2.074-0.247-3.005-0.72L7.122,98.264
	c-3.319-1.686-4.664-5.786-3.005-9.16c1.661-3.369,5.685-4.745,9.015-3.053l25.452,12.931H193.29l12.017-6.106
	c3.326-1.688,7.357-0.314,9.015,3.053c1.661,3.372,0.316,7.473-3.005,9.16l-13.437,6.827
	C196.951,112.39,195.92,112.636,194.877,112.636z"/>
<path d="M194.877,116.05H37c-1.574,0-3.147-0.377-4.552-1.091L5.577,101.307c-4.97-2.526-6.999-8.675-4.519-13.71
	c1.217-2.471,3.313-4.306,5.902-5.168c2.563-0.853,5.304-0.649,7.719,0.58l24.723,12.561h153.071l11.288-5.736
	c2.415-1.227,5.159-1.432,7.724-0.575c2.589,0.864,4.683,2.698,5.898,5.164c2.476,5.035,0.449,11.184-4.521,13.71l-13.435,6.827
	C198.024,115.672,196.451,116.05,194.877,116.05z M10.126,88.743c-0.338,0-0.678,0.055-1.01,0.164
	c-0.843,0.282-1.529,0.887-1.935,1.707c-0.835,1.698-0.169,3.767,1.49,4.608l26.871,13.652c0.451,0.229,0.956,0.35,1.457,0.35
	h157.877c0.503,0,1.009-0.121,1.457-0.35l13.435-6.827c1.659-0.841,2.324-2.91,1.488-4.608c-0.401-0.818-1.087-1.422-1.932-1.703
	c-0.818-0.273-1.698-0.208-2.473,0.186l-12.015,6.106c-0.48,0.244-1.01,0.37-1.546,0.37H38.584c-0.536,0-1.067-0.126-1.546-0.37
	L11.585,89.094C11.124,88.861,10.626,88.743,10.126,88.743z"/>
<circle style="fill:#DDDDDD;" cx="54.608" cy="122.873" r="10.24"/>
<path d="M54.608,136.528c-7.528,0-13.653-6.124-13.653-13.653c0-7.53,6.125-13.653,13.653-13.653s13.653,6.124,13.653,13.653
	C68.261,130.404,62.136,136.528,54.608,136.528z M54.608,116.05c-3.765,0-6.827,3.062-6.827,6.827c0,3.765,3.062,6.827,6.827,6.827
	c3.765,0,6.827-3.062,6.827-6.827C61.435,119.111,58.373,116.05,54.608,116.05z"/>
<circle style="fill:#DDDDDD;" cx="180.901" cy="122.873" r="10.24"/>
<path d="M180.9,136.528c-7.528,0-13.653-6.124-13.653-13.653c0-7.53,6.125-13.653,13.653-13.653c7.528,0,13.653,6.124,13.653,13.653
	C194.553,130.404,188.428,136.528,180.9,136.528z M180.9,116.05c-3.765,0-6.827,3.062-6.827,6.827c0,3.765,3.062,6.827,6.827,6.827
	s6.827-3.062,6.827-6.827C187.726,119.111,184.665,116.05,180.9,116.05z"/>
<g>
</g>
<g>
</g>
<g>
</g>
<g>
</g>
<g>
</g>
<g>
</g>
<g>
</g>
<g>
</g>
<g>
</g>
<g>
</g>
<g>
</g>
<g>
</g>
<g>
</g>
<g>
</g>
<g>
</g>
</svg>
