<?xml version="1.0" encoding="iso-8859-1"?>
<!-- Generator: Adobe Illustrator 19.0.0, SVG Export Plug-In . SVG Version: 6.00 Build 0)  -->
<svg version="1.1" id="Capa_1" xmlns="http://www.w3.org/2000/svg" xmlns:xlink="http://www.w3.org/1999/xlink" x="0px" y="0px"
	 viewBox="0 0 511.999 511.999" style="enable-background:new 0 0 511.999 511.999;" xml:space="preserve">
<path style="fill:#FF7883;" d="M379.481,496.505L267.481,128.503c-1.128-5.075-6.688-8.6-11.649-8.501
	c-4.85,0.096-10.202,3.509-11.311,8.501L132.52,496.505c-1.863,6.122,1.621,12.89,7.711,14.87c6.316,2.053,13.306-1.495,15.25-7.882
	l24.194-79.494h64.326v76c0,6.627,5.373,12,12,12c6.627,0,12-5.373,12-12v-76h64.326l24.194,79.494
	c1.802,5.92,8.144,9.615,14.175,8.191C377.351,510.114,381.484,503.088,379.481,496.505z M268,212.642l30.239,99.357H268V212.642z
	 M243.999,311.999h-30.238L244,212.642L243.999,311.999L243.999,311.999z M186.978,399.999l19.478-64h37.543v64H186.978z
	 M268,399.999v-64h37.543l19.478,64H268z"/>
<path style="fill:#AE85CC;" d="M256,96.001c-17.645,0-32,14.355-32,32s14.355,32,32,32c17.645,0,32-14.355,32-32
	S273.645,96.001,256,96.001z"/>
<path style="fill:#9968BD;" d="M256,112.001c-8.822,0-16,7.177-16,16s7.178,16,16,16c8.822,0,16-7.177,16-16
	S264.823,112.001,256,112.001z"/>
<path style="fill:#FFC44F;" d="M337.721,168.692c-5.576,0-9.49-5.814-7.424-10.975c3.784-9.454,5.703-19.452,5.703-29.716
	c0-44.112-35.888-80-80-80s-80,35.888-80,80c0,10.264,1.919,20.262,5.703,29.716c1.643,4.102-0.352,8.758-4.454,10.4
	c-4.103,1.643-8.757-0.353-10.399-4.454c-4.545-11.354-6.85-23.352-6.85-35.663c0-52.935,43.065-96.001,96.001-96.001
	S352,75.064,352,128c0,12.311-2.305,24.309-6.85,35.663C343.899,166.791,340.896,168.692,337.721,168.692z"/>
<path style="fill:#FFB357;" d="M367.439,180.58c-5.576,0-9.491-5.814-7.424-10.975c5.299-13.236,7.985-27.233,7.985-41.604
	C368,66.243,317.757,16,256,16S143.999,66.243,143.999,128.001c0,14.37,2.687,28.368,7.985,41.604
	c1.643,4.102-0.352,8.758-4.453,10.4c-4.108,1.644-8.759-0.352-10.4-4.454c-6.06-15.135-9.132-31.133-9.132-47.55
	C127.999,57.42,185.42,0,256,0S384,57.42,384,128.001c0,16.417-3.072,32.415-9.132,47.55
	C373.617,178.678,370.614,180.58,367.439,180.58z"/>
<path style="fill:#FFD791;" d="M307.992,156.8c-5.576,0-9.491-5.815-7.424-10.976c2.277-5.689,3.433-11.686,3.433-17.824
	c0-26.467-21.532-48-48-48s-48,21.533-48,48c0,6.138,1.155,12.135,3.433,17.824c1.643,4.102-0.352,8.758-4.453,10.4
	c-4.104,1.641-8.759-0.352-10.4-4.453c-3.038-7.588-4.579-15.586-4.579-23.771c0-35.29,28.71-64,64-64s64,28.71,64,64
	c0,8.185-1.541,16.183-4.579,23.771C314.169,154.898,311.166,156.8,307.992,156.8z"/>
<g>
</g>
<g>
</g>
<g>
</g>
<g>
</g>
<g>
</g>
<g>
</g>
<g>
</g>
<g>
</g>
<g>
</g>
<g>
</g>
<g>
</g>
<g>
</g>
<g>
</g>
<g>
</g>
<g>
</g>
</svg>
