<?xml version="1.0" encoding="iso-8859-1"?>
<!-- Generator: Adobe Illustrator 19.0.0, SVG Export Plug-In . SVG Version: 6.00 Build 0)  -->
<svg version="1.1" id="Capa_1" xmlns="http://www.w3.org/2000/svg" xmlns:xlink="http://www.w3.org/1999/xlink" x="0px" y="0px"
	 viewBox="0 0 512 512" style="enable-background:new 0 0 512 512;" xml:space="preserve">
<path style="fill:#83D816;" d="M461.714,475.429H50.286V105.6c0-53.271,43.186-96.457,96.457-96.457h218.514
	c53.271,0,96.457,43.186,96.457,96.457V475.429z"/>
<path d="M461.714,484.571H50.286c-5.047,0-9.143-4.096-9.143-9.143V105.6C41.143,47.374,88.517,0,146.743,0h218.514
	c58.231,0,105.6,47.374,105.6,105.6v369.829C470.857,480.475,466.761,484.571,461.714,484.571z M59.429,466.286h393.143V105.6
	c0-48.146-39.168-87.314-87.314-87.314H146.743c-48.146,0-87.314,39.168-87.314,87.314V466.286z"/>
<path d="M132.571,512c-5.047,0-9.143-4.096-9.143-9.143V192c0-5.047,4.096-9.143,9.143-9.143c5.047,0,9.143,4.096,9.143,9.143
	v310.857C141.714,507.904,137.618,512,132.571,512z"/>
<path d="M379.429,512c-5.047,0-9.143-4.096-9.143-9.143V192c0-5.047,4.096-9.143,9.143-9.143s9.143,4.096,9.143,9.143v310.857
	C388.571,507.904,384.475,512,379.429,512z"/>
<path style="fill:#595959;" d="M169.143,9.143c0,45.445,38.889,82.286,86.857,82.286s86.857-36.841,86.857-82.286H169.143z"/>
<path d="M256,100.571c-52.937,0-96-41.015-96-91.429C160,4.096,164.096,0,169.143,0h173.714C347.904,0,352,4.096,352,9.143
	C352,59.557,308.933,100.571,256,100.571z M178.889,18.286c4.795,36.032,37.55,64,77.111,64s72.311-27.968,77.111-64H178.889z"/>
<rect x="156.433" y="264.584" transform="matrix(-0.7071 0.7071 -0.7071 -0.7071 521.6965 369.0425)" style="fill:#EE5281;" width="55.967" height="55.967"/>
<path d="M184.421,341.289c-2.423,0-4.75-0.965-6.464-2.679l-39.575-39.575c-3.57-3.57-3.57-9.358,0-12.928l39.575-39.575
	c3.429-3.429,9.499-3.429,12.928,0l39.575,39.575c3.57,3.57,3.57,9.358,0,12.928l-39.575,39.575
	C189.17,340.325,186.843,341.289,184.421,341.289z M157.774,292.571l26.647,26.647l26.642-26.647l-26.647-26.647L157.774,292.571z"
	/>
<rect x="229.574" y="264.568" transform="matrix(-0.7071 0.7071 -0.7071 -0.7071 646.5444 317.2959)" style="fill:#EE5281;" width="55.967" height="55.967"/>
<path d="M257.563,341.289c-2.341,0-4.681-0.891-6.464-2.679l-39.575-39.575c-1.714-1.714-2.679-4.041-2.679-6.464
	s0.965-4.75,2.679-6.464l39.575-39.575c3.57-3.57,9.358-3.57,12.928,0l39.575,39.575c1.714,1.714,2.679,4.041,2.679,6.464
	c0,2.423-0.965,4.75-2.679,6.464l-39.575,39.575C262.24,340.398,259.904,341.289,257.563,341.289z M230.917,292.571l26.647,26.647
	l26.647-26.647l-26.647-26.642L230.917,292.571z"/>
<rect x="192.99" y="310.304" transform="matrix(-0.7071 0.7071 -0.7071 -0.7071 616.4316 421.2415)" style="fill:#FCAD3A;" width="55.967" height="55.967"/>
<path d="M220.992,387.003c-2.341,0-4.681-0.891-6.464-2.679l-39.575-39.575c-3.57-3.57-3.57-9.358,0-12.928l39.575-39.575
	c3.566-3.57,9.362-3.57,12.928,0l39.575,39.575c3.57,3.57,3.57,9.358,0,12.928l-39.575,39.575
	C225.673,386.112,223.333,387.003,220.992,387.003z M194.345,338.286l26.647,26.647l26.642-26.647l-26.647-26.647L194.345,338.286z"
	/>
<rect x="266.145" y="310.301" transform="matrix(-0.7071 0.7071 -0.7071 -0.7071 741.3126 369.5086)" style="fill:#FCAD3A;" width="55.967" height="55.967"/>
<path d="M294.135,387.003c-2.341,0-4.677-0.891-6.464-2.679l-39.575-39.575c-3.57-3.57-3.57-9.358,0-12.928l39.575-39.575
	c3.57-3.57,9.358-3.57,12.928,0l39.575,39.575c3.57,3.57,3.57,9.358,0,12.928l-39.575,39.575
	C298.811,386.112,296.475,387.003,294.135,387.003z M267.488,338.286l26.647,26.647l26.647-26.647l-26.647-26.647L267.488,338.286z"
	/>
<rect x="302.702" y="264.588" transform="matrix(-0.7071 0.7071 -0.7071 -0.7071 771.3948 265.6215)" style="fill:#EE5281;" width="55.967" height="55.967"/>
<path d="M330.706,341.289c-2.341,0-4.677-0.891-6.464-2.679l-39.575-39.575c-1.714-1.714-2.679-4.041-2.679-6.464
	s0.965-4.75,2.679-6.464l39.575-39.575c3.57-3.57,9.358-3.57,12.928,0l39.575,39.575c1.714,1.714,2.679,4.041,2.679,6.464
	c0,2.423-0.965,4.75-2.679,6.464L337.17,338.61C335.383,340.398,333.047,341.289,330.706,341.289z M304.059,292.571l26.647,26.647
	l26.647-26.647l-26.647-26.642L304.059,292.571z"/>
<rect x="156.43" y="356.019" transform="matrix(-0.7071 0.7071 -0.7071 -0.7071 586.3449 525.1332)" style="fill:#EE5281;" width="55.967" height="55.967"/>
<path d="M184.421,432.718c-2.423,0-4.75-0.965-6.464-2.679l-39.575-39.575c-3.57-3.57-3.57-9.358,0-12.928l39.575-39.575
	c3.429-3.429,9.499-3.429,12.928,0l39.575,39.575c3.57,3.57,3.57,9.358,0,12.928l-39.575,39.575
	C189.17,431.753,186.843,432.718,184.421,432.718z M157.774,384l26.647,26.647L211.063,384l-26.647-26.647L157.774,384z"/>
<rect x="229.571" y="356.002" transform="matrix(-0.7071 0.7071 -0.7071 -0.7071 711.1928 473.3866)" style="fill:#EE5281;" width="55.967" height="55.967"/>
<path d="M257.563,432.718c-2.341,0-4.681-0.891-6.464-2.679l-39.575-39.575c-3.57-3.57-3.57-9.358,0-12.928l39.575-39.575
	c3.566-3.57,9.358-3.57,12.928,0l39.575,39.575c3.57,3.57,3.57,9.358,0,12.928l-39.575,39.575
	C262.24,431.826,259.904,432.718,257.563,432.718z M230.917,384l26.647,26.647L284.21,384l-26.647-26.647L230.917,384z"/>
<rect x="302.711" y="356.035" transform="matrix(-0.7071 0.7071 -0.7071 -0.7071 836.0731 421.7245)" style="fill:#EE5281;" width="55.967" height="55.967"/>
<path d="M330.706,432.718c-2.423,0-4.75-0.965-6.464-2.679l-39.575-39.575c-3.57-3.57-3.57-9.358,0-12.928l39.575-39.575
	c1.714-1.714,4.041-2.679,6.464-2.679l0,0c2.423,0,4.75,0.965,6.464,2.679l39.57,39.575c3.57,3.57,3.57,9.358,0,12.928
	l-39.57,39.575C335.456,431.753,333.129,432.718,330.706,432.718z M304.059,384l26.647,26.647L357.349,384l-26.642-26.647
	L304.059,384z"/>
<rect x="50.286" y="457.143" style="fill:#FCAD3A;" width="82.286" height="45.714"/>
<path d="M132.571,512H50.286c-5.047,0-9.143-4.096-9.143-9.143v-45.714c0-5.047,4.096-9.143,9.143-9.143h82.286
	c5.047,0,9.143,4.096,9.143,9.143v45.714C141.714,507.904,137.618,512,132.571,512z M59.429,493.714h64v-27.429h-64V493.714z"/>
<rect x="379.429" y="457.143" style="fill:#FCAD3A;" width="82.286" height="45.714"/>
<path d="M461.714,512h-82.286c-5.047,0-9.143-4.096-9.143-9.143v-45.714c0-5.047,4.096-9.143,9.143-9.143h82.286
	c5.047,0,9.143,4.096,9.143,9.143v45.714C470.857,507.904,466.761,512,461.714,512z M388.571,493.714h64v-27.429h-64V493.714z"/>
<g>
</g>
<g>
</g>
<g>
</g>
<g>
</g>
<g>
</g>
<g>
</g>
<g>
</g>
<g>
</g>
<g>
</g>
<g>
</g>
<g>
</g>
<g>
</g>
<g>
</g>
<g>
</g>
<g>
</g>
</svg>
