<?xml version="1.0" encoding="iso-8859-1"?>
<!-- Generator: Adobe Illustrator 19.0.0, SVG Export Plug-In . SVG Version: 6.00 Build 0)  -->
<svg version="1.1" id="Capa_1" xmlns="http://www.w3.org/2000/svg" xmlns:xlink="http://www.w3.org/1999/xlink" x="0px" y="0px"
	 viewBox="0 0 379.089 379.089" style="enable-background:new 0 0 379.089 379.089;" xml:space="preserve">
<ellipse transform="matrix(-0.7071 -0.7071 0.7071 -0.7071 -172.0114 608.5115)" style="fill:#FFE600;" cx="40.021" cy="339.88" rx="40.96" ry="20.48"/>
<path style="fill:#602F75;" d="M59.459,379.089c-11.453,0-25.894-7.047-38.746-19.9c-8.474-8.47-14.821-18.196-17.886-27.387
	c-3.599-10.79-2.386-19.92,3.407-25.709c10.999-11.006,33.833-4.78,53.1,14.479c19.26,19.267,25.487,42.093,14.479,53.099l0,0
	C70.147,377.336,65.18,379.089,59.459,379.089z M68.986,368.845h0.067H68.986z M20.619,314.28c-2.14,0-3.773,0.507-4.733,1.466
	c-1.86,1.86-1.9,6.357-0.106,11.737c2.374,7.117,7.687,15.153,14.587,22.054c14.734,14.73,29.853,18.41,33.794,14.483
	c3.934-3.937,0.253-19.06-14.479-33.794C38.553,319.103,27.2,314.28,20.619,314.28z"/>
<rect x="58.174" y="253.476" transform="matrix(-0.7071 -0.7071 0.7071 -0.7071 -78.7535 569.9031)" style="fill:#EA3457;" width="40.96" height="95.572"/>
<path style="fill:#602F75;" d="M59.333,356.363c-1.746,0-3.494-0.667-4.826-2l-28.967-28.964c-1.28-1.28-2-3.017-2-4.826
	c0-1.809,0.72-3.546,2-4.826l67.581-67.581c2.666-2.666,6.987-2.666,9.653,0l28.967,28.964c1.28,1.28,2,3.017,2,4.826
	s-0.72,3.546-2,4.826L64.16,354.362C62.827,355.695,61.079,356.363,59.333,356.363z M40.019,320.572l19.313,19.309l57.926-57.926
	l-19.311-19.309L40.019,320.572z"/>
<polyline style="fill:#FFFFFF;" points="191.852,236.324 367.443,60.734 371.467,6.831 319.171,12.463 107.604,224.029 
	155.876,272.302 "/>
<path style="fill:#602F75;" d="M155.872,279.129c-1.746,0-3.494-0.667-4.826-2l-48.266-48.273c-2.666-2.666-2.666-6.987,0-9.653
	L314.347,7.636c1.101-1.103,2.546-1.794,4.093-1.959l52.294-5.634c2.053-0.23,4.026,0.473,5.48,1.881
	c1.459,1.41,2.214,3.393,2.06,5.414l-4.019,53.903c-0.119,1.63-0.819,3.164-1.98,4.32L196.679,241.152
	c-2.666,2.666-6.987,2.666-9.653,0s-2.666-6.987,0-9.653l173.8-173.804l3.22-43.199L322.3,18.994L117.259,224.029l43.44,43.447
	c2.666,2.666,2.666,6.99,0,9.653C159.366,278.462,157.62,279.129,155.872,279.129z"/>
<path style="fill:#00E7FF;" d="M136.567,250.165c-1.746,0-3.494-0.667-4.826-2c-2.666-2.666-2.666-6.987,0-9.653L328.826,41.426
	c2.666-2.666,6.987-2.666,9.653,0c2.666,2.666,2.666,6.987,0,9.653L141.393,248.165C140.06,249.5,138.313,250.165,136.567,250.165z"
	/>
<rect x="60.647" y="244.153" transform="matrix(-0.7071 -0.7071 0.7071 -0.7071 26.1172 526.4314)" style="fill:#FFE600;" width="122.879" height="27.306"/>
<path style="fill:#602F75;" d="M155.872,317.746c-1.746,0-3.494-0.667-4.826-2l-86.886-86.89c-2.666-2.666-2.666-6.987,0-9.653
	l19.306-19.306c2.666-2.666,6.987-2.666,9.653,0l86.893,86.886c1.28,1.28,2,3.017,2,4.826c0,1.809-0.72,3.546-2,4.826
	l-19.313,19.309C159.366,317.079,157.62,317.746,155.872,317.746z M78.639,224.029l77.233,77.237l9.66-9.656l-77.24-77.233
	L78.639,224.029z"/>
<g>
</g>
<g>
</g>
<g>
</g>
<g>
</g>
<g>
</g>
<g>
</g>
<g>
</g>
<g>
</g>
<g>
</g>
<g>
</g>
<g>
</g>
<g>
</g>
<g>
</g>
<g>
</g>
<g>
</g>
</svg>
