<?xml version="1.0" encoding="iso-8859-1"?>
<!-- Generator: Adobe Illustrator 19.0.0, SVG Export Plug-In . SVG Version: 6.00 Build 0)  -->
<svg version="1.1" id="Capa_1" xmlns="http://www.w3.org/2000/svg" xmlns:xlink="http://www.w3.org/1999/xlink" x="0px" y="0px"
	 viewBox="0 0 199.915 199.915" style="enable-background:new 0 0 199.915 199.915;" xml:space="preserve">
<rect x="94.18" y="8.464" transform="matrix(-0.7071 -0.7071 0.7071 -0.7071 143.6864 223.2173)" style="fill:#FFFFFF;" width="47.786" height="146.772"/>
<path d="M83.063,154.056c-0.874,0-1.746-0.333-2.413-1l-33.79-33.79c-0.64-0.64-1-1.509-1-2.413c0-0.905,0.36-1.773,1-2.413
	L150.645,10.655c1.331-1.333,3.494-1.333,4.826,0l33.79,33.79c0.64,0.64,1,1.509,1,2.413c0,0.905-0.36,1.773-1,2.413L85.478,153.056
	C84.811,153.723,83.937,154.056,83.063,154.056z M54.099,116.852l28.964,28.964l98.956-98.956l-28.962-28.964L54.099,116.852z"/>
<polygon style="fill:#EE5281;" points="83.063,150.644 49.273,116.854 80.648,85.477 138.576,95.132 "/>
<path d="M83.063,154.056c-0.874,0-1.746-0.333-2.413-1l-33.79-33.79c-0.64-0.64-1-1.509-1-2.413c0-0.905,0.36-1.773,1-2.413
	l31.377-31.377c0.78-0.778,1.893-1.133,2.975-0.954l57.926,9.655c1.261,0.21,2.299,1.106,2.69,2.324
	c0.391,1.219,0.067,2.551-0.838,3.454l-55.513,55.511C84.809,153.723,83.937,154.056,83.063,154.056z M54.099,116.852l28.964,28.964
	l48.41-48.408l-49.652-8.277L54.099,116.852z"/>
<path d="M191.674,55.1c-0.874,0-1.748-0.333-2.413-1l-43.445-43.445c-1.333-1.333-1.333-3.494,0-4.826
	c1.331-1.333,3.495-1.333,4.826,0l43.445,43.445c1.333,1.333,1.333,3.494,0,4.826C193.421,54.767,192.547,55.1,191.674,55.1z"/>
<rect x="49.67" y="129.746" transform="matrix(-0.7071 -0.7071 0.7071 -0.7071 -4.9538 284.747)" style="fill:#FFFFFF;" width="13.653" height="27.306"/>
<path d="M51.686,161.297c-0.874,0-1.748-0.333-2.413-1l-9.655-9.655c-0.64-0.64-1-1.509-1-2.413c0-0.905,0.36-1.773,1-2.413
	l19.309-19.308c0.64-0.64,1.509-1,2.413-1l0,0c0.905,0,1.773,0.36,2.413,1l9.655,9.655c1.333,1.333,1.333,3.494,0,4.826
	l-19.308,19.308C53.434,160.964,52.56,161.297,51.686,161.297z M46.858,148.229l4.828,4.828l14.481-14.481l-4.828-4.828
	L46.858,148.229z"/>
<path d="M3.413,199.914c-0.874,0-1.746-0.333-2.413-1c-1.333-1.333-1.333-3.494,0-4.826l43.445-43.443
	c1.331-1.333,3.494-1.333,4.826,0s1.333,3.494,0,4.826L5.826,198.914C5.161,199.581,4.287,199.914,3.413,199.914z"/>
<path d="M177.193,40.617c-0.874,0-1.748-0.333-2.413-1l-14.481-14.481c-1.333-1.333-1.333-3.494,0-4.826l14.481-14.481
	c1.331-1.333,3.495-1.333,4.826,0l14.481,14.481c1.333,1.333,1.333,3.494,0,4.826l-14.481,14.481
	C178.94,40.284,178.066,40.617,177.193,40.617z M167.538,22.723l9.655,9.655l9.655-9.655l-9.655-9.655L167.538,22.723z"/>
<path d="M196.502,30.964c-0.874,0-1.746-0.333-2.413-1L169.953,5.827c-1.333-1.333-1.333-3.494,0-4.826
	c1.331-1.333,3.494-1.333,4.826,0l24.136,24.137c1.333,1.333,1.333,3.494,0,4.826C198.249,30.631,197.374,30.964,196.502,30.964z"/>
<path d="M153.057,40.617c-0.874,0-1.748-0.333-2.413-1l-12.068-12.068c-1.333-1.333-1.333-3.494,0-4.826
	c1.331-1.333,3.495-1.333,4.826,0l12.068,12.068c1.333,1.333,1.333,3.494,0,4.826C154.804,40.284,153.931,40.617,153.057,40.617z"/>
<path d="M138.576,45.445c-0.874,0-1.746-0.333-2.413-1l-7.241-7.24c-1.333-1.333-1.333-3.494,0-4.826
	c1.331-1.333,3.494-1.333,4.826,0l7.241,7.24c1.333,1.333,1.333,3.494,0,4.826C140.323,45.111,139.448,45.445,138.576,45.445z"/>
<path d="M133.748,59.926c-0.874,0-1.746-0.333-2.413-1L119.267,46.86c-1.333-1.333-1.333-3.494,0-4.826
	c1.331-1.333,3.494-1.333,4.826,0L136.161,54.1c1.333,1.333,1.333,3.494,0,4.826C135.495,59.594,134.621,59.926,133.748,59.926z"/>
<path d="M119.267,64.755c-0.874,0-1.748-0.333-2.413-1l-7.241-7.241c-1.333-1.333-1.333-3.494,0-4.826
	c1.333-1.333,3.495-1.333,4.826,0l7.241,7.241c1.333,1.333,1.333,3.494,0,4.826C121.012,64.422,120.139,64.755,119.267,64.755z"/>
<g>
</g>
<g>
</g>
<g>
</g>
<g>
</g>
<g>
</g>
<g>
</g>
<g>
</g>
<g>
</g>
<g>
</g>
<g>
</g>
<g>
</g>
<g>
</g>
<g>
</g>
<g>
</g>
<g>
</g>
</svg>
