<?xml version="1.0" encoding="iso-8859-1"?>
<!-- Generator: Adobe Illustrator 19.0.0, SVG Export Plug-In . SVG Version: 6.00 Build 0)  -->
<svg version="1.1" id="Capa_1" xmlns="http://www.w3.org/2000/svg" xmlns:xlink="http://www.w3.org/1999/xlink" x="0px" y="0px"
	 viewBox="0 0 385.278 385.278" style="enable-background:new 0 0 385.278 385.278;" xml:space="preserve">
<g>
	<path style="fill:#F48120;" d="M192.599,0c14.359,0.015,25.988,11.667,25.973,26.027c-0.002,1.683-0.167,3.362-0.493,5.013
		c-16.892-2.541-34.068-2.541-50.96,0c-2.784-14.087,6.38-27.763,20.467-30.547C189.237,0.167,190.916,0.002,192.599,0L192.599,0z"
		/>
	<path style="fill:#F48120;" d="M177.279,349.72V147.48c0-7.036,5.704-12.74,12.74-12.74s12.74,5.704,12.74,12.74v202.24
		c-0.353,5.622,3.919,10.466,9.542,10.818c5.622,0.353,10.466-3.919,10.818-9.542c0.027-0.425,0.027-0.852,0-1.277
		c0-7.036,5.704-12.74,12.74-12.74c7.036,0,12.74,5.704,12.74,12.74c0.006,9.442-3.751,18.497-10.44,25.16
		c-13.941,13.896-36.507,13.859-50.402-0.082c-6.648-6.67-10.386-15.7-10.398-25.118L177.279,349.72z"/>
</g>
<path style="fill:#45B549;" d="M23.439,205.96h-0.32c-4.021,0-7.28-3.259-7.28-7.28c0.012-97.644,79.179-176.79,176.822-176.778
	c97.626,0.012,176.765,79.151,176.778,176.778c-0.022,4.012-3.268,7.258-7.28,7.28h-0.32c-4.012-0.022-7.258-3.268-7.28-7.28
	c0-27.117-21.983-49.1-49.1-49.1c-27.117,0-49.1,21.983-49.1,49.1c0,4.032-3.268,7.3-7.3,7.3c-4.032,0-7.3-3.268-7.3-7.3
	c0.006-27.106-21.964-49.084-49.07-49.09s-49.084,21.964-49.09,49.07c0,0.007,0,0.013,0,0.02c0,4.032-3.268,7.3-7.3,7.3
	s-7.3-3.268-7.3-7.3c0-27.117-21.983-49.1-49.1-49.1s-49.1,21.983-49.1,49.1c0,4.021-3.259,7.28-7.28,7.28
	C23.492,205.96,23.466,205.96,23.439,205.96z"/>
<g>
</g>
<g>
</g>
<g>
</g>
<g>
</g>
<g>
</g>
<g>
</g>
<g>
</g>
<g>
</g>
<g>
</g>
<g>
</g>
<g>
</g>
<g>
</g>
<g>
</g>
<g>
</g>
<g>
</g>
</svg>
