<?xml version="1.0" encoding="iso-8859-1"?>
<!-- Generator: Adobe Illustrator 19.0.0, SVG Export Plug-In . SVG Version: 6.00 Build 0)  -->
<svg version="1.1" id="Capa_1" xmlns="http://www.w3.org/2000/svg" xmlns:xlink="http://www.w3.org/1999/xlink" x="0px" y="0px"
	 viewBox="0 0 512 512" style="enable-background:new 0 0 512 512;" xml:space="preserve">
<ellipse style="fill:#595959;" cx="256" cy="396.387" rx="247.742" ry="49.548"/>
<path d="M256,454.194c-88.543,0-256-12.082-256-57.806s167.457-57.806,256-57.806s256,12.082,256,57.806
	S344.543,454.194,256,454.194z M256,355.097c-154.954,0-239.484,27.276-239.484,41.29s84.53,41.29,239.484,41.29
	s239.484-27.276,239.484-41.29S410.954,355.097,256,355.097z"/>
<path style="fill:#595959;" d="M156.903,379.871l57.806-231.226c0,0-99.097-82.581-82.581-82.581s222.968,82.581,222.968,82.581
	l16.516,231.226c0,0-41.29,24.774-74.323,24.774"/>
<path d="M297.29,412.903c-4.558,0-8.258-3.7-8.258-8.258s3.7-8.258,8.258-8.258c24.37,0,54.594-15.1,65.714-21.145l-15.773-220.85
	c-63.901-25.505-157.923-62.006-197.574-75.14c15.542,15.756,44.205,41.27,70.342,63.05c2.436,2.031,3.493,5.273,2.725,8.345
	l-57.806,231.226c-1.111,4.422-5.603,7.118-10.013,6.008c-4.426-1.107-7.114-5.591-6.012-10.017l56.551-226.201
	c-87.911-73.575-84.872-81.97-82.853-87.548c1.107-3.051,4.191-6.309,9.538-6.309c16.801,0,177.259,63.657,226.036,83.171
	c2.936,1.177,4.942,3.923,5.17,7.077L379.85,379.28c0.223,3.105-1.321,6.07-3.989,7.668
	C374.099,388.013,332.21,412.903,297.29,412.903z"/>
<path style="fill:#595959;" d="M172.655,315.9c0,0,78.386,43.384,192.347,0"/>
<path d="M264.188,343.564c-57.617,0-93.324-19.217-95.533-20.439c-3.993-2.209-5.434-7.234-3.229-11.227
	c2.205-3.984,7.222-5.434,11.214-3.229c1.036,0.562,76.957,40.803,185.422-0.487c4.253-1.614,9.034,0.512,10.657,4.777
	c1.623,4.261-0.516,9.034-4.777,10.657C328.683,338.56,293.587,343.564,264.188,343.564z"/>
<rect x="239.484" y="305.548" style="fill:#FCAD3A;" width="66.065" height="57.806"/>
<path d="M305.548,371.613h-66.065c-4.558,0-8.258-3.7-8.258-8.258v-57.806c0-4.558,3.7-8.258,8.258-8.258h66.065
	c4.558,0,8.258,3.7,8.258,8.258v57.806C313.806,367.913,310.107,371.613,305.548,371.613z M247.742,355.097h49.548v-41.29h-49.548
	V355.097z"/>
<g>
</g>
<g>
</g>
<g>
</g>
<g>
</g>
<g>
</g>
<g>
</g>
<g>
</g>
<g>
</g>
<g>
</g>
<g>
</g>
<g>
</g>
<g>
</g>
<g>
</g>
<g>
</g>
<g>
</g>
</svg>
